<svg xmlns="http://www.w3.org/2000/svg" xmlns:xlink="http://www.w3.org/1999/xlink" width="300" zoomAndPan="magnify" viewBox="0 0 252 143.999998" height="75" preserveAspectRatio="xMidYMid meet" version="1.0"><defs><g/></defs><g fill="#ff577f" fill-opacity="0.302"><g transform="translate(64.377671, 79.208981)"><g><path d="M 21.078125 0.375 C 17.609375 0.375 14.441406 -0.4375 11.578125 -2.0625 C 8.722656 -3.6875 6.460938 -5.957031 4.796875 -8.875 C 3.140625 -11.789062 2.3125 -15.070312 2.3125 -18.71875 C 2.3125 -22.363281 3.140625 -25.640625 4.796875 -28.546875 C 6.460938 -31.460938 8.722656 -33.734375 11.578125 -35.359375 C 14.441406 -36.992188 17.609375 -37.8125 21.078125 -37.8125 C 24.578125 -37.8125 27.753906 -36.992188 30.609375 -35.359375 C 33.472656 -33.734375 35.726562 -31.472656 37.375 -28.578125 C 39.019531 -25.679688 39.84375 -22.394531 39.84375 -18.71875 C 39.84375 -15.03125 39.019531 -11.738281 37.375 -8.84375 C 35.726562 -5.945312 33.472656 -3.6875 30.609375 -2.0625 C 27.753906 -0.4375 24.578125 0.375 21.078125 0.375 Z M 21.078125 -3.859375 C 23.679688 -3.859375 26.03125 -4.460938 28.125 -5.671875 C 30.21875 -6.890625 31.863281 -8.625 33.0625 -10.875 C 34.257812 -13.132812 34.859375 -15.75 34.859375 -18.71875 C 34.859375 -21.71875 34.257812 -24.332031 33.0625 -26.5625 C 31.863281 -28.800781 30.226562 -30.523438 28.15625 -31.734375 C 26.082031 -32.953125 23.722656 -33.5625 21.078125 -33.5625 C 18.429688 -33.5625 16.070312 -32.953125 14 -31.734375 C 11.925781 -30.523438 10.289062 -28.800781 9.09375 -26.5625 C 7.894531 -24.332031 7.296875 -21.71875 7.296875 -18.71875 C 7.296875 -15.75 7.894531 -13.132812 9.09375 -10.875 C 10.289062 -8.625 11.929688 -6.890625 14.015625 -5.671875 C 16.109375 -4.460938 18.460938 -3.859375 21.078125 -3.859375 Z M 21.078125 -3.859375 "/></g></g></g><g fill="#ff577f" fill-opacity="0.302"><g transform="translate(107.536463, 79.208981)"><g><path d="M 21.078125 0.375 C 17.609375 0.375 14.441406 -0.4375 11.578125 -2.0625 C 8.722656 -3.6875 6.460938 -5.957031 4.796875 -8.875 C 3.140625 -11.789062 2.3125 -15.070312 2.3125 -18.71875 C 2.3125 -22.363281 3.140625 -25.640625 4.796875 -28.546875 C 6.460938 -31.460938 8.722656 -33.734375 11.578125 -35.359375 C 14.441406 -36.992188 17.609375 -37.8125 21.078125 -37.8125 C 24.578125 -37.8125 27.753906 -36.992188 30.609375 -35.359375 C 33.472656 -33.734375 35.726562 -31.472656 37.375 -28.578125 C 39.019531 -25.679688 39.84375 -22.394531 39.84375 -18.71875 C 39.84375 -15.03125 39.019531 -11.738281 37.375 -8.84375 C 35.726562 -5.945312 33.472656 -3.6875 30.609375 -2.0625 C 27.753906 -0.4375 24.578125 0.375 21.078125 0.375 Z M 21.078125 -3.859375 C 23.679688 -3.859375 26.03125 -4.460938 28.125 -5.671875 C 30.21875 -6.890625 31.863281 -8.625 33.0625 -10.875 C 34.257812 -13.132812 34.859375 -15.75 34.859375 -18.71875 C 34.859375 -21.71875 34.257812 -24.332031 33.0625 -26.5625 C 31.863281 -28.800781 30.226562 -30.523438 28.15625 -31.734375 C 26.082031 -32.953125 23.722656 -33.5625 21.078125 -33.5625 C 18.429688 -33.5625 16.070312 -32.953125 14 -31.734375 C 11.925781 -30.523438 10.289062 -28.800781 9.09375 -26.5625 C 7.894531 -24.332031 7.296875 -21.71875 7.296875 -18.71875 C 7.296875 -15.75 7.894531 -13.132812 9.09375 -10.875 C 10.289062 -8.625 11.929688 -6.890625 14.015625 -5.671875 C 16.109375 -4.460938 18.460938 -3.859375 21.078125 -3.859375 Z M 21.078125 -3.859375 "/></g></g></g><g fill="#ff577f" fill-opacity="0.302"><g transform="translate(150.695255, 79.208981)"><g><path d="M 21.078125 0.375 C 17.609375 0.375 14.441406 -0.4375 11.578125 -2.0625 C 8.722656 -3.6875 6.460938 -5.957031 4.796875 -8.875 C 3.140625 -11.789062 2.3125 -15.070312 2.3125 -18.71875 C 2.3125 -22.363281 3.140625 -25.640625 4.796875 -28.546875 C 6.460938 -31.460938 8.722656 -33.734375 11.578125 -35.359375 C 14.441406 -36.992188 17.609375 -37.8125 21.078125 -37.8125 C 24.578125 -37.8125 27.753906 -36.992188 30.609375 -35.359375 C 33.472656 -33.734375 35.726562 -31.472656 37.375 -28.578125 C 39.019531 -25.679688 39.84375 -22.394531 39.84375 -18.71875 C 39.84375 -15.03125 39.019531 -11.738281 37.375 -8.84375 C 35.726562 -5.945312 33.472656 -3.6875 30.609375 -2.0625 C 27.753906 -0.4375 24.578125 0.375 21.078125 0.375 Z M 21.078125 -3.859375 C 23.679688 -3.859375 26.03125 -4.460938 28.125 -5.671875 C 30.21875 -6.890625 31.863281 -8.625 33.0625 -10.875 C 34.257812 -13.132812 34.859375 -15.75 34.859375 -18.71875 C 34.859375 -21.71875 34.257812 -24.332031 33.0625 -26.5625 C 31.863281 -28.800781 30.226562 -30.523438 28.15625 -31.734375 C 26.082031 -32.953125 23.722656 -33.5625 21.078125 -33.5625 C 18.429688 -33.5625 16.070312 -32.953125 14 -31.734375 C 11.925781 -30.523438 10.289062 -28.800781 9.09375 -26.5625 C 7.894531 -24.332031 7.296875 -21.71875 7.296875 -18.71875 C 7.296875 -15.75 7.894531 -13.132812 9.09375 -10.875 C 10.289062 -8.625 11.929688 -6.890625 14.015625 -5.671875 C 16.109375 -4.460938 18.460938 -3.859375 21.078125 -3.859375 Z M 21.078125 -3.859375 "/></g></g></g><g fill="#ff577f" fill-opacity="0.502"><g transform="translate(62.007961, 76.839271)"><g><path d="M 21.078125 0.375 C 17.609375 0.375 14.441406 -0.4375 11.578125 -2.0625 C 8.722656 -3.6875 6.460938 -5.957031 4.796875 -8.875 C 3.140625 -11.789062 2.3125 -15.070312 2.3125 -18.71875 C 2.3125 -22.363281 3.140625 -25.640625 4.796875 -28.546875 C 6.460938 -31.460938 8.722656 -33.734375 11.578125 -35.359375 C 14.441406 -36.992188 17.609375 -37.8125 21.078125 -37.8125 C 24.578125 -37.8125 27.753906 -36.992188 30.609375 -35.359375 C 33.472656 -33.734375 35.726562 -31.472656 37.375 -28.578125 C 39.019531 -25.679688 39.84375 -22.394531 39.84375 -18.71875 C 39.84375 -15.03125 39.019531 -11.738281 37.375 -8.84375 C 35.726562 -5.945312 33.472656 -3.6875 30.609375 -2.0625 C 27.753906 -0.4375 24.578125 0.375 21.078125 0.375 Z M 21.078125 -3.859375 C 23.679688 -3.859375 26.03125 -4.460938 28.125 -5.671875 C 30.21875 -6.890625 31.863281 -8.625 33.0625 -10.875 C 34.257812 -13.132812 34.859375 -15.75 34.859375 -18.71875 C 34.859375 -21.71875 34.257812 -24.332031 33.0625 -26.5625 C 31.863281 -28.800781 30.226562 -30.523438 28.15625 -31.734375 C 26.082031 -32.953125 23.722656 -33.5625 21.078125 -33.5625 C 18.429688 -33.5625 16.070312 -32.953125 14 -31.734375 C 11.925781 -30.523438 10.289062 -28.800781 9.09375 -26.5625 C 7.894531 -24.332031 7.296875 -21.71875 7.296875 -18.71875 C 7.296875 -15.75 7.894531 -13.132812 9.09375 -10.875 C 10.289062 -8.625 11.929688 -6.890625 14.015625 -5.671875 C 16.109375 -4.460938 18.460938 -3.859375 21.078125 -3.859375 Z M 21.078125 -3.859375 "/></g></g></g><g fill="#ff577f" fill-opacity="0.502"><g transform="translate(105.166753, 76.839271)"><g><path d="M 21.078125 0.375 C 17.609375 0.375 14.441406 -0.4375 11.578125 -2.0625 C 8.722656 -3.6875 6.460938 -5.957031 4.796875 -8.875 C 3.140625 -11.789062 2.3125 -15.070312 2.3125 -18.71875 C 2.3125 -22.363281 3.140625 -25.640625 4.796875 -28.546875 C 6.460938 -31.460938 8.722656 -33.734375 11.578125 -35.359375 C 14.441406 -36.992188 17.609375 -37.8125 21.078125 -37.8125 C 24.578125 -37.8125 27.753906 -36.992188 30.609375 -35.359375 C 33.472656 -33.734375 35.726562 -31.472656 37.375 -28.578125 C 39.019531 -25.679688 39.84375 -22.394531 39.84375 -18.71875 C 39.84375 -15.03125 39.019531 -11.738281 37.375 -8.84375 C 35.726562 -5.945312 33.472656 -3.6875 30.609375 -2.0625 C 27.753906 -0.4375 24.578125 0.375 21.078125 0.375 Z M 21.078125 -3.859375 C 23.679688 -3.859375 26.03125 -4.460938 28.125 -5.671875 C 30.21875 -6.890625 31.863281 -8.625 33.0625 -10.875 C 34.257812 -13.132812 34.859375 -15.75 34.859375 -18.71875 C 34.859375 -21.71875 34.257812 -24.332031 33.0625 -26.5625 C 31.863281 -28.800781 30.226562 -30.523438 28.15625 -31.734375 C 26.082031 -32.953125 23.722656 -33.5625 21.078125 -33.5625 C 18.429688 -33.5625 16.070312 -32.953125 14 -31.734375 C 11.925781 -30.523438 10.289062 -28.800781 9.09375 -26.5625 C 7.894531 -24.332031 7.296875 -21.71875 7.296875 -18.71875 C 7.296875 -15.75 7.894531 -13.132812 9.09375 -10.875 C 10.289062 -8.625 11.929688 -6.890625 14.015625 -5.671875 C 16.109375 -4.460938 18.460938 -3.859375 21.078125 -3.859375 Z M 21.078125 -3.859375 "/></g></g></g><g fill="#ff577f" fill-opacity="0.502"><g transform="translate(148.325545, 76.839271)"><g><path d="M 21.078125 0.375 C 17.609375 0.375 14.441406 -0.4375 11.578125 -2.0625 C 8.722656 -3.6875 6.460938 -5.957031 4.796875 -8.875 C 3.140625 -11.789062 2.3125 -15.070312 2.3125 -18.71875 C 2.3125 -22.363281 3.140625 -25.640625 4.796875 -28.546875 C 6.460938 -31.460938 8.722656 -33.734375 11.578125 -35.359375 C 14.441406 -36.992188 17.609375 -37.8125 21.078125 -37.8125 C 24.578125 -37.8125 27.753906 -36.992188 30.609375 -35.359375 C 33.472656 -33.734375 35.726562 -31.472656 37.375 -28.578125 C 39.019531 -25.679688 39.84375 -22.394531 39.84375 -18.71875 C 39.84375 -15.03125 39.019531 -11.738281 37.375 -8.84375 C 35.726562 -5.945312 33.472656 -3.6875 30.609375 -2.0625 C 27.753906 -0.4375 24.578125 0.375 21.078125 0.375 Z M 21.078125 -3.859375 C 23.679688 -3.859375 26.03125 -4.460938 28.125 -5.671875 C 30.21875 -6.890625 31.863281 -8.625 33.0625 -10.875 C 34.257812 -13.132812 34.859375 -15.75 34.859375 -18.71875 C 34.859375 -21.71875 34.257812 -24.332031 33.0625 -26.5625 C 31.863281 -28.800781 30.226562 -30.523438 28.15625 -31.734375 C 26.082031 -32.953125 23.722656 -33.5625 21.078125 -33.5625 C 18.429688 -33.5625 16.070312 -32.953125 14 -31.734375 C 11.925781 -30.523438 10.289062 -28.800781 9.09375 -26.5625 C 7.894531 -24.332031 7.296875 -21.71875 7.296875 -18.71875 C 7.296875 -15.75 7.894531 -13.132812 9.09375 -10.875 C 10.289062 -8.625 11.929688 -6.890625 14.015625 -5.671875 C 16.109375 -4.460938 18.460938 -3.859375 21.078125 -3.859375 Z M 21.078125 -3.859375 "/></g></g></g><g fill="#ff577f" fill-opacity="1"><g transform="translate(59.638251, 74.469559)"><g><path d="M 21.078125 0.375 C 17.609375 0.375 14.441406 -0.4375 11.578125 -2.0625 C 8.722656 -3.6875 6.460938 -5.957031 4.796875 -8.875 C 3.140625 -11.789062 2.3125 -15.070312 2.3125 -18.71875 C 2.3125 -22.363281 3.140625 -25.640625 4.796875 -28.546875 C 6.460938 -31.460938 8.722656 -33.734375 11.578125 -35.359375 C 14.441406 -36.992188 17.609375 -37.8125 21.078125 -37.8125 C 24.578125 -37.8125 27.753906 -36.992188 30.609375 -35.359375 C 33.472656 -33.734375 35.726562 -31.472656 37.375 -28.578125 C 39.019531 -25.679688 39.84375 -22.394531 39.84375 -18.71875 C 39.84375 -15.03125 39.019531 -11.738281 37.375 -8.84375 C 35.726562 -5.945312 33.472656 -3.6875 30.609375 -2.0625 C 27.753906 -0.4375 24.578125 0.375 21.078125 0.375 Z M 21.078125 -3.859375 C 23.679688 -3.859375 26.03125 -4.460938 28.125 -5.671875 C 30.21875 -6.890625 31.863281 -8.625 33.0625 -10.875 C 34.257812 -13.132812 34.859375 -15.75 34.859375 -18.71875 C 34.859375 -21.71875 34.257812 -24.332031 33.0625 -26.5625 C 31.863281 -28.800781 30.226562 -30.523438 28.15625 -31.734375 C 26.082031 -32.953125 23.722656 -33.5625 21.078125 -33.5625 C 18.429688 -33.5625 16.070312 -32.953125 14 -31.734375 C 11.925781 -30.523438 10.289062 -28.800781 9.09375 -26.5625 C 7.894531 -24.332031 7.296875 -21.71875 7.296875 -18.71875 C 7.296875 -15.75 7.894531 -13.132812 9.09375 -10.875 C 10.289062 -8.625 11.929688 -6.890625 14.015625 -5.671875 C 16.109375 -4.460938 18.460938 -3.859375 21.078125 -3.859375 Z M 21.078125 -3.859375 "/></g></g></g><g fill="#ff577f" fill-opacity="1"><g transform="translate(102.797043, 74.469559)"><g><path d="M 21.078125 0.375 C 17.609375 0.375 14.441406 -0.4375 11.578125 -2.0625 C 8.722656 -3.6875 6.460938 -5.957031 4.796875 -8.875 C 3.140625 -11.789062 2.3125 -15.070312 2.3125 -18.71875 C 2.3125 -22.363281 3.140625 -25.640625 4.796875 -28.546875 C 6.460938 -31.460938 8.722656 -33.734375 11.578125 -35.359375 C 14.441406 -36.992188 17.609375 -37.8125 21.078125 -37.8125 C 24.578125 -37.8125 27.753906 -36.992188 30.609375 -35.359375 C 33.472656 -33.734375 35.726562 -31.472656 37.375 -28.578125 C 39.019531 -25.679688 39.84375 -22.394531 39.84375 -18.71875 C 39.84375 -15.03125 39.019531 -11.738281 37.375 -8.84375 C 35.726562 -5.945312 33.472656 -3.6875 30.609375 -2.0625 C 27.753906 -0.4375 24.578125 0.375 21.078125 0.375 Z M 21.078125 -3.859375 C 23.679688 -3.859375 26.03125 -4.460938 28.125 -5.671875 C 30.21875 -6.890625 31.863281 -8.625 33.0625 -10.875 C 34.257812 -13.132812 34.859375 -15.75 34.859375 -18.71875 C 34.859375 -21.71875 34.257812 -24.332031 33.0625 -26.5625 C 31.863281 -28.800781 30.226562 -30.523438 28.15625 -31.734375 C 26.082031 -32.953125 23.722656 -33.5625 21.078125 -33.5625 C 18.429688 -33.5625 16.070312 -32.953125 14 -31.734375 C 11.925781 -30.523438 10.289062 -28.800781 9.09375 -26.5625 C 7.894531 -24.332031 7.296875 -21.71875 7.296875 -18.71875 C 7.296875 -15.75 7.894531 -13.132812 9.09375 -10.875 C 10.289062 -8.625 11.929688 -6.890625 14.015625 -5.671875 C 16.109375 -4.460938 18.460938 -3.859375 21.078125 -3.859375 Z M 21.078125 -3.859375 "/></g></g></g><g fill="#ff577f" fill-opacity="1"><g transform="translate(145.955834, 74.469559)"><g><path d="M 21.078125 0.375 C 17.609375 0.375 14.441406 -0.4375 11.578125 -2.0625 C 8.722656 -3.6875 6.460938 -5.957031 4.796875 -8.875 C 3.140625 -11.789062 2.3125 -15.070312 2.3125 -18.71875 C 2.3125 -22.363281 3.140625 -25.640625 4.796875 -28.546875 C 6.460938 -31.460938 8.722656 -33.734375 11.578125 -35.359375 C 14.441406 -36.992188 17.609375 -37.8125 21.078125 -37.8125 C 24.578125 -37.8125 27.753906 -36.992188 30.609375 -35.359375 C 33.472656 -33.734375 35.726562 -31.472656 37.375 -28.578125 C 39.019531 -25.679688 39.84375 -22.394531 39.84375 -18.71875 C 39.84375 -15.03125 39.019531 -11.738281 37.375 -8.84375 C 35.726562 -5.945312 33.472656 -3.6875 30.609375 -2.0625 C 27.753906 -0.4375 24.578125 0.375 21.078125 0.375 Z M 21.078125 -3.859375 C 23.679688 -3.859375 26.03125 -4.460938 28.125 -5.671875 C 30.21875 -6.890625 31.863281 -8.625 33.0625 -10.875 C 34.257812 -13.132812 34.859375 -15.75 34.859375 -18.71875 C 34.859375 -21.71875 34.257812 -24.332031 33.0625 -26.5625 C 31.863281 -28.800781 30.226562 -30.523438 28.15625 -31.734375 C 26.082031 -32.953125 23.722656 -33.5625 21.078125 -33.5625 C 18.429688 -33.5625 16.070312 -32.953125 14 -31.734375 C 11.925781 -30.523438 10.289062 -28.800781 9.09375 -26.5625 C 7.894531 -24.332031 7.296875 -21.71875 7.296875 -18.71875 C 7.296875 -15.75 7.894531 -13.132812 9.09375 -10.875 C 10.289062 -8.625 11.929688 -6.890625 14.015625 -5.671875 C 16.109375 -4.460938 18.460938 -3.859375 21.078125 -3.859375 Z M 21.078125 -3.859375 "/></g></g></g><g fill="#ff577f" fill-opacity="0.302"><g transform="translate(86.154409, 94.480204)"><g><path d="M 19.890625 0.359375 C 16.617188 0.359375 13.632812 -0.40625 10.9375 -1.9375 C 8.238281 -3.476562 6.101562 -5.625 4.53125 -8.375 C 2.957031 -11.125 2.171875 -14.21875 2.171875 -17.65625 C 2.171875 -21.101562 2.957031 -24.203125 4.53125 -26.953125 C 6.101562 -29.703125 8.238281 -31.84375 10.9375 -33.375 C 13.632812 -34.90625 16.617188 -35.671875 19.890625 -35.671875 C 23.191406 -35.671875 26.191406 -34.90625 28.890625 -33.375 C 31.597656 -31.84375 33.726562 -29.707031 35.28125 -26.96875 C 36.832031 -24.238281 37.609375 -21.132812 37.609375 -17.65625 C 37.609375 -14.1875 36.832031 -11.082031 35.28125 -8.34375 C 33.726562 -5.613281 31.597656 -3.476562 28.890625 -1.9375 C 26.191406 -0.40625 23.191406 0.359375 19.890625 0.359375 Z M 19.890625 -3.640625 C 22.347656 -3.640625 24.5625 -4.210938 26.53125 -5.359375 C 28.507812 -6.503906 30.0625 -8.140625 31.1875 -10.265625 C 32.320312 -12.398438 32.890625 -14.863281 32.890625 -17.65625 C 32.890625 -20.488281 32.320312 -22.957031 31.1875 -25.0625 C 30.0625 -27.175781 28.519531 -28.804688 26.5625 -29.953125 C 24.613281 -31.109375 22.390625 -31.6875 19.890625 -31.6875 C 17.390625 -31.6875 15.160156 -31.109375 13.203125 -29.953125 C 11.253906 -28.804688 9.710938 -27.175781 8.578125 -25.0625 C 7.453125 -22.957031 6.890625 -20.488281 6.890625 -17.65625 C 6.890625 -14.863281 7.453125 -12.398438 8.578125 -10.265625 C 9.710938 -8.140625 11.265625 -6.503906 13.234375 -5.359375 C 15.203125 -4.210938 17.421875 -3.640625 19.890625 -3.640625 Z M 19.890625 -3.640625 "/></g></g></g><g fill="#ff577f" fill-opacity="0.302"><g transform="translate(130.178357, 94.480204)"><g><path d="M 19.890625 0.359375 C 16.617188 0.359375 13.632812 -0.40625 10.9375 -1.9375 C 8.238281 -3.476562 6.101562 -5.625 4.53125 -8.375 C 2.957031 -11.125 2.171875 -14.21875 2.171875 -17.65625 C 2.171875 -21.101562 2.957031 -24.203125 4.53125 -26.953125 C 6.101562 -29.703125 8.238281 -31.84375 10.9375 -33.375 C 13.632812 -34.90625 16.617188 -35.671875 19.890625 -35.671875 C 23.191406 -35.671875 26.191406 -34.90625 28.890625 -33.375 C 31.597656 -31.84375 33.726562 -29.707031 35.28125 -26.96875 C 36.832031 -24.238281 37.609375 -21.132812 37.609375 -17.65625 C 37.609375 -14.1875 36.832031 -11.082031 35.28125 -8.34375 C 33.726562 -5.613281 31.597656 -3.476562 28.890625 -1.9375 C 26.191406 -0.40625 23.191406 0.359375 19.890625 0.359375 Z M 19.890625 -3.640625 C 22.347656 -3.640625 24.5625 -4.210938 26.53125 -5.359375 C 28.507812 -6.503906 30.0625 -8.140625 31.1875 -10.265625 C 32.320312 -12.398438 32.890625 -14.863281 32.890625 -17.65625 C 32.890625 -20.488281 32.320312 -22.957031 31.1875 -25.0625 C 30.0625 -27.175781 28.519531 -28.804688 26.5625 -29.953125 C 24.613281 -31.109375 22.390625 -31.6875 19.890625 -31.6875 C 17.390625 -31.6875 15.160156 -31.109375 13.203125 -29.953125 C 11.253906 -28.804688 9.710938 -27.175781 8.578125 -25.0625 C 7.453125 -22.957031 6.890625 -20.488281 6.890625 -17.65625 C 6.890625 -14.863281 7.453125 -12.398438 8.578125 -10.265625 C 9.710938 -8.140625 11.265625 -6.503906 13.234375 -5.359375 C 15.203125 -4.210938 17.421875 -3.640625 19.890625 -3.640625 Z M 19.890625 -3.640625 "/></g></g></g><g fill="#ff577f" fill-opacity="0.502"><g transform="translate(83.917767, 92.243562)"><g><path d="M 19.890625 0.359375 C 16.617188 0.359375 13.632812 -0.40625 10.9375 -1.9375 C 8.238281 -3.476562 6.101562 -5.625 4.53125 -8.375 C 2.957031 -11.125 2.171875 -14.21875 2.171875 -17.65625 C 2.171875 -21.101562 2.957031 -24.203125 4.53125 -26.953125 C 6.101562 -29.703125 8.238281 -31.84375 10.9375 -33.375 C 13.632812 -34.90625 16.617188 -35.671875 19.890625 -35.671875 C 23.191406 -35.671875 26.191406 -34.90625 28.890625 -33.375 C 31.597656 -31.84375 33.726562 -29.707031 35.28125 -26.96875 C 36.832031 -24.238281 37.609375 -21.132812 37.609375 -17.65625 C 37.609375 -14.1875 36.832031 -11.082031 35.28125 -8.34375 C 33.726562 -5.613281 31.597656 -3.476562 28.890625 -1.9375 C 26.191406 -0.40625 23.191406 0.359375 19.890625 0.359375 Z M 19.890625 -3.640625 C 22.347656 -3.640625 24.5625 -4.210938 26.53125 -5.359375 C 28.507812 -6.503906 30.0625 -8.140625 31.1875 -10.265625 C 32.320312 -12.398438 32.890625 -14.863281 32.890625 -17.65625 C 32.890625 -20.488281 32.320312 -22.957031 31.1875 -25.0625 C 30.0625 -27.175781 28.519531 -28.804688 26.5625 -29.953125 C 24.613281 -31.109375 22.390625 -31.6875 19.890625 -31.6875 C 17.390625 -31.6875 15.160156 -31.109375 13.203125 -29.953125 C 11.253906 -28.804688 9.710938 -27.175781 8.578125 -25.0625 C 7.453125 -22.957031 6.890625 -20.488281 6.890625 -17.65625 C 6.890625 -14.863281 7.453125 -12.398438 8.578125 -10.265625 C 9.710938 -8.140625 11.265625 -6.503906 13.234375 -5.359375 C 15.203125 -4.210938 17.421875 -3.640625 19.890625 -3.640625 Z M 19.890625 -3.640625 "/></g></g></g><g fill="#ff577f" fill-opacity="0.502"><g transform="translate(127.941715, 92.243562)"><g><path d="M 19.890625 0.359375 C 16.617188 0.359375 13.632812 -0.40625 10.9375 -1.9375 C 8.238281 -3.476562 6.101562 -5.625 4.53125 -8.375 C 2.957031 -11.125 2.171875 -14.21875 2.171875 -17.65625 C 2.171875 -21.101562 2.957031 -24.203125 4.53125 -26.953125 C 6.101562 -29.703125 8.238281 -31.84375 10.9375 -33.375 C 13.632812 -34.90625 16.617188 -35.671875 19.890625 -35.671875 C 23.191406 -35.671875 26.191406 -34.90625 28.890625 -33.375 C 31.597656 -31.84375 33.726562 -29.707031 35.28125 -26.96875 C 36.832031 -24.238281 37.609375 -21.132812 37.609375 -17.65625 C 37.609375 -14.1875 36.832031 -11.082031 35.28125 -8.34375 C 33.726562 -5.613281 31.597656 -3.476562 28.890625 -1.9375 C 26.191406 -0.40625 23.191406 0.359375 19.890625 0.359375 Z M 19.890625 -3.640625 C 22.347656 -3.640625 24.5625 -4.210938 26.53125 -5.359375 C 28.507812 -6.503906 30.0625 -8.140625 31.1875 -10.265625 C 32.320312 -12.398438 32.890625 -14.863281 32.890625 -17.65625 C 32.890625 -20.488281 32.320312 -22.957031 31.1875 -25.0625 C 30.0625 -27.175781 28.519531 -28.804688 26.5625 -29.953125 C 24.613281 -31.109375 22.390625 -31.6875 19.890625 -31.6875 C 17.390625 -31.6875 15.160156 -31.109375 13.203125 -29.953125 C 11.253906 -28.804688 9.710938 -27.175781 8.578125 -25.0625 C 7.453125 -22.957031 6.890625 -20.488281 6.890625 -17.65625 C 6.890625 -14.863281 7.453125 -12.398438 8.578125 -10.265625 C 9.710938 -8.140625 11.265625 -6.503906 13.234375 -5.359375 C 15.203125 -4.210938 17.421875 -3.640625 19.890625 -3.640625 Z M 19.890625 -3.640625 "/></g></g></g><g fill="#ff577f" fill-opacity="1"><g transform="translate(81.681128, 90.006922)"><g><path d="M 19.890625 0.359375 C 16.617188 0.359375 13.632812 -0.40625 10.9375 -1.9375 C 8.238281 -3.476562 6.101562 -5.625 4.53125 -8.375 C 2.957031 -11.125 2.171875 -14.21875 2.171875 -17.65625 C 2.171875 -21.101562 2.957031 -24.203125 4.53125 -26.953125 C 6.101562 -29.703125 8.238281 -31.84375 10.9375 -33.375 C 13.632812 -34.90625 16.617188 -35.671875 19.890625 -35.671875 C 23.191406 -35.671875 26.191406 -34.90625 28.890625 -33.375 C 31.597656 -31.84375 33.726562 -29.707031 35.28125 -26.96875 C 36.832031 -24.238281 37.609375 -21.132812 37.609375 -17.65625 C 37.609375 -14.1875 36.832031 -11.082031 35.28125 -8.34375 C 33.726562 -5.613281 31.597656 -3.476562 28.890625 -1.9375 C 26.191406 -0.40625 23.191406 0.359375 19.890625 0.359375 Z M 19.890625 -3.640625 C 22.347656 -3.640625 24.5625 -4.210938 26.53125 -5.359375 C 28.507812 -6.503906 30.0625 -8.140625 31.1875 -10.265625 C 32.320312 -12.398438 32.890625 -14.863281 32.890625 -17.65625 C 32.890625 -20.488281 32.320312 -22.957031 31.1875 -25.0625 C 30.0625 -27.175781 28.519531 -28.804688 26.5625 -29.953125 C 24.613281 -31.109375 22.390625 -31.6875 19.890625 -31.6875 C 17.390625 -31.6875 15.160156 -31.109375 13.203125 -29.953125 C 11.253906 -28.804688 9.710938 -27.175781 8.578125 -25.0625 C 7.453125 -22.957031 6.890625 -20.488281 6.890625 -17.65625 C 6.890625 -14.863281 7.453125 -12.398438 8.578125 -10.265625 C 9.710938 -8.140625 11.265625 -6.503906 13.234375 -5.359375 C 15.203125 -4.210938 17.421875 -3.640625 19.890625 -3.640625 Z M 19.890625 -3.640625 "/></g></g></g><g fill="#ff577f" fill-opacity="1"><g transform="translate(125.705076, 90.006922)"><g><path d="M 19.890625 0.359375 C 16.617188 0.359375 13.632812 -0.40625 10.9375 -1.9375 C 8.238281 -3.476562 6.101562 -5.625 4.53125 -8.375 C 2.957031 -11.125 2.171875 -14.21875 2.171875 -17.65625 C 2.171875 -21.101562 2.957031 -24.203125 4.53125 -26.953125 C 6.101562 -29.703125 8.238281 -31.84375 10.9375 -33.375 C 13.632812 -34.90625 16.617188 -35.671875 19.890625 -35.671875 C 23.191406 -35.671875 26.191406 -34.90625 28.890625 -33.375 C 31.597656 -31.84375 33.726562 -29.707031 35.28125 -26.96875 C 36.832031 -24.238281 37.609375 -21.132812 37.609375 -17.65625 C 37.609375 -14.1875 36.832031 -11.082031 35.28125 -8.34375 C 33.726562 -5.613281 31.597656 -3.476562 28.890625 -1.9375 C 26.191406 -0.40625 23.191406 0.359375 19.890625 0.359375 Z M 19.890625 -3.640625 C 22.347656 -3.640625 24.5625 -4.210938 26.53125 -5.359375 C 28.507812 -6.503906 30.0625 -8.140625 31.1875 -10.265625 C 32.320312 -12.398438 32.890625 -14.863281 32.890625 -17.65625 C 32.890625 -20.488281 32.320312 -22.957031 31.1875 -25.0625 C 30.0625 -27.175781 28.519531 -28.804688 26.5625 -29.953125 C 24.613281 -31.109375 22.390625 -31.6875 19.890625 -31.6875 C 17.390625 -31.6875 15.160156 -31.109375 13.203125 -29.953125 C 11.253906 -28.804688 9.710938 -27.175781 8.578125 -25.0625 C 7.453125 -22.957031 6.890625 -20.488281 6.890625 -17.65625 C 6.890625 -14.863281 7.453125 -12.398438 8.578125 -10.265625 C 9.710938 -8.140625 11.265625 -6.503906 13.234375 -5.359375 C 15.203125 -4.210938 17.421875 -3.640625 19.890625 -3.640625 Z M 19.890625 -3.640625 "/></g></g></g><g fill="#ff577f" fill-opacity="0.302"><g transform="translate(55.519486, 112.773546)"><g><path d="M 2.53125 -6.140625 L 2.53125 -4.59375 L 5.015625 -4.59375 L 5.015625 -3.15625 L 2.53125 -3.15625 L 2.53125 -1.484375 L 5.34375 -1.484375 L 5.34375 0 L 0.671875 0 L 0.671875 -7.625 L 5.34375 -7.625 L 5.34375 -6.140625 Z M 2.53125 -6.140625 "/></g></g></g><g fill="#ff577f" fill-opacity="0.302"><g transform="translate(64.760129, 112.773546)"><g><path d="M 4.28125 0.078125 C 3.5625 0.078125 2.898438 -0.0859375 2.296875 -0.421875 C 1.703125 -0.753906 1.226562 -1.21875 0.875 -1.8125 C 0.53125 -2.414062 0.359375 -3.085938 0.359375 -3.828125 C 0.359375 -4.578125 0.53125 -5.25 0.875 -5.84375 C 1.226562 -6.4375 1.703125 -6.898438 2.296875 -7.234375 C 2.898438 -7.566406 3.5625 -7.734375 4.28125 -7.734375 C 5 -7.734375 5.65625 -7.566406 6.25 -7.234375 C 6.84375 -6.898438 7.3125 -6.4375 7.65625 -5.84375 C 8 -5.25 8.171875 -4.578125 8.171875 -3.828125 C 8.171875 -3.085938 8 -2.414062 7.65625 -1.8125 C 7.3125 -1.21875 6.84375 -0.753906 6.25 -0.421875 C 5.65625 -0.0859375 5 0.078125 4.28125 0.078125 Z M 4.28125 -1.625 C 4.882812 -1.625 5.367188 -1.820312 5.734375 -2.21875 C 6.097656 -2.625 6.28125 -3.160156 6.28125 -3.828125 C 6.28125 -4.503906 6.097656 -5.039062 5.734375 -5.4375 C 5.367188 -5.84375 4.882812 -6.046875 4.28125 -6.046875 C 3.664062 -6.046875 3.175781 -5.847656 2.8125 -5.453125 C 2.445312 -5.054688 2.265625 -4.515625 2.265625 -3.828125 C 2.265625 -3.160156 2.445312 -2.625 2.8125 -2.21875 C 3.175781 -1.820312 3.664062 -1.625 4.28125 -1.625 Z M 4.28125 -1.625 "/></g></g></g><g fill="#ff577f" fill-opacity="0.302"><g transform="translate(76.661125, 112.773546)"><g><path d="M 2.53125 -1.4375 L 4.96875 -1.4375 L 4.96875 0 L 0.671875 0 L 0.671875 -7.625 L 2.53125 -7.625 Z M 2.53125 -1.4375 "/></g></g></g><g fill="#ff577f" fill-opacity="0.302"><g transform="translate(85.206817, 112.773546)"><g><path d="M 2.53125 -7.625 L 2.53125 0 L 0.671875 0 L 0.671875 -7.625 Z M 1.59375 -8.3125 C 1.363281 -8.3125 1.171875 -8.382812 1.015625 -8.53125 C 0.867188 -8.6875 0.796875 -8.878906 0.796875 -9.109375 C 0.796875 -9.328125 0.867188 -9.515625 1.015625 -9.671875 C 1.171875 -9.828125 1.363281 -9.90625 1.59375 -9.90625 C 1.820312 -9.90625 2.007812 -9.828125 2.15625 -9.671875 C 2.3125 -9.523438 2.390625 -9.335938 2.390625 -9.109375 C 2.390625 -8.878906 2.3125 -8.6875 2.15625 -8.53125 C 2 -8.382812 1.8125 -8.3125 1.59375 -8.3125 Z M 1.59375 -8.3125 "/></g></g></g><g fill="#ff577f" fill-opacity="0.302"><g transform="translate(91.776243, 112.773546)"><g><path d="M 9.3125 -7.625 L 9.3125 0 L 7.453125 0 L 7.453125 -4.578125 L 5.75 0 L 4.25 0 L 2.53125 -4.578125 L 2.53125 0 L 0.671875 0 L 0.671875 -7.625 L 2.859375 -7.625 L 5 -2.34375 L 7.125 -7.625 Z M 9.3125 -7.625 "/></g></g></g><g fill="#ff577f" fill-opacity="0.302"><g transform="translate(105.110577, 112.773546)"><g><path d="M 6.484375 -5.171875 C 6.484375 -4.722656 6.378906 -4.316406 6.171875 -3.953125 C 5.972656 -3.585938 5.660156 -3.289062 5.234375 -3.0625 C 4.816406 -2.84375 4.300781 -2.734375 3.6875 -2.734375 L 2.53125 -2.734375 L 2.53125 0 L 0.671875 0 L 0.671875 -7.625 L 3.6875 -7.625 C 4.289062 -7.625 4.800781 -7.519531 5.21875 -7.3125 C 5.644531 -7.101562 5.960938 -6.8125 6.171875 -6.4375 C 6.378906 -6.070312 6.484375 -5.648438 6.484375 -5.171875 Z M 3.546875 -4.21875 C 3.898438 -4.21875 4.160156 -4.300781 4.328125 -4.46875 C 4.503906 -4.632812 4.59375 -4.867188 4.59375 -5.171875 C 4.59375 -5.472656 4.503906 -5.707031 4.328125 -5.875 C 4.160156 -6.039062 3.898438 -6.125 3.546875 -6.125 L 2.53125 -6.125 L 2.53125 -4.21875 Z M 3.546875 -4.21875 "/></g></g></g><g fill="#ff577f" fill-opacity="0.302"><g transform="translate(115.252477, 112.773546)"><g><path d="M 2.53125 -7.625 L 2.53125 0 L 0.671875 0 L 0.671875 -7.625 Z M 1.59375 -8.3125 C 1.363281 -8.3125 1.171875 -8.382812 1.015625 -8.53125 C 0.867188 -8.6875 0.796875 -8.878906 0.796875 -9.109375 C 0.796875 -9.328125 0.867188 -9.515625 1.015625 -9.671875 C 1.171875 -9.828125 1.363281 -9.90625 1.59375 -9.90625 C 1.820312 -9.90625 2.007812 -9.828125 2.15625 -9.671875 C 2.3125 -9.523438 2.390625 -9.335938 2.390625 -9.109375 C 2.390625 -8.878906 2.3125 -8.6875 2.15625 -8.53125 C 2 -8.382812 1.8125 -8.3125 1.59375 -8.3125 Z M 1.59375 -8.3125 "/></g></g></g><g fill="#ff577f" fill-opacity="0.302"><g transform="translate(121.821902, 112.773546)"><g><path d="M 7.203125 -7.625 L 4.578125 -2.515625 L 4.578125 0 L 2.71875 0 L 2.71875 -2.515625 L 0.078125 -7.625 L 2.1875 -7.625 L 3.65625 -4.4375 L 5.125 -7.625 Z M 7.203125 -7.625 "/></g></g></g><g fill="#ff577f" fill-opacity="0.302"><g transform="translate(132.474165, 112.773546)"><g><path d="M 5.421875 -1.34375 L 2.578125 -1.34375 L 2.125 0 L 0.171875 0 L 2.9375 -7.625 L 5.078125 -7.625 L 7.84375 0 L 5.875 0 Z M 4.9375 -2.78125 L 4 -5.578125 L 3.0625 -2.78125 Z M 4.9375 -2.78125 "/></g></g></g><g fill="#ff577f" fill-opacity="0.302"><g transform="translate(143.843083, 112.773546)"><g><path d="M 6.15625 -7.625 L 6.15625 -6.140625 L 4.140625 -6.140625 L 4.140625 0 L 2.28125 0 L 2.28125 -6.140625 L 0.265625 -6.140625 L 0.265625 -7.625 Z M 6.15625 -7.625 "/></g></g></g><g fill="#ff577f" fill-opacity="0.302"><g transform="translate(153.626658, 112.773546)"><g><path d="M 1.546875 0.09375 C 1.210938 0.09375 0.941406 0 0.734375 -0.1875 C 0.535156 -0.382812 0.4375 -0.625 0.4375 -0.90625 C 0.4375 -1.195312 0.535156 -1.441406 0.734375 -1.640625 C 0.941406 -1.835938 1.210938 -1.9375 1.546875 -1.9375 C 1.859375 -1.9375 2.117188 -1.835938 2.328125 -1.640625 C 2.535156 -1.441406 2.640625 -1.195312 2.640625 -0.90625 C 2.640625 -0.625 2.535156 -0.382812 2.328125 -0.1875 C 2.117188 0 1.859375 0.09375 1.546875 0.09375 Z M 1.546875 0.09375 "/></g></g></g><g fill="#ff577f" fill-opacity="0.302"><g transform="translate(160.054917, 112.773546)"><g><path d="M 0.359375 -3.828125 C 0.359375 -4.578125 0.519531 -5.242188 0.84375 -5.828125 C 1.164062 -6.421875 1.617188 -6.878906 2.203125 -7.203125 C 2.785156 -7.535156 3.445312 -7.703125 4.1875 -7.703125 C 5.09375 -7.703125 5.867188 -7.460938 6.515625 -6.984375 C 7.160156 -6.515625 7.59375 -5.863281 7.8125 -5.03125 L 5.765625 -5.03125 C 5.609375 -5.351562 5.390625 -5.597656 5.109375 -5.765625 C 4.835938 -5.929688 4.523438 -6.015625 4.171875 -6.015625 C 3.597656 -6.015625 3.132812 -5.816406 2.78125 -5.421875 C 2.425781 -5.023438 2.25 -4.492188 2.25 -3.828125 C 2.25 -3.160156 2.425781 -2.625 2.78125 -2.21875 C 3.132812 -1.820312 3.597656 -1.625 4.171875 -1.625 C 4.523438 -1.625 4.835938 -1.707031 5.109375 -1.875 C 5.390625 -2.039062 5.609375 -2.285156 5.765625 -2.609375 L 7.8125 -2.609375 C 7.59375 -1.785156 7.160156 -1.132812 6.515625 -0.65625 C 5.867188 -0.1875 5.09375 0.046875 4.1875 0.046875 C 3.445312 0.046875 2.785156 -0.113281 2.203125 -0.4375 C 1.617188 -0.769531 1.164062 -1.226562 0.84375 -1.8125 C 0.519531 -2.394531 0.359375 -3.066406 0.359375 -3.828125 Z M 0.359375 -3.828125 "/></g></g></g><g fill="#ff577f" fill-opacity="0.302"><g transform="translate(171.695294, 112.773546)"><g><path d="M 4.28125 0.078125 C 3.5625 0.078125 2.898438 -0.0859375 2.296875 -0.421875 C 1.703125 -0.753906 1.226562 -1.21875 0.875 -1.8125 C 0.53125 -2.414062 0.359375 -3.085938 0.359375 -3.828125 C 0.359375 -4.578125 0.53125 -5.25 0.875 -5.84375 C 1.226562 -6.4375 1.703125 -6.898438 2.296875 -7.234375 C 2.898438 -7.566406 3.5625 -7.734375 4.28125 -7.734375 C 5 -7.734375 5.65625 -7.566406 6.25 -7.234375 C 6.84375 -6.898438 7.3125 -6.4375 7.65625 -5.84375 C 8 -5.25 8.171875 -4.578125 8.171875 -3.828125 C 8.171875 -3.085938 8 -2.414062 7.65625 -1.8125 C 7.3125 -1.21875 6.84375 -0.753906 6.25 -0.421875 C 5.65625 -0.0859375 5 0.078125 4.28125 0.078125 Z M 4.28125 -1.625 C 4.882812 -1.625 5.367188 -1.820312 5.734375 -2.21875 C 6.097656 -2.625 6.28125 -3.160156 6.28125 -3.828125 C 6.28125 -4.503906 6.097656 -5.039062 5.734375 -5.4375 C 5.367188 -5.84375 4.882812 -6.046875 4.28125 -6.046875 C 3.664062 -6.046875 3.175781 -5.847656 2.8125 -5.453125 C 2.445312 -5.054688 2.265625 -4.515625 2.265625 -3.828125 C 2.265625 -3.160156 2.445312 -2.625 2.8125 -2.21875 C 3.175781 -1.820312 3.664062 -1.625 4.28125 -1.625 Z M 4.28125 -1.625 "/></g></g></g><g fill="#ff577f" fill-opacity="0.302"><g transform="translate(183.596291, 112.773546)"><g><path d="M 9.3125 -7.625 L 9.3125 0 L 7.453125 0 L 7.453125 -4.578125 L 5.75 0 L 4.25 0 L 2.53125 -4.578125 L 2.53125 0 L 0.671875 0 L 0.671875 -7.625 L 2.859375 -7.625 L 5 -2.34375 L 7.125 -7.625 Z M 9.3125 -7.625 "/></g></g></g><g fill="#ff577f" fill-opacity="0.502"><g transform="translate(55.039603, 112.293663)"><g><path d="M 2.53125 -6.140625 L 2.53125 -4.59375 L 5.015625 -4.59375 L 5.015625 -3.15625 L 2.53125 -3.15625 L 2.53125 -1.484375 L 5.34375 -1.484375 L 5.34375 0 L 0.671875 0 L 0.671875 -7.625 L 5.34375 -7.625 L 5.34375 -6.140625 Z M 2.53125 -6.140625 "/></g></g></g><g fill="#ff577f" fill-opacity="0.502"><g transform="translate(64.280247, 112.293663)"><g><path d="M 4.28125 0.078125 C 3.5625 0.078125 2.898438 -0.0859375 2.296875 -0.421875 C 1.703125 -0.753906 1.226562 -1.21875 0.875 -1.8125 C 0.53125 -2.414062 0.359375 -3.085938 0.359375 -3.828125 C 0.359375 -4.578125 0.53125 -5.25 0.875 -5.84375 C 1.226562 -6.4375 1.703125 -6.898438 2.296875 -7.234375 C 2.898438 -7.566406 3.5625 -7.734375 4.28125 -7.734375 C 5 -7.734375 5.65625 -7.566406 6.25 -7.234375 C 6.84375 -6.898438 7.3125 -6.4375 7.65625 -5.84375 C 8 -5.25 8.171875 -4.578125 8.171875 -3.828125 C 8.171875 -3.085938 8 -2.414062 7.65625 -1.8125 C 7.3125 -1.21875 6.84375 -0.753906 6.25 -0.421875 C 5.65625 -0.0859375 5 0.078125 4.28125 0.078125 Z M 4.28125 -1.625 C 4.882812 -1.625 5.367188 -1.820312 5.734375 -2.21875 C 6.097656 -2.625 6.28125 -3.160156 6.28125 -3.828125 C 6.28125 -4.503906 6.097656 -5.039062 5.734375 -5.4375 C 5.367188 -5.84375 4.882812 -6.046875 4.28125 -6.046875 C 3.664062 -6.046875 3.175781 -5.847656 2.8125 -5.453125 C 2.445312 -5.054688 2.265625 -4.515625 2.265625 -3.828125 C 2.265625 -3.160156 2.445312 -2.625 2.8125 -2.21875 C 3.175781 -1.820312 3.664062 -1.625 4.28125 -1.625 Z M 4.28125 -1.625 "/></g></g></g><g fill="#ff577f" fill-opacity="0.502"><g transform="translate(76.181242, 112.293663)"><g><path d="M 2.53125 -1.4375 L 4.96875 -1.4375 L 4.96875 0 L 0.671875 0 L 0.671875 -7.625 L 2.53125 -7.625 Z M 2.53125 -1.4375 "/></g></g></g><g fill="#ff577f" fill-opacity="0.502"><g transform="translate(84.726935, 112.293663)"><g><path d="M 2.53125 -7.625 L 2.53125 0 L 0.671875 0 L 0.671875 -7.625 Z M 1.59375 -8.3125 C 1.363281 -8.3125 1.171875 -8.382812 1.015625 -8.53125 C 0.867188 -8.6875 0.796875 -8.878906 0.796875 -9.109375 C 0.796875 -9.328125 0.867188 -9.515625 1.015625 -9.671875 C 1.171875 -9.828125 1.363281 -9.90625 1.59375 -9.90625 C 1.820312 -9.90625 2.007812 -9.828125 2.15625 -9.671875 C 2.3125 -9.523438 2.390625 -9.335938 2.390625 -9.109375 C 2.390625 -8.878906 2.3125 -8.6875 2.15625 -8.53125 C 2 -8.382812 1.8125 -8.3125 1.59375 -8.3125 Z M 1.59375 -8.3125 "/></g></g></g><g fill="#ff577f" fill-opacity="0.502"><g transform="translate(91.29636, 112.293663)"><g><path d="M 9.3125 -7.625 L 9.3125 0 L 7.453125 0 L 7.453125 -4.578125 L 5.75 0 L 4.25 0 L 2.53125 -4.578125 L 2.53125 0 L 0.671875 0 L 0.671875 -7.625 L 2.859375 -7.625 L 5 -2.34375 L 7.125 -7.625 Z M 9.3125 -7.625 "/></g></g></g><g fill="#ff577f" fill-opacity="0.502"><g transform="translate(104.630695, 112.293663)"><g><path d="M 6.484375 -5.171875 C 6.484375 -4.722656 6.378906 -4.316406 6.171875 -3.953125 C 5.972656 -3.585938 5.660156 -3.289062 5.234375 -3.0625 C 4.816406 -2.84375 4.300781 -2.734375 3.6875 -2.734375 L 2.53125 -2.734375 L 2.53125 0 L 0.671875 0 L 0.671875 -7.625 L 3.6875 -7.625 C 4.289062 -7.625 4.800781 -7.519531 5.21875 -7.3125 C 5.644531 -7.101562 5.960938 -6.8125 6.171875 -6.4375 C 6.378906 -6.070312 6.484375 -5.648438 6.484375 -5.171875 Z M 3.546875 -4.21875 C 3.898438 -4.21875 4.160156 -4.300781 4.328125 -4.46875 C 4.503906 -4.632812 4.59375 -4.867188 4.59375 -5.171875 C 4.59375 -5.472656 4.503906 -5.707031 4.328125 -5.875 C 4.160156 -6.039062 3.898438 -6.125 3.546875 -6.125 L 2.53125 -6.125 L 2.53125 -4.21875 Z M 3.546875 -4.21875 "/></g></g></g><g fill="#ff577f" fill-opacity="0.502"><g transform="translate(114.772594, 112.293663)"><g><path d="M 2.53125 -7.625 L 2.53125 0 L 0.671875 0 L 0.671875 -7.625 Z M 1.59375 -8.3125 C 1.363281 -8.3125 1.171875 -8.382812 1.015625 -8.53125 C 0.867188 -8.6875 0.796875 -8.878906 0.796875 -9.109375 C 0.796875 -9.328125 0.867188 -9.515625 1.015625 -9.671875 C 1.171875 -9.828125 1.363281 -9.90625 1.59375 -9.90625 C 1.820312 -9.90625 2.007812 -9.828125 2.15625 -9.671875 C 2.3125 -9.523438 2.390625 -9.335938 2.390625 -9.109375 C 2.390625 -8.878906 2.3125 -8.6875 2.15625 -8.53125 C 2 -8.382812 1.8125 -8.3125 1.59375 -8.3125 Z M 1.59375 -8.3125 "/></g></g></g><g fill="#ff577f" fill-opacity="0.502"><g transform="translate(121.342019, 112.293663)"><g><path d="M 7.203125 -7.625 L 4.578125 -2.515625 L 4.578125 0 L 2.71875 0 L 2.71875 -2.515625 L 0.078125 -7.625 L 2.1875 -7.625 L 3.65625 -4.4375 L 5.125 -7.625 Z M 7.203125 -7.625 "/></g></g></g><g fill="#ff577f" fill-opacity="0.502"><g transform="translate(131.994282, 112.293663)"><g><path d="M 5.421875 -1.34375 L 2.578125 -1.34375 L 2.125 0 L 0.171875 0 L 2.9375 -7.625 L 5.078125 -7.625 L 7.84375 0 L 5.875 0 Z M 4.9375 -2.78125 L 4 -5.578125 L 3.0625 -2.78125 Z M 4.9375 -2.78125 "/></g></g></g><g fill="#ff577f" fill-opacity="0.502"><g transform="translate(143.3632, 112.293663)"><g><path d="M 6.15625 -7.625 L 6.15625 -6.140625 L 4.140625 -6.140625 L 4.140625 0 L 2.28125 0 L 2.28125 -6.140625 L 0.265625 -6.140625 L 0.265625 -7.625 Z M 6.15625 -7.625 "/></g></g></g><g fill="#ff577f" fill-opacity="0.502"><g transform="translate(153.146776, 112.293663)"><g><path d="M 1.546875 0.09375 C 1.210938 0.09375 0.941406 0 0.734375 -0.1875 C 0.535156 -0.382812 0.4375 -0.625 0.4375 -0.90625 C 0.4375 -1.195312 0.535156 -1.441406 0.734375 -1.640625 C 0.941406 -1.835938 1.210938 -1.9375 1.546875 -1.9375 C 1.859375 -1.9375 2.117188 -1.835938 2.328125 -1.640625 C 2.535156 -1.441406 2.640625 -1.195312 2.640625 -0.90625 C 2.640625 -0.625 2.535156 -0.382812 2.328125 -0.1875 C 2.117188 0 1.859375 0.09375 1.546875 0.09375 Z M 1.546875 0.09375 "/></g></g></g><g fill="#ff577f" fill-opacity="0.502"><g transform="translate(159.575035, 112.293663)"><g><path d="M 0.359375 -3.828125 C 0.359375 -4.578125 0.519531 -5.242188 0.84375 -5.828125 C 1.164062 -6.421875 1.617188 -6.878906 2.203125 -7.203125 C 2.785156 -7.535156 3.445312 -7.703125 4.1875 -7.703125 C 5.09375 -7.703125 5.867188 -7.460938 6.515625 -6.984375 C 7.160156 -6.515625 7.59375 -5.863281 7.8125 -5.03125 L 5.765625 -5.03125 C 5.609375 -5.351562 5.390625 -5.597656 5.109375 -5.765625 C 4.835938 -5.929688 4.523438 -6.015625 4.171875 -6.015625 C 3.597656 -6.015625 3.132812 -5.816406 2.78125 -5.421875 C 2.425781 -5.023438 2.25 -4.492188 2.25 -3.828125 C 2.25 -3.160156 2.425781 -2.625 2.78125 -2.21875 C 3.132812 -1.820312 3.597656 -1.625 4.171875 -1.625 C 4.523438 -1.625 4.835938 -1.707031 5.109375 -1.875 C 5.390625 -2.039062 5.609375 -2.285156 5.765625 -2.609375 L 7.8125 -2.609375 C 7.59375 -1.785156 7.160156 -1.132812 6.515625 -0.65625 C 5.867188 -0.1875 5.09375 0.046875 4.1875 0.046875 C 3.445312 0.046875 2.785156 -0.113281 2.203125 -0.4375 C 1.617188 -0.769531 1.164062 -1.226562 0.84375 -1.8125 C 0.519531 -2.394531 0.359375 -3.066406 0.359375 -3.828125 Z M 0.359375 -3.828125 "/></g></g></g><g fill="#ff577f" fill-opacity="0.502"><g transform="translate(171.215412, 112.293663)"><g><path d="M 4.28125 0.078125 C 3.5625 0.078125 2.898438 -0.0859375 2.296875 -0.421875 C 1.703125 -0.753906 1.226562 -1.21875 0.875 -1.8125 C 0.53125 -2.414062 0.359375 -3.085938 0.359375 -3.828125 C 0.359375 -4.578125 0.53125 -5.25 0.875 -5.84375 C 1.226562 -6.4375 1.703125 -6.898438 2.296875 -7.234375 C 2.898438 -7.566406 3.5625 -7.734375 4.28125 -7.734375 C 5 -7.734375 5.65625 -7.566406 6.25 -7.234375 C 6.84375 -6.898438 7.3125 -6.4375 7.65625 -5.84375 C 8 -5.25 8.171875 -4.578125 8.171875 -3.828125 C 8.171875 -3.085938 8 -2.414062 7.65625 -1.8125 C 7.3125 -1.21875 6.84375 -0.753906 6.25 -0.421875 C 5.65625 -0.0859375 5 0.078125 4.28125 0.078125 Z M 4.28125 -1.625 C 4.882812 -1.625 5.367188 -1.820312 5.734375 -2.21875 C 6.097656 -2.625 6.28125 -3.160156 6.28125 -3.828125 C 6.28125 -4.503906 6.097656 -5.039062 5.734375 -5.4375 C 5.367188 -5.84375 4.882812 -6.046875 4.28125 -6.046875 C 3.664062 -6.046875 3.175781 -5.847656 2.8125 -5.453125 C 2.445312 -5.054688 2.265625 -4.515625 2.265625 -3.828125 C 2.265625 -3.160156 2.445312 -2.625 2.8125 -2.21875 C 3.175781 -1.820312 3.664062 -1.625 4.28125 -1.625 Z M 4.28125 -1.625 "/></g></g></g><g fill="#ff577f" fill-opacity="0.502"><g transform="translate(183.116408, 112.293663)"><g><path d="M 9.3125 -7.625 L 9.3125 0 L 7.453125 0 L 7.453125 -4.578125 L 5.75 0 L 4.25 0 L 2.53125 -4.578125 L 2.53125 0 L 0.671875 0 L 0.671875 -7.625 L 2.859375 -7.625 L 5 -2.34375 L 7.125 -7.625 Z M 9.3125 -7.625 "/></g></g></g><g fill="#ff577f" fill-opacity="1"><g transform="translate(54.55972, 111.813781)"><g><path d="M 2.53125 -6.140625 L 2.53125 -4.59375 L 5.015625 -4.59375 L 5.015625 -3.15625 L 2.53125 -3.15625 L 2.53125 -1.484375 L 5.34375 -1.484375 L 5.34375 0 L 0.671875 0 L 0.671875 -7.625 L 5.34375 -7.625 L 5.34375 -6.140625 Z M 2.53125 -6.140625 "/></g></g></g><g fill="#ff577f" fill-opacity="1"><g transform="translate(63.800364, 111.813781)"><g><path d="M 4.28125 0.078125 C 3.5625 0.078125 2.898438 -0.0859375 2.296875 -0.421875 C 1.703125 -0.753906 1.226562 -1.21875 0.875 -1.8125 C 0.53125 -2.414062 0.359375 -3.085938 0.359375 -3.828125 C 0.359375 -4.578125 0.53125 -5.25 0.875 -5.84375 C 1.226562 -6.4375 1.703125 -6.898438 2.296875 -7.234375 C 2.898438 -7.566406 3.5625 -7.734375 4.28125 -7.734375 C 5 -7.734375 5.65625 -7.566406 6.25 -7.234375 C 6.84375 -6.898438 7.3125 -6.4375 7.65625 -5.84375 C 8 -5.25 8.171875 -4.578125 8.171875 -3.828125 C 8.171875 -3.085938 8 -2.414062 7.65625 -1.8125 C 7.3125 -1.21875 6.84375 -0.753906 6.25 -0.421875 C 5.65625 -0.0859375 5 0.078125 4.28125 0.078125 Z M 4.28125 -1.625 C 4.882812 -1.625 5.367188 -1.820312 5.734375 -2.21875 C 6.097656 -2.625 6.28125 -3.160156 6.28125 -3.828125 C 6.28125 -4.503906 6.097656 -5.039062 5.734375 -5.4375 C 5.367188 -5.84375 4.882812 -6.046875 4.28125 -6.046875 C 3.664062 -6.046875 3.175781 -5.847656 2.8125 -5.453125 C 2.445312 -5.054688 2.265625 -4.515625 2.265625 -3.828125 C 2.265625 -3.160156 2.445312 -2.625 2.8125 -2.21875 C 3.175781 -1.820312 3.664062 -1.625 4.28125 -1.625 Z M 4.28125 -1.625 "/></g></g></g><g fill="#ff577f" fill-opacity="1"><g transform="translate(75.701359, 111.813781)"><g><path d="M 2.53125 -1.4375 L 4.96875 -1.4375 L 4.96875 0 L 0.671875 0 L 0.671875 -7.625 L 2.53125 -7.625 Z M 2.53125 -1.4375 "/></g></g></g><g fill="#ff577f" fill-opacity="1"><g transform="translate(84.247052, 111.813781)"><g><path d="M 2.53125 -7.625 L 2.53125 0 L 0.671875 0 L 0.671875 -7.625 Z M 1.59375 -8.3125 C 1.363281 -8.3125 1.171875 -8.382812 1.015625 -8.53125 C 0.867188 -8.6875 0.796875 -8.878906 0.796875 -9.109375 C 0.796875 -9.328125 0.867188 -9.515625 1.015625 -9.671875 C 1.171875 -9.828125 1.363281 -9.90625 1.59375 -9.90625 C 1.820312 -9.90625 2.007812 -9.828125 2.15625 -9.671875 C 2.3125 -9.523438 2.390625 -9.335938 2.390625 -9.109375 C 2.390625 -8.878906 2.3125 -8.6875 2.15625 -8.53125 C 2 -8.382812 1.8125 -8.3125 1.59375 -8.3125 Z M 1.59375 -8.3125 "/></g></g></g><g fill="#ff577f" fill-opacity="1"><g transform="translate(90.816477, 111.813781)"><g><path d="M 9.3125 -7.625 L 9.3125 0 L 7.453125 0 L 7.453125 -4.578125 L 5.75 0 L 4.25 0 L 2.53125 -4.578125 L 2.53125 0 L 0.671875 0 L 0.671875 -7.625 L 2.859375 -7.625 L 5 -2.34375 L 7.125 -7.625 Z M 9.3125 -7.625 "/></g></g></g><g fill="#ff577f" fill-opacity="1"><g transform="translate(104.150811, 111.813781)"><g><path d="M 6.484375 -5.171875 C 6.484375 -4.722656 6.378906 -4.316406 6.171875 -3.953125 C 5.972656 -3.585938 5.660156 -3.289062 5.234375 -3.0625 C 4.816406 -2.84375 4.300781 -2.734375 3.6875 -2.734375 L 2.53125 -2.734375 L 2.53125 0 L 0.671875 0 L 0.671875 -7.625 L 3.6875 -7.625 C 4.289062 -7.625 4.800781 -7.519531 5.21875 -7.3125 C 5.644531 -7.101562 5.960938 -6.8125 6.171875 -6.4375 C 6.378906 -6.070312 6.484375 -5.648438 6.484375 -5.171875 Z M 3.546875 -4.21875 C 3.898438 -4.21875 4.160156 -4.300781 4.328125 -4.46875 C 4.503906 -4.632812 4.59375 -4.867188 4.59375 -5.171875 C 4.59375 -5.472656 4.503906 -5.707031 4.328125 -5.875 C 4.160156 -6.039062 3.898438 -6.125 3.546875 -6.125 L 2.53125 -6.125 L 2.53125 -4.21875 Z M 3.546875 -4.21875 "/></g></g></g><g fill="#ff577f" fill-opacity="1"><g transform="translate(114.292711, 111.813781)"><g><path d="M 2.53125 -7.625 L 2.53125 0 L 0.671875 0 L 0.671875 -7.625 Z M 1.59375 -8.3125 C 1.363281 -8.3125 1.171875 -8.382812 1.015625 -8.53125 C 0.867188 -8.6875 0.796875 -8.878906 0.796875 -9.109375 C 0.796875 -9.328125 0.867188 -9.515625 1.015625 -9.671875 C 1.171875 -9.828125 1.363281 -9.90625 1.59375 -9.90625 C 1.820312 -9.90625 2.007812 -9.828125 2.15625 -9.671875 C 2.3125 -9.523438 2.390625 -9.335938 2.390625 -9.109375 C 2.390625 -8.878906 2.3125 -8.6875 2.15625 -8.53125 C 2 -8.382812 1.8125 -8.3125 1.59375 -8.3125 Z M 1.59375 -8.3125 "/></g></g></g><g fill="#ff577f" fill-opacity="1"><g transform="translate(120.862136, 111.813781)"><g><path d="M 7.203125 -7.625 L 4.578125 -2.515625 L 4.578125 0 L 2.71875 0 L 2.71875 -2.515625 L 0.078125 -7.625 L 2.1875 -7.625 L 3.65625 -4.4375 L 5.125 -7.625 Z M 7.203125 -7.625 "/></g></g></g><g fill="#ff577f" fill-opacity="1"><g transform="translate(131.514399, 111.813781)"><g><path d="M 5.421875 -1.34375 L 2.578125 -1.34375 L 2.125 0 L 0.171875 0 L 2.9375 -7.625 L 5.078125 -7.625 L 7.84375 0 L 5.875 0 Z M 4.9375 -2.78125 L 4 -5.578125 L 3.0625 -2.78125 Z M 4.9375 -2.78125 "/></g></g></g><g fill="#ff577f" fill-opacity="1"><g transform="translate(142.883317, 111.813781)"><g><path d="M 6.15625 -7.625 L 6.15625 -6.140625 L 4.140625 -6.140625 L 4.140625 0 L 2.28125 0 L 2.28125 -6.140625 L 0.265625 -6.140625 L 0.265625 -7.625 Z M 6.15625 -7.625 "/></g></g></g><g fill="#ff577f" fill-opacity="1"><g transform="translate(152.666893, 111.813781)"><g><path d="M 1.546875 0.09375 C 1.210938 0.09375 0.941406 0 0.734375 -0.1875 C 0.535156 -0.382812 0.4375 -0.625 0.4375 -0.90625 C 0.4375 -1.195312 0.535156 -1.441406 0.734375 -1.640625 C 0.941406 -1.835938 1.210938 -1.9375 1.546875 -1.9375 C 1.859375 -1.9375 2.117188 -1.835938 2.328125 -1.640625 C 2.535156 -1.441406 2.640625 -1.195312 2.640625 -0.90625 C 2.640625 -0.625 2.535156 -0.382812 2.328125 -0.1875 C 2.117188 0 1.859375 0.09375 1.546875 0.09375 Z M 1.546875 0.09375 "/></g></g></g><g fill="#ff577f" fill-opacity="1"><g transform="translate(159.095152, 111.813781)"><g><path d="M 0.359375 -3.828125 C 0.359375 -4.578125 0.519531 -5.242188 0.84375 -5.828125 C 1.164062 -6.421875 1.617188 -6.878906 2.203125 -7.203125 C 2.785156 -7.535156 3.445312 -7.703125 4.1875 -7.703125 C 5.09375 -7.703125 5.867188 -7.460938 6.515625 -6.984375 C 7.160156 -6.515625 7.59375 -5.863281 7.8125 -5.03125 L 5.765625 -5.03125 C 5.609375 -5.351562 5.390625 -5.597656 5.109375 -5.765625 C 4.835938 -5.929688 4.523438 -6.015625 4.171875 -6.015625 C 3.597656 -6.015625 3.132812 -5.816406 2.78125 -5.421875 C 2.425781 -5.023438 2.25 -4.492188 2.25 -3.828125 C 2.25 -3.160156 2.425781 -2.625 2.78125 -2.21875 C 3.132812 -1.820312 3.597656 -1.625 4.171875 -1.625 C 4.523438 -1.625 4.835938 -1.707031 5.109375 -1.875 C 5.390625 -2.039062 5.609375 -2.285156 5.765625 -2.609375 L 7.8125 -2.609375 C 7.59375 -1.785156 7.160156 -1.132812 6.515625 -0.65625 C 5.867188 -0.1875 5.09375 0.046875 4.1875 0.046875 C 3.445312 0.046875 2.785156 -0.113281 2.203125 -0.4375 C 1.617188 -0.769531 1.164062 -1.226562 0.84375 -1.8125 C 0.519531 -2.394531 0.359375 -3.066406 0.359375 -3.828125 Z M 0.359375 -3.828125 "/></g></g></g><g fill="#ff577f" fill-opacity="1"><g transform="translate(170.735529, 111.813781)"><g><path d="M 4.28125 0.078125 C 3.5625 0.078125 2.898438 -0.0859375 2.296875 -0.421875 C 1.703125 -0.753906 1.226562 -1.21875 0.875 -1.8125 C 0.53125 -2.414062 0.359375 -3.085938 0.359375 -3.828125 C 0.359375 -4.578125 0.53125 -5.25 0.875 -5.84375 C 1.226562 -6.4375 1.703125 -6.898438 2.296875 -7.234375 C 2.898438 -7.566406 3.5625 -7.734375 4.28125 -7.734375 C 5 -7.734375 5.65625 -7.566406 6.25 -7.234375 C 6.84375 -6.898438 7.3125 -6.4375 7.65625 -5.84375 C 8 -5.25 8.171875 -4.578125 8.171875 -3.828125 C 8.171875 -3.085938 8 -2.414062 7.65625 -1.8125 C 7.3125 -1.21875 6.84375 -0.753906 6.25 -0.421875 C 5.65625 -0.0859375 5 0.078125 4.28125 0.078125 Z M 4.28125 -1.625 C 4.882812 -1.625 5.367188 -1.820312 5.734375 -2.21875 C 6.097656 -2.625 6.28125 -3.160156 6.28125 -3.828125 C 6.28125 -4.503906 6.097656 -5.039062 5.734375 -5.4375 C 5.367188 -5.84375 4.882812 -6.046875 4.28125 -6.046875 C 3.664062 -6.046875 3.175781 -5.847656 2.8125 -5.453125 C 2.445312 -5.054688 2.265625 -4.515625 2.265625 -3.828125 C 2.265625 -3.160156 2.445312 -2.625 2.8125 -2.21875 C 3.175781 -1.820312 3.664062 -1.625 4.28125 -1.625 Z M 4.28125 -1.625 "/></g></g></g><g fill="#ff577f" fill-opacity="1"><g transform="translate(182.636525, 111.813781)"><g><path d="M 9.3125 -7.625 L 9.3125 0 L 7.453125 0 L 7.453125 -4.578125 L 5.75 0 L 4.25 0 L 2.53125 -4.578125 L 2.53125 0 L 0.671875 0 L 0.671875 -7.625 L 2.859375 -7.625 L 5 -2.34375 L 7.125 -7.625 Z M 9.3125 -7.625 "/></g></g></g></svg>