<svg width="431" height="47" viewBox="0 0 431 47" fill="none" xmlns="http://www.w3.org/2000/svg">
<path d="M9.848 19.248H31.416V27.312H9.848V19.248ZM10.616 37.68H35V46H0.312V1.2H34.168V9.52H10.616V37.68ZM40.0155 31.984V23.984H58.1275V31.984H40.0155ZM88.6345 46.768C85.0932 46.768 81.8078 46.192 78.7785 45.04C75.7918 43.888 73.1892 42.2667 70.9705 40.176C68.7945 38.0853 67.0878 35.632 65.8505 32.816C64.6558 30 64.0585 26.928 64.0585 23.6C64.0585 20.272 64.6558 17.2 65.8505 14.384C67.0878 11.568 68.8158 9.11467 71.0345 7.024C73.2532 4.93333 75.8558 3.312 78.8425 2.16C81.8292 1.008 85.0718 0.431999 88.5705 0.431999C92.1118 0.431999 95.3545 1.008 98.2985 2.16C101.285 3.312 103.867 4.93333 106.043 7.024C108.261 9.11467 109.989 11.568 111.227 14.384C112.464 17.1573 113.083 20.2293 113.083 23.6C113.083 26.928 112.464 30.0213 111.227 32.88C109.989 35.696 108.261 38.1493 106.043 40.24C103.867 42.288 101.285 43.888 98.2985 45.04C95.3545 46.192 92.1332 46.768 88.6345 46.768ZM88.5705 37.936C90.5758 37.936 92.4105 37.5947 94.0745 36.912C95.7812 36.2293 97.2745 35.248 98.5545 33.968C99.8345 32.688 100.816 31.1733 101.499 29.424C102.224 27.6747 102.587 25.7333 102.587 23.6C102.587 21.4667 102.224 19.5253 101.499 17.776C100.816 16.0267 99.8345 14.512 98.5545 13.232C97.3172 11.952 95.8452 10.9707 94.1385 10.288C92.4318 9.60533 90.5758 9.264 88.5705 9.264C86.5652 9.264 84.7092 9.60533 83.0025 10.288C81.3385 10.9707 79.8665 11.952 78.5865 13.232C77.3065 14.512 76.3038 16.0267 75.5785 17.776C74.8958 19.5253 74.5545 21.4667 74.5545 23.6C74.5545 25.6907 74.8958 27.632 75.5785 29.424C76.3038 31.1733 77.2852 32.688 78.5225 33.968C79.8025 35.248 81.2958 36.2293 83.0025 36.912C84.7092 37.5947 86.5652 37.936 88.5705 37.936ZM120.875 46V1.2H131.243V37.552H153.707V46H120.875ZM159.5 46V1.2H169.868V46H159.5ZM180.5 46V1.2H189.076L208.148 32.816H203.604L222.356 1.2H230.868L230.996 46H221.268L221.204 16.112H222.996L208.02 41.264H203.348L188.052 16.112H190.228V46H180.5ZM241.625 46V1.2H261.017C265.027 1.2 268.483 1.86133 271.385 3.184C274.286 4.464 276.526 6.32 278.105 8.752C279.683 11.184 280.473 14.0853 280.473 17.456C280.473 20.784 279.683 23.664 278.105 26.096C276.526 28.528 274.286 30.4053 271.385 31.728C268.483 33.008 265.027 33.648 261.017 33.648H247.385L251.993 28.976V46H241.625ZM251.993 30.128L247.385 25.2H260.441C263.641 25.2 266.03 24.5173 267.609 23.152C269.187 21.7867 269.977 19.888 269.977 17.456C269.977 14.9813 269.187 13.0613 267.609 11.696C266.03 10.3307 263.641 9.648 260.441 9.648H247.385L251.993 4.72V30.128ZM287.875 46V1.2H298.243V46H287.875ZM320.01 46V27.696L322.378 33.968L302.666 1.2H313.675L328.779 26.352H322.443L337.611 1.2H347.787L328.075 33.968L330.379 27.696V46H320.01ZM343.486 46L363.455 1.2H373.695L393.727 46H382.847L366.463 6.448H370.559L354.111 46H343.486ZM353.47 36.4L356.223 28.528H379.263L382.079 36.4H353.47ZM405.405 46V9.648H391.069V1.2H430.109V9.648H415.773V46H405.405Z" fill="#0066CC"/>
</svg>
