<svg xmlns="http://www.w3.org/2000/svg" xmlns:xlink="http://www.w3.org/1999/xlink" width="300" zoomAndPan="magnify" viewBox="0 0 224.87999 56.249996" height="75" preserveAspectRatio="xMidYMid meet" version="1.0"><defs><g/><clipPath id="fc14c9437d"><path d="M 107.3125 2.539062 L 150.980469 2.539062 L 150.980469 47.6875 L 107.3125 47.6875 Z M 107.3125 2.539062 " clip-rule="nonzero"/></clipPath></defs><g fill="#e84a5f" fill-opacity="1"><g transform="translate(5.02868, 33.758164)"><g><path d="M 17.8125 -27.609375 L 17.8125 -22.09375 L 8.296875 -22.09375 L 8.296875 -16.59375 L 17.40625 -16.59375 L 17.40625 -11.078125 L 8.296875 -11.078125 L 8.296875 -5.515625 L 17.8125 -5.515625 L 17.8125 0 L 2.015625 0 L 2.015625 -27.609375 Z M 17.8125 -27.609375 "/></g></g></g><g fill="#e84a5f" fill-opacity="1"><g transform="translate(21.830419, 33.758164)"><g/></g></g><g fill="#e84a5f" fill-opacity="1"><g transform="translate(28.356853, 33.758164)"><g><path d="M 2.015625 -12.25 L 12.78125 -12.25 L 12.78125 -7.125 L 2.015625 -7.125 Z M 2.015625 -12.25 "/></g></g></g><g fill="#e84a5f" fill-opacity="1"><g transform="translate(40.539719, 33.758164)"><g/></g></g><g fill="#e84a5f" fill-opacity="1"><g transform="translate(47.066153, 33.758164)"><g><path d="M 0.765625 -13.828125 C 0.765625 -17.816406 2.125 -21.191406 4.84375 -23.953125 C 7.570312 -26.722656 10.851562 -28.109375 14.6875 -28.109375 C 18.550781 -28.109375 21.832031 -26.726562 24.53125 -23.96875 C 27.226562 -21.21875 28.578125 -17.835938 28.578125 -13.828125 C 28.578125 -9.785156 27.25 -6.382812 24.59375 -3.625 C 21.9375 -0.875 18.632812 0.5 14.6875 0.5 C 10.65625 0.5 7.328125 -0.863281 4.703125 -3.59375 C 2.078125 -6.332031 0.765625 -9.742188 0.765625 -13.828125 Z M 7.5625 -13.828125 C 7.5625 -12.367188 7.785156 -11.039062 8.234375 -9.84375 C 8.679688 -8.65625 9.460938 -7.648438 10.578125 -6.828125 C 11.691406 -6.003906 13.0625 -5.59375 14.6875 -5.59375 C 17.03125 -5.59375 18.796875 -6.394531 19.984375 -8 C 21.179688 -9.601562 21.78125 -11.546875 21.78125 -13.828125 C 21.78125 -16.078125 21.171875 -18.007812 19.953125 -19.625 C 18.742188 -21.25 16.988281 -22.0625 14.6875 -22.0625 C 12.414062 -22.0625 10.660156 -21.25 9.421875 -19.625 C 8.179688 -18.007812 7.5625 -16.078125 7.5625 -13.828125 Z M 7.5625 -13.828125 "/></g></g></g><g fill="#e84a5f" fill-opacity="1"><g transform="translate(73.808487, 33.758164)"><g><path d="M 8.296875 -27.609375 L 8.296875 -5.515625 L 17.8125 -5.515625 L 17.8125 0 L 2.015625 0 L 2.015625 -27.609375 Z M 8.296875 -27.609375 "/></g></g></g><g fill="#e84a5f" fill-opacity="1"><g transform="translate(90.108178, 33.758164)"><g><path d="M 8.296875 -27.609375 L 8.296875 0 L 2.015625 0 L 2.015625 -27.609375 Z M 8.296875 -27.609375 "/></g></g></g><g fill="#e84a5f" fill-opacity="1"><g transform="translate(97.806065, 33.758164)"><g><path d="M 24.828125 0 L 23.53125 -16.359375 L 23.359375 -16.359375 L 17.703125 -0.171875 L 13.953125 -0.171875 L 8.296875 -16.359375 L 8.140625 -16.359375 L 6.828125 0 L 0.53125 0 L 3.015625 -27.609375 L 9.703125 -27.609375 L 15.828125 -11.6875 L 21.953125 -27.609375 L 28.65625 -27.609375 L 31.125 0 Z M 24.828125 0 "/></g></g></g><g fill="#e84a5f" fill-opacity="1"><g transform="translate(126.857844, 33.758164)"><g><path d="M 2.015625 -27.609375 L 12.078125 -27.609375 C 14.890625 -27.609375 17.164062 -26.882812 18.90625 -25.4375 C 20.644531 -23.988281 21.515625 -21.878906 21.515625 -19.109375 C 21.515625 -16.335938 20.632812 -14.164062 18.875 -12.59375 C 17.113281 -11.019531 14.847656 -10.234375 12.078125 -10.234375 L 8.296875 -10.234375 L 8.296875 0 L 2.015625 0 Z M 8.296875 -15.265625 L 10.078125 -15.265625 C 11.484375 -15.265625 12.632812 -15.546875 13.53125 -16.109375 C 14.4375 -16.679688 14.890625 -17.613281 14.890625 -18.90625 C 14.890625 -20.226562 14.4375 -21.171875 13.53125 -21.734375 C 12.632812 -22.304688 11.484375 -22.59375 10.078125 -22.59375 L 8.296875 -22.59375 Z M 8.296875 -15.265625 "/></g></g></g><g fill="#e84a5f" fill-opacity="1"><g transform="translate(146.538009, 33.758164)"><g><path d="M 8.296875 -27.609375 L 8.296875 0 L 2.015625 0 L 2.015625 -27.609375 Z M 8.296875 -27.609375 "/></g></g></g><g fill="#e84a5f" fill-opacity="1"><g transform="translate(154.235897, 33.758164)"><g><path d="M -1 -27.609375 L 6.5625 -27.609375 L 12.3125 -18.78125 L 18.078125 -27.609375 L 25.640625 -27.609375 L 15.46875 -12.390625 L 15.46875 0 L 9.171875 0 L 9.171875 -12.390625 Z M -1 -27.609375 "/></g></g></g><g fill="#e84a5f" fill-opacity="1"><g transform="translate(176.258962, 33.758164)"><g><path d="M 16.03125 -27.609375 L 27.171875 0 L 20.421875 0 L 18.375 -5.515625 L 7.859375 -5.515625 L 5.828125 0 L -0.9375 0 L 10.203125 -27.609375 Z M 16.234375 -11.046875 L 13.15625 -19.078125 L 13.09375 -19.078125 L 10 -11.046875 Z M 16.234375 -11.046875 "/></g></g></g><g fill="#e84a5f" fill-opacity="1"><g transform="translate(199.888587, 33.758164)"><g><path d="M 0.265625 -22.09375 L 0.265625 -27.609375 L 19.671875 -27.609375 L 19.671875 -22.09375 L 13.125 -22.09375 L 13.125 0 L 6.828125 0 L 6.828125 -22.09375 Z M 0.265625 -22.09375 "/></g></g></g><g clip-path="url(#fc14c9437d)"><path fill="#ffffff" d="M 151.226562 24.738281 L 144.75 24.738281 C 133.664062 22.339844 131.199219 19.867188 128.800781 8.761719 L 128.800781 2.539062 L 127.980469 2.539062 L 127.980469 8.828125 C 125.585938 19.875 123.109375 22.34375 112.046875 24.738281 L 107.320312 24.738281 L 107.320312 25.558594 L 112.046875 25.558594 C 123.109375 27.953125 125.585938 30.421875 127.980469 41.46875 L 127.980469 47.640625 L 128.800781 47.640625 L 128.800781 41.535156 C 131.199219 30.429688 133.664062 27.957031 144.75 25.558594 L 151.226562 25.558594 Z M 151.226562 24.738281 " fill-opacity="1" fill-rule="nonzero"/></g></svg>