<svg width="394" height="73" viewBox="0 0 394 73" fill="none" xmlns="http://www.w3.org/2000/svg">
<path d="M5.875 42.625C5.14583 42.2604 4.59896 41.8958 4.23438 41.5312C3.92188 41.1667 3.76562 40.6458 3.76562 39.9688C3.76562 39.6042 3.81771 39.2917 3.92188 39.0312C4.07812 38.7708 4.23438 38.5365 4.39062 38.3281C4.59896 38.0677 4.78125 37.8073 4.9375 37.5469C5.09375 37.2865 5.17188 36.974 5.17188 36.6094C5.17188 35.9844 5.17188 35.2552 5.17188 34.4219C5.22396 33.5885 5.19792 32.7552 5.09375 31.9219C4.98958 31.0365 4.78125 30.2292 4.46875 29.5C4.20833 28.7188 3.73958 28.0938 3.0625 27.625C3.21875 27.5729 3.45312 27.3906 3.76562 27.0781C4.13021 26.7135 4.36458 26.4792 4.46875 26.375V26.2188C4.46875 26.2188 4.46875 26.1927 4.46875 26.1406C4.46875 26.0885 4.46875 26.0365 4.46875 25.9844C4.46875 25.3073 4.28646 24.8385 3.92188 24.5781C3.60938 24.3177 3.21875 24.1354 2.75 24.0312C2.33333 23.9271 1.89062 23.8229 1.42188 23.7188C0.953125 23.6146 0.614583 23.3542 0.40625 22.9375C0.979167 22.1562 1.91667 21.4792 3.21875 20.9062C4.52083 20.3333 5.97917 19.8385 7.59375 19.4219C9.26042 18.9531 10.9792 18.5625 12.75 18.25C14.5729 17.9375 16.3438 17.6771 18.0625 17.4688C19.7812 17.2083 21.3177 17.0521 22.6719 17C24.026 16.8958 25.0938 16.8438 25.875 16.8438H27.6719C28.1406 16.8438 28.7396 16.8958 29.4688 17C30.25 17.0521 31.0052 17.1302 31.7344 17.2344C32.4635 17.2865 33.0885 17.3385 33.6094 17.3906C34.1823 17.4427 34.4688 17.4688 34.4688 17.4688L35.1719 18.0938L34.4688 18.875C29.9375 19.0312 25.5625 19.3438 21.3438 19.8125C17.1771 20.2292 12.9062 21.0365 8.53125 22.2344C8.47917 22.3385 8.42708 22.5469 8.375 22.8594C8.32292 23.1719 8.24479 23.5104 8.14062 23.875C8.08854 24.2396 8.03646 24.6042 7.98438 24.9688C7.93229 25.2812 7.90625 25.4896 7.90625 25.5938C7.90625 25.6979 7.90625 25.8802 7.90625 26.1406C7.90625 26.349 7.90625 26.5833 7.90625 26.8438C7.95833 27.1042 7.98438 27.3385 7.98438 27.5469C7.98438 27.7552 7.98438 27.9375 7.98438 28.0938C12.2552 28.0938 16.474 27.9115 20.6406 27.5469C24.8073 27.1302 29.026 26.9219 33.2969 26.9219C33.6094 26.9219 33.9219 26.9219 34.2344 26.9219C34.5469 26.9219 34.8073 26.974 35.0156 27.0781C35.276 27.1302 35.4844 27.2865 35.6406 27.5469C35.7969 27.7552 35.875 28.0677 35.875 28.4844C35.875 28.7448 35.224 29.1094 33.9219 29.5781C32.6719 30.0469 31.0833 30.5938 29.1562 31.2188C27.2292 31.7917 25.1198 32.4427 22.8281 33.1719C20.5885 33.901 18.5052 34.6562 16.5781 35.4375C14.651 36.2188 13.0365 37.026 11.7344 37.8594C10.4844 38.6927 9.85938 39.5 9.85938 40.2812V40.5156C9.85938 40.5156 9.85938 40.5417 9.85938 40.5938C9.91146 40.6458 10.0417 40.776 10.25 40.9844C10.4583 41.1406 10.5625 41.2708 10.5625 41.375C10.5625 41.4271 10.5885 41.4531 10.6406 41.4531V41.6094C10.6406 41.6615 10.6667 41.6875 10.7188 41.6875C10.7188 41.6875 10.6927 41.7135 10.6406 41.7656C10.6406 41.7656 10.6406 41.7917 10.6406 41.8438C10.5885 41.8958 10.5625 41.9479 10.5625 42C10.5625 42.0521 10.4583 42.1823 10.25 42.3906C10.0417 42.5469 9.91146 42.625 9.85938 42.625C9.80729 42.7812 9.67708 43.0417 9.46875 43.4062C9.3125 43.7708 9.23438 43.9792 9.23438 44.0312C9.23438 45.75 9.52083 47.2344 10.0938 48.4844C10.7188 49.6823 11.526 50.6719 12.5156 51.4531C13.5052 52.1823 14.651 52.7292 15.9531 53.0938C17.3073 53.4583 18.7135 53.6406 20.1719 53.6406C22.2031 53.6406 24.0521 53.3542 25.7188 52.7812C27.3854 52.2083 28.9479 51.4271 30.4062 50.4375C31.8646 49.4479 33.2448 48.3021 34.5469 47C35.901 45.6458 37.2292 44.1875 38.5312 42.625C38.5833 42.625 38.6615 42.4948 38.7656 42.2344C38.9219 41.974 39.0781 41.7135 39.2344 41.4531C39.3906 41.1406 39.5208 40.8542 39.625 40.5938C39.7812 40.2812 39.8594 40.0729 39.8594 39.9688C39.8594 39.9167 39.8594 39.8125 39.8594 39.6562C39.9115 39.4479 39.9375 39.2917 39.9375 39.1875C39.9375 38.875 39.8333 38.6406 39.625 38.4844C39.4688 38.276 39.2604 38.1198 39 38.0156C38.7396 37.9115 38.4531 37.8594 38.1406 37.8594C37.8802 37.8073 37.5938 37.7812 37.2812 37.7812C37.2812 37.0521 37.6198 36.5573 38.2969 36.2969C38.974 36.0365 39.651 35.9062 40.3281 35.9062C41.1094 35.9062 41.6823 36.1667 42.0469 36.6875C42.4635 37.2083 42.6719 37.8594 42.6719 38.6406C42.6719 40.099 42.2812 41.5833 41.5 43.0938C40.7188 44.5521 39.7031 45.9844 38.4531 47.3906C37.2031 48.7448 35.7448 50.0208 34.0781 51.2188C32.4635 52.3646 30.7969 53.3802 29.0781 54.2656C27.3594 55.099 25.6667 55.776 24 56.2969C22.3333 56.8177 20.8229 57.0781 19.4688 57.0781C17.1771 57.0781 15.276 56.7135 13.7656 55.9844C12.2552 55.2031 10.9792 54.1615 9.9375 52.8594C8.89583 51.5052 8.0625 49.9688 7.4375 48.25C6.86458 46.4792 6.34375 44.6042 5.875 42.625ZM7.75 29.5C7.75 30.5938 7.80208 31.5312 7.90625 32.3125C7.95833 33.0417 8.01042 33.6927 8.0625 34.2656C8.16667 34.8385 8.32292 35.125 8.53125 35.125H9.23438C9.28646 35.125 9.625 35.0208 10.25 34.8125C10.875 34.5521 11.6042 34.2396 12.4375 33.875C13.3229 33.5104 14.2083 33.1458 15.0938 32.7812C16.0312 32.3646 16.7865 32.0521 17.3594 31.8438C17.5156 31.7917 17.6979 31.6875 17.9062 31.5312C18.1667 31.375 18.4531 31.2448 18.7656 31.1406C19.0781 30.9844 19.3385 30.8281 19.5469 30.6719C19.8073 30.5156 20.0156 30.4375 20.1719 30.4375C19.2344 30.1771 18.2188 29.9948 17.125 29.8906C16.0312 29.7344 14.9115 29.6302 13.7656 29.5781C12.6719 29.526 11.5781 29.5 10.4844 29.5C9.44271 29.5 8.53125 29.5 7.75 29.5ZM47.75 31.2188C47.75 30.6979 47.8281 30.3073 47.9844 30.0469C48.1406 29.7344 48.5312 29.4479 49.1562 29.1875C50.8229 29.2917 52.3854 29.3698 53.8438 29.4219C55.3542 29.474 56.8646 29.474 58.375 29.4219C59.8854 29.3177 61.4219 29.1875 62.9844 29.0312C64.5469 28.875 66.2656 28.6667 68.1406 28.4062H68.4531C68.8698 28.4062 69.3646 28.5625 69.9375 28.875C70.5104 29.1875 70.7969 29.5781 70.7969 30.0469C70.7969 30.6198 70.7448 31.1927 70.6406 31.7656C70.5365 32.2865 70.1719 32.5469 69.5469 32.5469C69.0781 32.5469 68.6354 32.4167 68.2188 32.1562C67.8542 31.8958 67.4635 31.7656 67.0469 31.7656H66.7344C65.1719 32.1302 63.9479 32.3906 63.0625 32.5469C62.1771 32.7031 61.4219 32.8333 60.7969 32.9375C60.1719 32.9896 59.625 33.0156 59.1562 33.0156C58.7396 32.9635 58.1927 32.9115 57.5156 32.8594C56.8906 32.8073 56.0833 32.7552 55.0938 32.7031C54.1042 32.651 52.8281 32.625 51.2656 32.625H50.6406C50.4323 32.625 50.1719 32.625 49.8594 32.625C49.5469 32.5729 49.2604 32.5469 49 32.5469H48.4531C48.0885 32.3906 47.8802 32.2083 47.8281 32C47.776 31.7396 47.75 31.4792 47.75 31.2188ZM73.4531 43.7188C73.4531 42.2083 73.6094 40.5156 73.9219 38.6406C74.2865 36.7656 74.7812 34.8906 75.4062 33.0156C76.0833 31.0885 76.9167 29.2396 77.9062 27.4688C78.9479 25.6979 80.1198 24.1094 81.4219 22.7031C82.776 21.2969 84.2604 20.1771 85.875 19.3438C87.4896 18.5104 89.2604 18.0938 91.1875 18.0938C92.8542 18.0938 94.3906 18.4844 95.7969 19.2656C97.2031 19.9948 98.4792 20.9583 99.625 22.1562C100.823 23.3021 101.865 24.6562 102.75 26.2188C103.635 27.7812 104.391 29.3958 105.016 31.0625C105.641 32.6771 106.109 34.2917 106.422 35.9062C106.786 37.4688 106.969 38.901 106.969 40.2031C106.969 42.026 106.656 43.7188 106.031 45.2812C105.406 46.8438 104.547 48.25 103.453 49.5C102.411 50.75 101.161 51.8438 99.7031 52.7812C98.2969 53.7188 96.7865 54.526 95.1719 55.2031C93.5573 55.8281 91.8906 56.2969 90.1719 56.6094C88.5052 56.9219 86.8385 57.0781 85.1719 57.0781C82.9323 57.0781 81.0573 56.7656 79.5469 56.1406C78.0885 55.5156 76.8906 54.6302 75.9531 53.4844C75.0677 52.2865 74.4167 50.8802 74 49.2656C73.6354 47.599 73.4531 45.75 73.4531 43.7188ZM76.1875 45.4375C76.1875 46.8958 76.4219 48.1719 76.8906 49.2656C77.3594 50.3073 78.0104 51.1667 78.8438 51.8438C79.6771 52.4688 80.6667 52.9375 81.8125 53.25C82.9583 53.5104 84.2344 53.6406 85.6406 53.6406C87.8281 53.6406 90.0417 53.4062 92.2812 52.9375C94.5208 52.4167 96.526 51.6094 98.2969 50.5156C100.068 49.3698 101.5 47.9375 102.594 46.2188C103.74 44.4479 104.312 42.3125 104.312 39.8125C104.312 38.25 104 36.375 103.375 34.1875C102.802 32 101.969 29.9167 100.875 27.9375C99.7812 25.9583 98.4271 24.2917 96.8125 22.9375C95.25 21.5312 93.5052 20.8281 91.5781 20.8281C90.6927 20.8281 89.9375 20.8802 89.3125 20.9844C88.7396 21.0365 88.0104 21.2188 87.125 21.5312V21.9219V22.2344C87.125 22.2865 87.151 22.4167 87.2031 22.625C87.3073 22.8333 87.4115 23.0677 87.5156 23.3281C87.6198 23.5365 87.6979 23.7448 87.75 23.9531C87.8021 24.1615 87.8281 24.2917 87.8281 24.3438C87.8281 24.8125 87.6979 25.1771 87.4375 25.4375C87.1771 25.6458 86.8646 25.8021 86.5 25.9062C86.1875 26.0104 85.8229 26.0885 85.4062 26.1406C85.0417 26.1927 84.7031 26.2708 84.3906 26.375C82.6719 27.1042 81.2656 28.1979 80.1719 29.6562C79.1302 31.1146 78.2969 32.7552 77.6719 34.5781C77.099 36.349 76.7083 38.1979 76.5 40.125C76.2917 42.0521 76.1875 43.8229 76.1875 45.4375ZM110.953 37.7812C110.953 33.875 111.109 30.0208 111.422 26.2188C111.786 22.4167 112.333 18.5885 113.062 14.7344C113.219 14.1094 113.375 13.6146 113.531 13.25C113.688 12.8333 113.87 12.5208 114.078 12.3125C114.339 12.0521 114.651 11.8958 115.016 11.8438C115.432 11.7396 115.953 11.6875 116.578 11.6875C116.578 11.8958 116.578 12.3125 116.578 12.9375C116.578 13.5104 116.552 13.875 116.5 14.0312C116.448 14.3958 116.344 15.151 116.188 16.2969C116.083 17.3906 115.927 18.6927 115.719 20.2031C115.51 21.7135 115.302 23.3021 115.094 24.9688C114.885 26.6354 114.677 28.224 114.469 29.7344C114.312 31.2448 114.156 32.5729 114 33.7188C113.844 34.8125 113.766 35.5417 113.766 35.9062V36.5312C113.766 39.0312 114.078 41.375 114.703 43.5625C115.38 45.6979 116.396 47.5729 117.75 49.1875C119.104 50.8021 120.771 52.0781 122.75 53.0156C124.729 53.901 127.047 54.3438 129.703 54.3438C131.266 54.3438 132.802 54.1875 134.312 53.875C135.875 53.5104 137.411 53.1198 138.922 52.7031C140.432 52.2344 141.917 51.8177 143.375 51.4531C144.885 51.0885 146.396 50.9062 147.906 50.9062H148.531L147.906 52.2344C147.854 52.2344 147.646 52.3125 147.281 52.4688C146.917 52.625 146.474 52.8333 145.953 53.0938C145.432 53.3021 144.911 53.5365 144.391 53.7969C143.87 54.0052 143.427 54.1875 143.062 54.3438C140.823 55.1771 138.557 55.8542 136.266 56.375C134.026 56.8438 131.682 57.0781 129.234 57.0781C126.109 57.0781 123.401 56.6354 121.109 55.75C118.818 54.8646 116.917 53.5885 115.406 51.9219C113.896 50.2552 112.776 48.25 112.047 45.9062C111.318 43.5104 110.953 40.8021 110.953 37.7812ZM151.891 44.0312C151.526 39.0312 151.188 34.1875 150.875 29.5C150.615 24.8125 150.484 19.9948 150.484 15.0469C150.484 14.9427 150.484 14.7083 150.484 14.3438C150.484 13.9792 150.484 13.6146 150.484 13.25C150.536 12.8333 150.562 12.4427 150.562 12.0781C150.562 11.7135 150.562 11.4792 150.562 11.375C150.615 11.0104 150.797 10.5677 151.109 10.0469C151.422 9.47396 151.786 9.1875 152.203 9.1875C152.568 9.1875 152.854 9.34375 153.062 9.65625C153.323 9.96875 153.505 10.3333 153.609 10.75C153.714 11.1667 153.792 11.5573 153.844 11.9219C153.896 12.2865 153.922 12.5208 153.922 12.625C153.974 13.0417 154.026 13.6927 154.078 14.5781C154.182 15.4115 154.26 16.2969 154.312 17.2344C154.365 18.1719 154.417 19.0573 154.469 19.8906C154.573 20.724 154.625 21.2708 154.625 21.5312C154.625 21.8958 154.625 22.599 154.625 23.6406C154.625 24.6823 154.625 25.9062 154.625 27.3125C154.625 28.7188 154.625 30.2292 154.625 31.8438C154.625 33.4062 154.625 34.8906 154.625 36.2969C154.625 37.7031 154.625 38.9271 154.625 39.9688C154.625 40.9583 154.625 41.6354 154.625 42C154.625 43.3542 154.807 44.6823 155.172 45.9844C155.589 47.2344 156.005 48.5104 156.422 49.8125C156.839 51.0625 157.229 52.3385 157.594 53.6406C157.958 54.8906 158.141 56.1667 158.141 57.4688C157.516 57.4688 156.917 57.1823 156.344 56.6094C155.823 56.0365 155.328 55.3333 154.859 54.5C154.443 53.6146 154.052 52.651 153.688 51.6094C153.375 50.5677 153.089 49.5521 152.828 48.5625C152.568 47.5729 152.359 46.6875 152.203 45.9062C152.047 45.0729 151.943 44.4479 151.891 44.0312ZM150.797 4.73438C150.797 4.31771 150.849 3.90104 150.953 3.48438C151.057 3.01562 151.214 2.59896 151.422 2.23438C151.682 1.86979 151.995 1.58333 152.359 1.375C152.776 1.11458 153.245 0.984375 153.766 0.984375C154.286 0.984375 154.781 1.08854 155.25 1.29688C155.771 1.45312 156.214 1.6875 156.578 2C156.995 2.3125 157.333 2.67708 157.594 3.09375C157.854 3.45833 157.984 3.875 157.984 4.34375C157.984 5.48958 157.568 6.32292 156.734 6.84375C155.901 7.36458 154.964 7.625 153.922 7.625C152.724 7.625 151.891 7.44271 151.422 7.07812C151.005 6.66146 150.797 5.88021 150.797 4.73438ZM206.734 21.5312C206.161 21.7396 205.771 22.026 205.562 22.3906C205.406 22.7031 205.224 23.1198 205.016 23.6406C204.911 23.849 204.703 24.3438 204.391 25.125C204.078 25.8542 203.714 26.7396 203.297 27.7812C202.88 28.8229 202.411 29.9167 201.891 31.0625C201.422 32.2083 200.979 33.3021 200.562 34.3438C200.146 35.3854 199.781 36.2969 199.469 37.0781C199.156 37.8594 198.948 38.3802 198.844 38.6406C198.479 39.474 198.01 40.4375 197.438 41.5312C196.917 42.625 196.266 43.6667 195.484 44.6562C194.755 45.6458 193.922 46.4792 192.984 47.1562C192.099 47.8333 191.109 48.1719 190.016 48.1719C188.297 48.1719 186.917 47.5208 185.875 46.2188C184.833 44.8646 184.026 43.1458 183.453 41.0625C182.932 38.9271 182.568 36.5573 182.359 33.9531C182.151 31.2969 181.969 28.7188 181.812 26.2188C181.708 23.7188 181.578 21.375 181.422 19.1875C181.266 17 180.953 15.2812 180.484 14.0312C180.38 14.0312 180.302 14.0312 180.25 14.0312C180.198 14.0312 180.146 14.0312 180.094 14.0312C180.042 14.0312 180.016 14.0312 180.016 14.0312C180.016 14.0312 179.99 14.0312 179.938 14.0312H179.781C179.26 14.3438 178.766 14.8125 178.297 15.4375C177.88 16.0625 177.49 16.7396 177.125 17.4688C176.76 18.1458 176.448 18.7969 176.188 19.4219C175.979 20.0469 175.823 20.5417 175.719 20.9062L166.812 49.5C166.76 49.6562 166.682 49.8646 166.578 50.125C166.474 50.3854 166.318 50.6458 166.109 50.9062C165.953 51.1146 165.745 51.2969 165.484 51.4531C165.276 51.6094 165.042 51.6354 164.781 51.5312C164.625 51.5312 164.417 51.4271 164.156 51.2188C163.948 50.9583 163.74 50.6979 163.531 50.4375C163.323 50.125 163.141 49.8385 162.984 49.5781C162.828 49.2656 162.724 49.0312 162.672 48.875C161.891 43.6146 161.448 38.25 161.344 32.7812C161.24 27.3125 161.24 22 161.344 16.8438C161.292 16.7396 161.161 16.5052 160.953 16.1406C160.797 15.776 160.719 15.5417 160.719 15.4375C160.719 15.0729 160.823 14.7083 161.031 14.3438C161.292 13.9271 161.578 13.5365 161.891 13.1719C162.255 12.8073 162.62 12.5208 162.984 12.3125C163.401 12.0521 163.766 11.9219 164.078 11.9219C164.599 11.9219 164.964 12.0781 165.172 12.3906C165.38 12.651 165.484 13.0417 165.484 13.5625C165.484 16.375 165.354 19.1615 165.094 21.9219C164.833 24.6823 164.703 27.4948 164.703 30.3594C164.703 30.724 164.703 31.2448 164.703 31.9219C164.703 32.599 164.703 33.276 164.703 33.9531C164.755 34.5781 164.781 35.151 164.781 35.6719C164.781 36.1927 164.781 36.4792 164.781 36.5312L165.484 39.3438C165.536 39.2396 165.641 39.1094 165.797 38.9531C166.005 38.7969 166.135 38.6927 166.188 38.6406C166.292 38.4323 166.474 38.0417 166.734 37.4688C166.995 36.8958 167.255 36.2969 167.516 35.6719C167.828 34.9948 168.115 34.3698 168.375 33.7969C168.635 33.1719 168.792 32.7292 168.844 32.4688C168.948 32.2083 169.13 31.7396 169.391 31.0625C169.651 30.3333 169.964 29.474 170.328 28.4844C170.693 27.4427 171.083 26.375 171.5 25.2812C171.969 24.1875 172.385 23.1458 172.75 22.1562C173.115 21.1667 173.427 20.3073 173.688 19.5781C174 18.849 174.208 18.3542 174.312 18.0938C174.521 17.6771 174.833 16.9479 175.25 15.9062C175.719 14.8125 176.266 13.7448 176.891 12.7031C177.568 11.6094 178.271 10.6458 179 9.8125C179.781 8.97917 180.589 8.5625 181.422 8.5625C182.203 8.5625 182.802 9.08333 183.219 10.125C183.635 11.1667 183.948 12.5469 184.156 14.2656C184.417 15.9323 184.599 17.8594 184.703 20.0469C184.807 22.1823 184.885 24.3958 184.938 26.6875C185.042 28.9792 185.172 31.2188 185.328 33.4062C185.536 35.5417 185.823 37.4688 186.188 39.1875C186.552 40.8542 187.047 42.2083 187.672 43.25C188.349 44.2917 189.234 44.8125 190.328 44.8125C190.641 44.8125 190.979 44.6562 191.344 44.3438C191.76 43.9792 192.151 43.5625 192.516 43.0938C192.88 42.625 193.193 42.1562 193.453 41.6875C193.766 41.2188 193.974 40.8542 194.078 40.5938C194.443 39.9167 194.964 38.849 195.641 37.3906C196.318 35.9323 197.073 34.2917 197.906 32.4688C198.792 30.6458 199.703 28.7188 200.641 26.6875C201.578 24.6562 202.464 22.7292 203.297 20.9062C204.13 19.0312 204.885 17.3646 205.562 15.9062C206.24 14.4479 206.734 13.3542 207.047 12.625C207.307 12 207.646 11.1406 208.062 10.0469C208.531 8.95312 208.87 8.01562 209.078 7.23438C209.703 7.33854 210.328 7.52083 210.953 7.78125C211.578 8.04167 211.891 8.51042 211.891 9.1875C211.891 9.29167 211.865 9.44792 211.812 9.65625C211.812 9.8125 211.812 9.91667 211.812 9.96875C211.083 14.2396 210.536 18.4062 210.172 22.4688C209.859 26.4792 209.703 30.6198 209.703 34.8906C209.703 35.2552 209.703 35.9062 209.703 36.8438C209.703 37.7292 209.703 38.7188 209.703 39.8125C209.755 40.8542 209.781 41.8438 209.781 42.7812C209.781 43.6667 209.781 44.3177 209.781 44.7344C210.042 46.8698 210.797 48.8229 212.047 50.5938C213.297 52.3646 214.573 54.0312 215.875 55.5938V57.3906C215.406 57.3906 214.833 57.1562 214.156 56.6875C213.479 56.1667 212.802 55.5156 212.125 54.7344C211.448 53.9531 210.771 53.0677 210.094 52.0781C209.469 51.0885 208.896 50.125 208.375 49.1875C207.906 48.25 207.516 47.3906 207.203 46.6094C206.891 45.8281 206.734 45.2031 206.734 44.7344V21.5312ZM224.859 39.3438C224.495 39.1875 224.026 38.9792 223.453 38.7188C222.88 38.4062 222.333 38.0677 221.812 37.7031C221.292 37.3385 220.823 36.9479 220.406 36.5312C220.042 36.0625 219.859 35.5677 219.859 35.0469C220.641 35.0469 221.344 35.1771 221.969 35.4375C222.646 35.6979 223.323 35.8281 224 35.8281C224 32.0781 223.896 28.3542 223.688 24.6562C223.531 20.9583 223.453 17.2083 223.453 13.4062C223.453 13.1979 223.453 12.8333 223.453 12.3125C223.453 11.7917 223.453 11.2448 223.453 10.6719C223.453 10.099 223.453 9.55208 223.453 9.03125C223.453 8.45833 223.453 8.09375 223.453 7.9375C223.766 6.0625 224.521 4.65625 225.719 3.71875C226.969 2.78125 228.531 2.3125 230.406 2.3125C231.604 2.3125 232.906 2.625 234.312 3.25C235.771 3.875 237.229 4.68229 238.688 5.67188C240.146 6.66146 241.552 7.83333 242.906 9.1875C244.312 10.4896 245.536 11.8698 246.578 13.3281C247.62 14.7344 248.453 16.1406 249.078 17.5469C249.755 18.9531 250.094 20.2812 250.094 21.5312C250.094 25.0208 249.599 27.9115 248.609 30.2031C247.62 32.4948 246.214 34.3438 244.391 35.75C242.568 37.1562 240.38 38.224 237.828 38.9531C235.328 39.6823 232.568 40.2292 229.547 40.5938C229.703 41.7917 229.833 42.9115 229.938 43.9531C230.042 44.9427 230.12 45.9323 230.172 46.9219C230.224 47.8594 230.276 48.8229 230.328 49.8125C230.38 50.75 230.406 51.7396 230.406 52.7812C230.406 53.0417 230.38 53.4062 230.328 53.875C230.328 54.3438 230.276 54.8125 230.172 55.2812C230.068 55.75 229.885 56.1667 229.625 56.5312C229.417 56.8958 229.078 57.0781 228.609 57.0781C228.401 57.0781 228.193 57 227.984 56.8438C227.776 56.6875 227.594 56.5052 227.438 56.2969C227.281 56.0365 227.151 55.8021 227.047 55.5938C226.943 55.3333 226.891 55.125 226.891 54.9688L224.859 39.3438ZM228.141 27.3906C228.141 28.224 228.089 29.2135 227.984 30.3594C227.88 31.5052 227.88 32.599 227.984 33.6406C228.089 34.6302 228.401 35.4896 228.922 36.2188C229.443 36.9479 230.328 37.3125 231.578 37.3125C233.661 37.3125 235.615 36.9479 237.438 36.2188C239.26 35.4375 240.849 34.3958 242.203 33.0938C243.609 31.7396 244.703 30.151 245.484 28.3281C246.266 26.5052 246.656 24.5521 246.656 22.4688C246.656 21.3229 246.396 20.099 245.875 18.7969C245.406 17.4948 244.755 16.1927 243.922 14.8906C243.089 13.5885 242.099 12.3646 240.953 11.2188C239.859 10.0208 238.688 8.97917 237.438 8.09375C236.24 7.15625 235.016 6.42708 233.766 5.90625C232.516 5.38542 231.344 5.125 230.25 5.125C229.312 5.125 228.531 5.41146 227.906 5.98438C227.281 6.55729 226.786 7.28646 226.422 8.17188C226.057 9.00521 225.797 9.91667 225.641 10.9062C225.536 11.8958 225.484 12.7552 225.484 13.4844C225.484 14.6302 225.667 15.4375 226.031 15.9062C226.396 16.375 226.786 16.7396 227.203 17C227.672 17.2083 228.089 17.4167 228.453 17.625C228.818 17.8333 229 18.224 229 18.7969C229 19.3698 228.922 19.8385 228.766 20.2031C228.661 20.5677 228.479 21.0104 228.219 21.5312C228.219 21.7917 228.219 22.2083 228.219 22.7812C228.219 23.3021 228.193 23.875 228.141 24.5C228.141 25.0729 228.141 25.6458 228.141 26.2188C228.141 26.7396 228.141 27.1302 228.141 27.3906ZM254.078 44.0312C253.714 39.0312 253.375 34.1875 253.062 29.5C252.802 24.8125 252.672 19.9948 252.672 15.0469C252.672 14.9427 252.672 14.7083 252.672 14.3438C252.672 13.9792 252.672 13.6146 252.672 13.25C252.724 12.8333 252.75 12.4427 252.75 12.0781C252.75 11.7135 252.75 11.4792 252.75 11.375C252.802 11.0104 252.984 10.5677 253.297 10.0469C253.609 9.47396 253.974 9.1875 254.391 9.1875C254.755 9.1875 255.042 9.34375 255.25 9.65625C255.51 9.96875 255.693 10.3333 255.797 10.75C255.901 11.1667 255.979 11.5573 256.031 11.9219C256.083 12.2865 256.109 12.5208 256.109 12.625C256.161 13.0417 256.214 13.6927 256.266 14.5781C256.37 15.4115 256.448 16.2969 256.5 17.2344C256.552 18.1719 256.604 19.0573 256.656 19.8906C256.76 20.724 256.812 21.2708 256.812 21.5312C256.812 21.8958 256.812 22.599 256.812 23.6406C256.812 24.6823 256.812 25.9062 256.812 27.3125C256.812 28.7188 256.812 30.2292 256.812 31.8438C256.812 33.4062 256.812 34.8906 256.812 36.2969C256.812 37.7031 256.812 38.9271 256.812 39.9688C256.812 40.9583 256.812 41.6354 256.812 42C256.812 43.3542 256.995 44.6823 257.359 45.9844C257.776 47.2344 258.193 48.5104 258.609 49.8125C259.026 51.0625 259.417 52.3385 259.781 53.6406C260.146 54.8906 260.328 56.1667 260.328 57.4688C259.703 57.4688 259.104 57.1823 258.531 56.6094C258.01 56.0365 257.516 55.3333 257.047 54.5C256.63 53.6146 256.24 52.651 255.875 51.6094C255.562 50.5677 255.276 49.5521 255.016 48.5625C254.755 47.5729 254.547 46.6875 254.391 45.9062C254.234 45.0729 254.13 44.4479 254.078 44.0312ZM252.984 4.73438C252.984 4.31771 253.036 3.90104 253.141 3.48438C253.245 3.01562 253.401 2.59896 253.609 2.23438C253.87 1.86979 254.182 1.58333 254.547 1.375C254.964 1.11458 255.432 0.984375 255.953 0.984375C256.474 0.984375 256.969 1.08854 257.438 1.29688C257.958 1.45312 258.401 1.6875 258.766 2C259.182 2.3125 259.521 2.67708 259.781 3.09375C260.042 3.45833 260.172 3.875 260.172 4.34375C260.172 5.48958 259.755 6.32292 258.922 6.84375C258.089 7.36458 257.151 7.625 256.109 7.625C254.911 7.625 254.078 7.44271 253.609 7.07812C253.193 6.66146 252.984 5.88021 252.984 4.73438ZM280.562 60.5156C280.562 59.1615 280.667 57.8073 280.875 56.4531C281.083 55.099 281.318 53.7708 281.578 52.4688C281.839 51.1146 282.073 49.7865 282.281 48.4844C282.542 47.1302 282.672 45.776 282.672 44.4219V44.0312C279.859 43.5104 277.229 42.7292 274.781 41.6875C272.385 40.5938 270.302 39.1875 268.531 37.4688C266.76 35.75 265.354 33.7188 264.312 31.375C263.323 28.9792 262.828 26.1927 262.828 23.0156C262.828 22.5469 262.802 21.9219 262.75 21.1406C262.75 20.3073 262.828 19.526 262.984 18.7969C263.141 18.0677 263.401 17.4427 263.766 16.9219C264.182 16.349 264.781 16.0625 265.562 16.0625C266.292 16.0625 266.812 16.1406 267.125 16.2969C267.49 16.4531 267.672 16.9219 267.672 17.7031C267.672 18.3802 267.594 19.0312 267.438 19.6562C267.281 20.2812 267.125 20.9062 266.969 21.5312C266.812 22.1042 266.656 22.7292 266.5 23.4062C266.344 24.0312 266.266 24.6562 266.266 25.2812C266.266 27.1562 266.656 29.0052 267.438 30.8281C268.219 32.599 269.26 34.1615 270.562 35.5156C271.917 36.8698 273.453 37.9635 275.172 38.7969C276.891 39.6302 278.688 40.0469 280.562 40.0469C280.719 40.0469 280.901 40.0469 281.109 40.0469C281.37 40.0469 281.656 40.0469 281.969 40.0469C282.281 39.9948 282.542 39.9688 282.75 39.9688C283.01 39.9688 283.219 39.9688 283.375 39.9688C284.312 39.3438 285.042 38.276 285.562 36.7656C286.135 35.2031 286.604 33.4844 286.969 31.6094C287.333 29.6823 287.646 27.6771 287.906 25.5938C288.167 23.5104 288.505 21.6354 288.922 19.9688C289.339 18.25 289.833 16.8438 290.406 15.75C291.031 14.6042 291.865 14.0312 292.906 14.0312C292.958 14.0312 293.062 14.1354 293.219 14.3438C293.375 14.5 293.479 14.6302 293.531 14.7344C293.583 14.7865 293.635 14.9948 293.688 15.3594C293.74 15.6719 293.792 16.0625 293.844 16.5312C293.896 16.9479 293.948 17.3906 294 17.8594C294.104 18.276 294.182 18.6146 294.234 18.875V19.1875C294.234 21.6875 293.948 24.1354 293.375 26.5312C292.854 28.875 292.177 31.1927 291.344 33.4844C290.562 35.724 289.703 37.9635 288.766 40.2031C287.828 42.3906 286.943 44.6302 286.109 46.9219C285.328 49.1615 284.651 51.4531 284.078 53.7969C283.557 56.1406 283.297 58.5885 283.297 61.1406C283.297 63.0156 283.427 64.8385 283.688 66.6094C284 68.4323 284.156 70.2812 284.156 72.1562C283.479 72.1562 282.906 71.9219 282.438 71.4531C281.969 70.9844 281.604 70.3854 281.344 69.6562C281.083 68.9271 280.875 68.0938 280.719 67.1562C280.615 66.2708 280.536 65.3854 280.484 64.5C280.484 63.6667 280.484 62.8854 280.484 62.1562C280.536 61.4271 280.562 60.8802 280.562 60.5156ZM303.062 54.9688C303.062 54.8646 303.062 54.7344 303.062 54.5781C303.115 54.4219 303.141 54.3438 303.141 54.3438C303.922 52.8333 304.729 51.375 305.562 49.9688C306.448 48.5625 307.333 47.1823 308.219 45.8281C309.156 44.4219 310.042 43.0156 310.875 41.6094C311.76 40.151 312.568 38.6927 313.297 37.2344C313.089 36.7656 312.568 36.349 311.734 35.9844C310.901 35.6198 309.885 35.2292 308.688 34.8125C307.542 34.3958 306.318 33.9271 305.016 33.4062C303.714 32.8333 302.516 32.1823 301.422 31.4531C300.328 30.6719 299.417 29.7865 298.688 28.7969C297.958 27.7552 297.594 26.5573 297.594 25.2031C297.594 23.7969 298.062 22.5729 299 21.5312C299.938 20.4375 301.083 19.5521 302.438 18.875C303.792 18.1458 305.224 17.599 306.734 17.2344C308.245 16.8698 309.547 16.6875 310.641 16.6875C312.932 16.6875 314.938 17.0781 316.656 17.8594C318.427 18.6406 320.25 19.6562 322.125 20.9062C322.75 20.4375 323.271 19.9167 323.688 19.3438C324.156 18.7708 324.573 18.1458 324.938 17.4688C325.094 17.1042 325.432 16.4531 325.953 15.5156C326.526 14.526 327.073 13.4844 327.594 12.3906C328.167 11.2969 328.714 10.2812 329.234 9.34375C329.807 8.35417 330.172 7.65104 330.328 7.23438C330.745 6.92188 331.083 6.73958 331.344 6.6875C331.604 6.58333 331.969 6.53125 332.438 6.53125C332.49 6.53125 332.594 6.53125 332.75 6.53125C332.958 6.53125 333.089 6.53125 333.141 6.53125C333.661 8.71875 334.052 10.9583 334.312 13.25C334.573 15.5417 334.755 17.8333 334.859 20.125C335.016 22.4167 335.146 24.7083 335.25 27C335.354 29.2917 335.536 31.5833 335.797 33.875C335.953 33.875 336.24 33.901 336.656 33.9531C337.073 33.9531 337.385 33.9531 337.594 33.9531C338.323 33.9531 339.052 33.875 339.781 33.7188C340.51 33.5625 341.24 33.4062 341.969 33.25C342.698 33.0417 343.427 32.8594 344.156 32.7031C344.938 32.5469 345.719 32.4688 346.5 32.4688H346.734C346.786 32.5208 346.891 32.625 347.047 32.7812C347.203 32.9375 347.333 33.0417 347.438 33.0938C347.125 33.6667 346.604 34.1354 345.875 34.5C345.198 34.8125 344.417 35.0729 343.531 35.2812C342.698 35.4896 341.812 35.6979 340.875 35.9062C339.938 36.0625 339.104 36.2708 338.375 36.5312C337.646 36.7396 337.021 37 336.5 37.3125C336.031 37.625 335.797 38.0677 335.797 38.6406C335.797 39.6823 335.849 40.724 335.953 41.7656C336.109 42.8073 336.266 43.875 336.422 44.9688C336.63 46.0104 336.812 47.0781 336.969 48.1719C337.125 49.2135 337.203 50.2812 337.203 51.375C337.203 51.6354 337.177 52 337.125 52.4688C337.125 52.9375 337.073 53.4062 336.969 53.875C336.917 54.3438 336.76 54.7604 336.5 55.125C336.292 55.4896 335.953 55.6719 335.484 55.6719C334.964 55.6719 334.495 55.2812 334.078 54.5C333.661 53.7188 333.323 52.7292 333.062 51.5312C332.802 50.3333 332.568 49.0312 332.359 47.625C332.203 46.1667 332.047 44.7865 331.891 43.4844C331.786 42.1302 331.656 40.9583 331.5 39.9688C331.344 38.9271 331.188 38.25 331.031 37.9375C330.615 37.8854 329.833 37.8333 328.688 37.7812C327.594 37.7292 326.422 37.6771 325.172 37.625C323.974 37.5208 322.828 37.4427 321.734 37.3906C320.641 37.2865 319.885 37.2344 319.469 37.2344H318.688C317.646 37.2344 316.656 37.7292 315.719 38.7188C314.833 39.6562 314 40.8802 313.219 42.3906C312.49 43.849 311.76 45.4375 311.031 47.1562C310.302 48.8229 309.599 50.4115 308.922 51.9219C308.245 53.3802 307.542 54.6042 306.812 55.5938C306.083 56.5833 305.302 57.0781 304.469 57.0781C303.896 57.0781 303.505 56.8698 303.297 56.4531C303.141 55.9844 303.062 55.4896 303.062 54.9688ZM318.766 33.875C319.182 34.1354 319.677 34.3438 320.25 34.5C320.875 34.6042 321.5 34.6562 322.125 34.6562C322.75 34.6562 323.323 34.6562 323.844 34.6562C324.417 34.6562 324.911 34.6562 325.328 34.6562C325.536 34.6562 325.797 34.6562 326.109 34.6562C326.422 34.6042 326.734 34.5781 327.047 34.5781C327.359 34.5781 327.62 34.5781 327.828 34.5781C328.089 34.526 328.245 34.5 328.297 34.5L329 33.875C329.104 33.7708 328.922 33.3021 328.453 32.4688C327.984 31.6354 327.385 30.776 326.656 29.8906C325.979 28.9531 325.302 28.1198 324.625 27.3906C323.948 26.6094 323.479 26.2188 323.219 26.2188C323.167 26.2188 323.115 26.2448 323.062 26.2969C323.01 26.349 322.932 26.375 322.828 26.375C322.047 27.5208 321.318 28.7188 320.641 29.9688C319.964 31.2188 319.339 32.5208 318.766 33.875ZM301.031 25.125C301.031 26.4792 301.5 27.6771 302.438 28.7188C303.375 29.7083 304.521 30.5417 305.875 31.2188C307.229 31.8958 308.661 32.3906 310.172 32.7031C311.682 33.0156 313.01 33.1719 314.156 33.1719C314.885 33.1719 315.641 32.8073 316.422 32.0781C317.203 31.2969 317.906 30.4115 318.531 29.4219C319.208 28.4323 319.755 27.4167 320.172 26.375C320.641 25.3333 320.875 24.526 320.875 23.9531C320.875 23.3281 320.458 22.7552 319.625 22.2344C318.792 21.6615 317.802 21.1667 316.656 20.75C315.562 20.3333 314.469 20.0208 313.375 19.8125C312.281 19.5521 311.474 19.4219 310.953 19.4219C310.172 19.4219 309.208 19.5521 308.062 19.8125C306.969 20.0208 305.875 20.3594 304.781 20.8281C303.74 21.2969 302.854 21.8958 302.125 22.625C301.396 23.3021 301.031 24.1354 301.031 25.125ZM325.562 22.5469C325.562 23.224 325.823 24.0573 326.344 25.0469C326.865 26.0365 327.49 27 328.219 27.9375C328.948 28.875 329.703 29.6823 330.484 30.3594C331.318 31.0365 332.047 31.375 332.672 31.375C332.672 31.1146 332.646 30.724 332.594 30.2031C332.594 29.6823 332.568 29.1094 332.516 28.4844C332.516 27.8594 332.49 27.2865 332.438 26.7656C332.438 26.2448 332.438 25.8542 332.438 25.5938C332.333 24.8646 332.203 23.901 332.047 22.7031C331.943 21.5052 331.812 20.3333 331.656 19.1875C331.552 18.0417 331.422 17.026 331.266 16.1406C331.161 15.2552 331.083 14.7865 331.031 14.7344L330.328 13.4062C330.276 13.4583 330.146 13.5625 329.938 13.7188C329.781 13.875 329.677 13.9792 329.625 14.0312C329.469 14.3438 329.208 14.8646 328.844 15.5938C328.479 16.2708 328.062 17 327.594 17.7812C327.177 18.5625 326.786 19.3177 326.422 20.0469C326.057 20.776 325.797 21.2708 325.641 21.5312C325.641 21.6354 325.615 21.8177 325.562 22.0781C325.562 22.3385 325.562 22.4948 325.562 22.5469ZM375.328 53.6406C375.328 53.0156 375.302 52.0521 375.25 50.75C375.198 49.3958 375.146 47.9115 375.094 46.2969C375.094 44.6302 375.042 42.8854 374.938 41.0625C374.885 39.1875 374.833 37.4167 374.781 35.75C374.781 34.0833 374.755 32.599 374.703 31.2969C374.651 29.9948 374.625 29.0312 374.625 28.4062C374.625 27.9375 374.625 27.3385 374.625 26.6094C374.677 25.8802 374.651 25.2031 374.547 24.5781C374.443 23.9531 374.234 23.4062 373.922 22.9375C373.609 22.4688 373.089 22.2344 372.359 22.2344C370.432 22.2344 368.505 22.3385 366.578 22.5469C364.703 22.7031 362.828 23.0156 360.953 23.4844C359.13 23.9531 357.359 24.6042 355.641 25.4375C353.922 26.2188 352.307 27.2083 350.797 28.4062C350.589 28.3542 350.302 28.1719 349.938 27.8594C349.625 27.4948 349.443 27.2083 349.391 27C349.182 26.1667 349.573 25.3594 350.562 24.5781C351.604 23.7969 352.984 23.0677 354.703 22.3906C356.474 21.7135 358.427 21.1146 360.562 20.5938C362.698 20.0729 364.755 19.6302 366.734 19.2656C368.714 18.849 370.484 18.5365 372.047 18.3281C373.661 18.1198 374.755 18.0156 375.328 18.0156C375.797 18.0156 376.135 18.0677 376.344 18.1719C376.604 18.276 376.943 18.5104 377.359 18.875H394C394 19.2396 393.792 19.5521 393.375 19.8125C393.01 20.0208 392.568 20.2292 392.047 20.4375C391.526 20.5938 391.031 20.724 390.562 20.8281C390.094 20.8802 389.781 20.9062 389.625 20.9062C389.26 20.9583 388.583 21.0104 387.594 21.0625C386.604 21.1146 385.562 21.1927 384.469 21.2969C383.427 21.349 382.411 21.401 381.422 21.4531C380.484 21.5052 379.807 21.5312 379.391 21.5312C379.026 21.6875 378.661 21.8698 378.297 22.0781C377.932 22.2865 377.62 22.5729 377.359 22.9375C377.411 23.1979 377.464 23.6667 377.516 24.3438C377.62 24.9688 377.698 25.6458 377.75 26.375C377.854 27.0521 377.932 27.7292 377.984 28.4062C378.036 29.0312 378.062 29.474 378.062 29.7344C378.062 30.0469 378.062 30.75 378.062 31.8438C378.062 32.9375 378.062 34.2396 378.062 35.75C378.062 37.2083 378.062 38.7448 378.062 40.3594C378.062 41.974 378.062 43.5104 378.062 44.9688C378.062 46.4271 378.062 47.7031 378.062 48.7969C378.062 49.8385 378.062 50.5417 378.062 50.9062C378.062 51.0104 378.089 51.2969 378.141 51.7656C378.193 52.2344 378.245 52.7552 378.297 53.3281C378.401 53.849 378.479 54.3438 378.531 54.8125C378.635 55.2292 378.714 55.4896 378.766 55.5938V56.0625C378.766 56.4792 378.609 56.7656 378.297 56.9219C378.036 57.026 377.724 57.0781 377.359 57.0781C376.943 57.0781 376.604 56.974 376.344 56.7656C376.083 56.5052 375.875 56.1927 375.719 55.8281C375.615 55.4635 375.536 55.099 375.484 54.7344C375.432 54.3177 375.38 53.9531 375.328 53.6406Z" fill="black"/>
</svg>
