<svg xmlns="http://www.w3.org/2000/svg" xmlns:xlink="http://www.w3.org/1999/xlink" width="500" zoomAndPan="magnify" viewBox="0 0 375 374.999991" height="500" preserveAspectRatio="xMidYMid meet" version="1.0"><defs><g/><clipPath id="0bbd82ee85"><path d="M 187.5 128.582031 L 250.5 128.582031 L 250.5 193.082031 L 187.5 193.082031 Z M 187.5 128.582031 " clip-rule="nonzero"/></clipPath></defs><rect x="-37.5" width="450" fill="#ffffff" y="-37.499999" height="449.999989" fill-opacity="1"/><rect x="-37.5" width="450" fill="#e4e0d7" y="-37.499999" height="449.999989" fill-opacity="1"/><g fill="#000000" fill-opacity="1"><g transform="translate(42.654681, 176.807962)"><g><path d="M 25.4375 -39.4375 L 25.4375 -31.5625 L 11.859375 -31.5625 L 11.859375 -23.71875 L 24.859375 -23.71875 L 24.859375 -15.828125 L 11.859375 -15.828125 L 11.859375 -7.890625 L 25.4375 -7.890625 L 25.4375 0 L 2.875 0 L 2.875 -39.4375 Z M 25.4375 -39.4375 "/></g></g></g><g fill="#000000" fill-opacity="1"><g transform="translate(66.656241, 176.807962)"><g/></g></g><g fill="#000000" fill-opacity="1"><g transform="translate(75.979359, 176.807962)"><g><path d="M 2.875 -17.5 L 18.265625 -17.5 L 18.265625 -10.1875 L 2.875 -10.1875 Z M 2.875 -17.5 "/></g></g></g><g fill="#000000" fill-opacity="1"><g transform="translate(93.382783, 176.807962)"><g/></g></g><g fill="#000000" fill-opacity="1"><g transform="translate(102.705901, 176.807962)"><g><path d="M 1.09375 -19.75 C 1.09375 -25.457031 3.035156 -30.285156 6.921875 -34.234375 C 10.816406 -38.179688 15.503906 -40.15625 20.984375 -40.15625 C 26.503906 -40.15625 31.191406 -38.1875 35.046875 -34.25 C 38.898438 -30.320312 40.828125 -25.488281 40.828125 -19.75 C 40.828125 -13.976562 38.929688 -9.125 35.140625 -5.1875 C 31.347656 -1.25 26.628906 0.71875 20.984375 0.71875 C 15.210938 0.71875 10.453125 -1.234375 6.703125 -5.140625 C 2.960938 -9.046875 1.09375 -13.914062 1.09375 -19.75 Z M 10.8125 -19.75 C 10.8125 -17.675781 11.128906 -15.785156 11.765625 -14.078125 C 12.398438 -12.367188 13.515625 -10.925781 15.109375 -9.75 C 16.703125 -8.570312 18.660156 -7.984375 20.984375 -7.984375 C 24.335938 -7.984375 26.863281 -9.128906 28.5625 -11.421875 C 30.269531 -13.722656 31.125 -16.5 31.125 -19.75 C 31.125 -22.96875 30.253906 -25.734375 28.515625 -28.046875 C 26.785156 -30.359375 24.273438 -31.515625 20.984375 -31.515625 C 17.734375 -31.515625 15.222656 -30.359375 13.453125 -28.046875 C 11.691406 -25.734375 10.8125 -22.96875 10.8125 -19.75 Z M 10.8125 -19.75 "/></g></g></g><g fill="#000000" fill-opacity="1"><g transform="translate(140.907765, 176.807962)"><g><path d="M 11.859375 -39.4375 L 11.859375 -7.890625 L 25.4375 -7.890625 L 25.4375 0 L 2.875 0 L 2.875 -39.4375 Z M 11.859375 -39.4375 "/></g></g></g><g fill="#000000" fill-opacity="1"><g transform="translate(164.192141, 176.807962)"><g><path d="M 11.859375 -39.4375 L 11.859375 0 L 2.875 0 L 2.875 -39.4375 Z M 11.859375 -39.4375 "/></g></g></g><g fill="#000000" fill-opacity="1"><g transform="translate(175.188699, 176.807962)"><g><path d="M 35.484375 0 L 33.609375 -23.375 L 33.375 -23.375 L 25.296875 -0.234375 L 19.9375 -0.234375 L 11.859375 -23.375 L 11.625 -23.375 L 9.75 0 L 0.765625 0 L 4.296875 -39.4375 L 13.859375 -39.4375 L 22.609375 -16.6875 L 31.359375 -39.4375 L 40.921875 -39.4375 L 44.46875 0 Z M 35.484375 0 "/></g></g></g><g fill="#000000" fill-opacity="1"><g transform="translate(216.689643, 176.807962)"><g><path d="M 2.875 -39.4375 L 17.265625 -39.4375 C 21.273438 -39.4375 24.523438 -38.398438 27.015625 -36.328125 C 29.503906 -34.265625 30.75 -31.253906 30.75 -27.296875 C 30.75 -23.347656 29.488281 -20.25 26.96875 -18 C 24.445312 -15.75 21.210938 -14.625 17.265625 -14.625 L 11.859375 -14.625 L 11.859375 0 L 2.875 0 Z M 11.859375 -21.796875 L 14.390625 -21.796875 C 16.398438 -21.796875 18.050781 -22.203125 19.34375 -23.015625 C 20.632812 -23.828125 21.28125 -25.160156 21.28125 -27.015625 C 21.28125 -28.890625 20.632812 -30.234375 19.34375 -31.046875 C 18.050781 -31.859375 16.398438 -32.265625 14.390625 -32.265625 L 11.859375 -32.265625 Z M 11.859375 -21.796875 "/></g></g></g><g fill="#000000" fill-opacity="1"><g transform="translate(244.803083, 176.807962)"><g><path d="M 11.859375 -39.4375 L 11.859375 0 L 2.875 0 L 2.875 -39.4375 Z M 11.859375 -39.4375 "/></g></g></g><g fill="#000000" fill-opacity="1"><g transform="translate(255.799641, 176.807962)"><g><path d="M -1.4375 -39.4375 L 9.375 -39.4375 L 17.59375 -26.828125 L 25.8125 -39.4375 L 36.625 -39.4375 L 22.09375 -17.6875 L 22.09375 0 L 13.09375 0 L 13.09375 -17.6875 Z M -1.4375 -39.4375 "/></g></g></g><g fill="#000000" fill-opacity="1"><g transform="translate(287.259951, 176.807962)"><g><path d="M 22.90625 -39.4375 L 38.828125 0 L 29.171875 0 L 26.25 -7.890625 L 11.234375 -7.890625 L 8.3125 0 L -1.34375 0 L 14.578125 -39.4375 Z M 23.1875 -15.78125 L 18.796875 -27.25 L 18.6875 -27.25 L 14.296875 -15.78125 Z M 23.1875 -15.78125 "/></g></g></g><g fill="#000000" fill-opacity="1"><g transform="translate(321.015259, 176.807962)"><g><path d="M 0.375 -31.5625 L 0.375 -39.4375 L 28.109375 -39.4375 L 28.109375 -31.5625 L 18.75 -31.5625 L 18.75 0 L 9.75 0 L 9.75 -31.5625 Z M 0.375 -31.5625 "/></g></g></g><g clip-path="url(#0bbd82ee85)"><path fill="#e4e0d7" d="M 250.238281 160.300781 L 240.984375 160.300781 C 225.144531 156.875 221.621094 153.339844 218.195312 137.476562 L 218.195312 128.585938 L 217.023438 128.585938 L 217.023438 137.570312 C 213.605469 153.355469 210.0625 156.882812 194.257812 160.300781 L 187.503906 160.300781 L 187.503906 161.472656 L 194.257812 161.472656 C 210.0625 164.894531 213.605469 168.421875 217.023438 184.203125 L 217.023438 193.023438 L 218.195312 193.023438 L 218.195312 184.296875 C 221.621094 168.433594 225.144531 164.902344 240.984375 161.472656 L 250.238281 161.472656 Z M 250.238281 160.300781 " fill-opacity="1" fill-rule="nonzero"/></g><g fill="#000000" fill-opacity="1"><g transform="translate(154.869823, 229.771142)"><g><path d="M 1.078125 -8.046875 L 3.703125 -8.046875 C 4.316406 -8.046875 4.882812 -7.941406 5.40625 -7.734375 C 5.925781 -7.535156 6.375 -7.253906 6.75 -6.890625 C 7.132812 -6.535156 7.4375 -6.113281 7.65625 -5.625 C 7.875 -5.132812 7.984375 -4.597656 7.984375 -4.015625 C 7.984375 -3.441406 7.875 -2.910156 7.65625 -2.421875 C 7.4375 -1.929688 7.132812 -1.503906 6.75 -1.140625 C 6.375 -0.785156 5.925781 -0.503906 5.40625 -0.296875 C 4.882812 -0.0976562 4.316406 0 3.703125 0 L 1.078125 0 Z M 3.703125 -0.78125 C 4.179688 -0.78125 4.628906 -0.859375 5.046875 -1.015625 C 5.460938 -1.179688 5.820312 -1.40625 6.125 -1.6875 C 6.425781 -1.976562 6.660156 -2.320312 6.828125 -2.71875 C 6.992188 -3.113281 7.078125 -3.546875 7.078125 -4.015625 C 7.078125 -4.492188 6.992188 -4.929688 6.828125 -5.328125 C 6.660156 -5.722656 6.425781 -6.0625 6.125 -6.34375 C 5.820312 -6.632812 5.460938 -6.859375 5.046875 -7.015625 C 4.628906 -7.179688 4.179688 -7.265625 3.703125 -7.265625 L 1.921875 -7.265625 L 1.921875 -0.78125 Z M 3.703125 -0.78125 "/></g></g></g><g fill="#000000" fill-opacity="1"><g transform="translate(167.049971, 229.771142)"><g><path d="M 1.078125 -8.046875 L 5.21875 -8.046875 L 5.21875 -7.265625 L 1.921875 -7.265625 L 1.921875 -4.5625 L 4.4375 -4.5625 L 4.4375 -3.78125 L 1.921875 -3.78125 L 1.921875 -0.78125 L 5.28125 -0.78125 L 5.28125 0 L 1.078125 0 Z M 1.078125 -8.046875 "/></g></g></g><g fill="#000000" fill-opacity="1"><g transform="translate(176.650117, 229.771142)"><g><path d="M 1.078125 -8.046875 L 3 -8.046875 C 3.394531 -8.046875 3.765625 -7.984375 4.109375 -7.859375 C 4.453125 -7.742188 4.742188 -7.582031 4.984375 -7.375 C 5.234375 -7.164062 5.425781 -6.914062 5.5625 -6.625 C 5.695312 -6.332031 5.765625 -6.015625 5.765625 -5.671875 C 5.765625 -5.390625 5.71875 -5.128906 5.625 -4.890625 C 5.539062 -4.648438 5.414062 -4.429688 5.25 -4.234375 C 5.09375 -4.035156 4.898438 -3.863281 4.671875 -3.71875 C 4.453125 -3.582031 4.210938 -3.476562 3.953125 -3.40625 L 6.234375 0 L 5.234375 0 L 3 -3.3125 L 1.921875 -3.3125 L 1.921875 0 L 1.078125 0 Z M 3 -4.09375 C 3.570312 -4.09375 4.035156 -4.234375 4.390625 -4.515625 C 4.742188 -4.804688 4.921875 -5.195312 4.921875 -5.6875 C 4.921875 -6.164062 4.742188 -6.546875 4.390625 -6.828125 C 4.035156 -7.117188 3.570312 -7.265625 3 -7.265625 L 1.921875 -7.265625 L 1.921875 -4.09375 Z M 3 -4.09375 "/></g></g></g><g fill="#000000" fill-opacity="1"><g transform="translate(186.970269, 229.771142)"><g><path d="M 3.015625 0.125 C 2.472656 0.125 1.96875 -0.00390625 1.5 -0.265625 C 1.039062 -0.523438 0.660156 -0.898438 0.359375 -1.390625 L 1.015625 -1.921875 C 1.566406 -1.066406 2.238281 -0.640625 3.03125 -0.640625 C 3.5 -0.640625 3.875 -0.769531 4.15625 -1.03125 C 4.445312 -1.289062 4.59375 -1.628906 4.59375 -2.046875 C 4.59375 -2.421875 4.460938 -2.738281 4.203125 -3 C 3.941406 -3.257812 3.523438 -3.507812 2.953125 -3.75 C 2.222656 -4.019531 1.695312 -4.34375 1.375 -4.71875 C 1.050781 -5.101562 0.890625 -5.554688 0.890625 -6.078125 C 0.890625 -6.390625 0.941406 -6.671875 1.046875 -6.921875 C 1.148438 -7.179688 1.296875 -7.398438 1.484375 -7.578125 C 1.679688 -7.765625 1.910156 -7.90625 2.171875 -8 C 2.441406 -8.101562 2.742188 -8.15625 3.078125 -8.15625 C 3.992188 -8.15625 4.753906 -7.75 5.359375 -6.9375 L 4.703125 -6.40625 C 4.460938 -6.738281 4.207031 -6.984375 3.9375 -7.140625 C 3.675781 -7.296875 3.382812 -7.375 3.0625 -7.375 C 2.65625 -7.375 2.332031 -7.257812 2.09375 -7.03125 C 1.851562 -6.8125 1.734375 -6.515625 1.734375 -6.140625 C 1.734375 -5.785156 1.851562 -5.476562 2.09375 -5.21875 C 2.332031 -4.96875 2.738281 -4.734375 3.3125 -4.515625 C 4.039062 -4.234375 4.578125 -3.894531 4.921875 -3.5 C 5.265625 -3.113281 5.4375 -2.65625 5.4375 -2.125 C 5.4375 -1.789062 5.375 -1.484375 5.25 -1.203125 C 5.132812 -0.929688 4.96875 -0.695312 4.75 -0.5 C 4.53125 -0.300781 4.273438 -0.144531 3.984375 -0.03125 C 3.691406 0.0703125 3.367188 0.125 3.015625 0.125 Z M 3.015625 0.125 "/></g></g></g><g fill="#000000" fill-opacity="1"><g transform="translate(196.606417, 229.771142)"><g><path d="M 1.078125 -8.046875 L 1.921875 -8.046875 L 1.921875 -4.4375 L 6.234375 -4.4375 L 6.234375 -8.046875 L 7.078125 -8.046875 L 7.078125 0 L 6.234375 0 L 6.234375 -3.65625 L 1.921875 -3.65625 L 1.921875 0 L 1.078125 0 Z M 1.078125 -8.046875 "/></g></g></g><g fill="#000000" fill-opacity="1"><g transform="translate(208.366565, 229.771142)"><g><path d="M 3.421875 -8.28125 L 3.65625 -8.28125 L 6.71875 0 L 5.796875 0 L 5.046875 -2.109375 L 1.984375 -2.109375 L 1.234375 0 L 0.359375 0 Z M 4.765625 -2.890625 L 3.515625 -6.375 L 2.265625 -2.890625 Z M 4.765625 -2.890625 "/></g></g></g><g fill="#000000" fill-opacity="1"><g transform="translate(219.046712, 229.771142)"><g><path d="M 1.890625 -6.25 L 1.890625 0 L 1.078125 0 L 1.078125 -8.28125 L 1.3125 -8.28125 L 6.75 -1.78125 L 6.75 -8.046875 L 7.5625 -8.046875 L 7.5625 0.234375 L 7.3125 0.234375 Z M 1.890625 -6.25 "/></g></g></g><g fill="#000000" fill-opacity="1"><g transform="translate(231.28686, 229.771142)"><g><path d="M 1.078125 -8.046875 L 5.21875 -8.046875 L 5.21875 -7.265625 L 1.921875 -7.265625 L 1.921875 -4.5625 L 4.4375 -4.5625 L 4.4375 -3.78125 L 1.921875 -3.78125 L 1.921875 -0.78125 L 5.28125 -0.78125 L 5.28125 0 L 1.078125 0 Z M 1.078125 -8.046875 "/></g></g></g><path stroke-linecap="butt" transform="matrix(0.75, 0, 0, 0.75, 108.99174, 193.026287)" fill="none" stroke-linejoin="miter" d="M 0.00059701 2.001409 L 232.271446 2.001409 " stroke="#000000" stroke-width="4" stroke-opacity="1" stroke-miterlimit="4"/></svg>