<svg xmlns="http://www.w3.org/2000/svg" xmlns:xlink="http://www.w3.org/1999/xlink" width="300" zoomAndPan="magnify" viewBox="0 0 224.87999 74.999997" height="100" preserveAspectRatio="xMidYMid meet" version="1.0"><defs><g/><clipPath id="ad3e3b5437"><path d="M 106.347656 0.0195312 L 150.574219 0.0195312 L 150.574219 45.746094 L 106.347656 45.746094 Z M 106.347656 0.0195312 " clip-rule="nonzero"/></clipPath></defs><g fill="#000000" fill-opacity="1"><g transform="translate(3.654577, 34.21003)"><g><path d="M 18.03125 -27.953125 L 18.03125 -22.375 L 8.40625 -22.375 L 8.40625 -16.8125 L 17.625 -16.8125 L 17.625 -11.21875 L 8.40625 -11.21875 L 8.40625 -5.59375 L 18.03125 -5.59375 L 18.03125 0 L 2.03125 0 L 2.03125 -27.953125 Z M 18.03125 -27.953125 "/></g></g></g><g fill="#000000" fill-opacity="1"><g transform="translate(20.671259, 34.21003)"><g/></g></g><g fill="#000000" fill-opacity="1"><g transform="translate(27.281185, 34.21003)"><g><path d="M 2.03125 -12.40625 L 12.953125 -12.40625 L 12.953125 -7.21875 L 2.03125 -7.21875 Z M 2.03125 -12.40625 "/></g></g></g><g fill="#000000" fill-opacity="1"><g transform="translate(39.619905, 34.21003)"><g/></g></g><g fill="#000000" fill-opacity="1"><g transform="translate(46.229831, 34.21003)"><g><path d="M 0.78125 -14 C 0.78125 -18.039062 2.15625 -21.460938 4.90625 -24.265625 C 7.664062 -27.066406 10.988281 -28.46875 14.875 -28.46875 C 18.78125 -28.46875 22.097656 -27.070312 24.828125 -24.28125 C 27.566406 -21.488281 28.9375 -18.0625 28.9375 -14 C 28.9375 -9.90625 27.59375 -6.460938 24.90625 -3.671875 C 22.21875 -0.878906 18.875 0.515625 14.875 0.515625 C 10.789062 0.515625 7.421875 -0.867188 4.765625 -3.640625 C 2.109375 -6.410156 0.78125 -9.863281 0.78125 -14 Z M 7.65625 -14 C 7.65625 -12.53125 7.878906 -11.191406 8.328125 -9.984375 C 8.785156 -8.773438 9.578125 -7.75 10.703125 -6.90625 C 11.835938 -6.070312 13.226562 -5.65625 14.875 -5.65625 C 17.25 -5.65625 19.039062 -6.46875 20.25 -8.09375 C 21.457031 -9.726562 22.0625 -11.695312 22.0625 -14 C 22.0625 -16.28125 21.445312 -18.238281 20.21875 -19.875 C 18.988281 -21.507812 17.207031 -22.328125 14.875 -22.328125 C 12.570312 -22.328125 10.789062 -21.507812 9.53125 -19.875 C 8.28125 -18.238281 7.65625 -16.28125 7.65625 -14 Z M 7.65625 -14 "/></g></g></g><g fill="#000000" fill-opacity="1"><g transform="translate(73.314277, 34.21003)"><g><path d="M 8.40625 -27.953125 L 8.40625 -5.59375 L 18.03125 -5.59375 L 18.03125 0 L 2.03125 0 L 2.03125 -27.953125 Z M 8.40625 -27.953125 "/></g></g></g><g fill="#000000" fill-opacity="1"><g transform="translate(89.822489, 34.21003)"><g><path d="M 8.40625 -27.953125 L 8.40625 0 L 2.03125 0 L 2.03125 -27.953125 Z M 8.40625 -27.953125 "/></g></g></g><g fill="#000000" fill-opacity="1"><g transform="translate(97.618854, 34.21003)"><g><path d="M 25.140625 0 L 23.828125 -16.578125 L 23.65625 -16.578125 L 17.921875 -0.171875 L 14.125 -0.171875 L 8.40625 -16.578125 L 8.234375 -16.578125 L 6.90625 0 L 0.546875 0 L 3.046875 -27.953125 L 9.828125 -27.953125 L 16.03125 -11.828125 L 22.234375 -27.953125 L 29.015625 -27.953125 L 31.515625 0 Z M 25.140625 0 "/></g></g></g><g fill="#000000" fill-opacity="1"><g transform="translate(127.04229, 34.21003)"><g><path d="M 2.03125 -27.953125 L 12.234375 -27.953125 C 15.078125 -27.953125 17.378906 -27.21875 19.140625 -25.75 C 20.910156 -24.28125 21.796875 -22.144531 21.796875 -19.34375 C 21.796875 -16.550781 20.898438 -14.359375 19.109375 -12.765625 C 17.328125 -11.171875 15.035156 -10.375 12.234375 -10.375 L 8.40625 -10.375 L 8.40625 0 L 2.03125 0 Z M 8.40625 -15.453125 L 10.203125 -15.453125 C 11.628906 -15.453125 12.796875 -15.738281 13.703125 -16.3125 C 14.617188 -16.894531 15.078125 -17.835938 15.078125 -19.140625 C 15.078125 -20.472656 14.617188 -21.425781 13.703125 -22 C 12.796875 -22.582031 11.628906 -22.875 10.203125 -22.875 L 8.40625 -22.875 Z M 8.40625 -15.453125 "/></g></g></g><g fill="#000000" fill-opacity="1"><g transform="translate(146.974222, 34.21003)"><g><path d="M 8.40625 -27.953125 L 8.40625 0 L 2.03125 0 L 2.03125 -27.953125 Z M 8.40625 -27.953125 "/></g></g></g><g fill="#000000" fill-opacity="1"><g transform="translate(154.770588, 34.21003)"><g><path d="M -1.015625 -27.953125 L 6.640625 -27.953125 L 12.46875 -19.015625 L 18.296875 -27.953125 L 25.953125 -27.953125 L 15.65625 -12.546875 L 15.65625 0 L 9.28125 0 L 9.28125 -12.546875 Z M -1.015625 -27.953125 "/></g></g></g><g fill="#000000" fill-opacity="1"><g transform="translate(177.075392, 34.21003)"><g><path d="M 16.234375 -27.953125 L 27.515625 0 L 20.671875 0 L 18.609375 -5.59375 L 7.96875 -5.59375 L 5.890625 0 L -0.953125 0 L 10.34375 -27.953125 Z M 16.4375 -11.1875 L 13.3125 -19.3125 L 13.25 -19.3125 L 10.140625 -11.1875 Z M 16.4375 -11.1875 "/></g></g></g><g fill="#000000" fill-opacity="1"><g transform="translate(201.007309, 34.21003)"><g><path d="M 0.265625 -22.375 L 0.265625 -27.953125 L 19.921875 -27.953125 L 19.921875 -22.375 L 13.28125 -22.375 L 13.28125 0 L 6.90625 0 L 6.90625 -22.375 Z M 0.265625 -22.375 "/></g></g></g><g clip-path="url(#ad3e3b5437)"><path fill="#e4e0d7" d="M 150.824219 22.503906 L 144.265625 22.503906 C 133.035156 20.074219 130.539062 17.566406 128.109375 6.324219 L 128.109375 0.0195312 L 127.28125 0.0195312 L 127.28125 6.390625 C 124.855469 17.578125 122.347656 20.078125 111.140625 22.503906 L 106.355469 22.503906 L 106.355469 23.332031 L 111.140625 23.332031 C 122.347656 25.757812 124.855469 28.257812 127.28125 39.445312 L 127.28125 45.699219 L 128.109375 45.699219 L 128.109375 39.511719 C 130.539062 28.269531 133.035156 25.761719 144.265625 23.332031 L 150.824219 23.332031 Z M 150.824219 22.503906 " fill-opacity="1" fill-rule="nonzero"/></g><g fill="#000000" fill-opacity="1"><g transform="translate(83.213131, 71.759992)"><g><path d="M 0.765625 -5.6875 L 2.625 -5.6875 C 3.0625 -5.6875 3.460938 -5.613281 3.828125 -5.46875 C 4.203125 -5.332031 4.519531 -5.132812 4.78125 -4.875 C 5.050781 -4.625 5.265625 -4.320312 5.421875 -3.96875 C 5.578125 -3.625 5.65625 -3.25 5.65625 -2.84375 C 5.65625 -2.4375 5.578125 -2.054688 5.421875 -1.703125 C 5.265625 -1.359375 5.050781 -1.0625 4.78125 -0.8125 C 4.519531 -0.5625 4.203125 -0.363281 3.828125 -0.21875 C 3.460938 -0.0703125 3.0625 0 2.625 0 L 0.765625 0 Z M 2.625 -0.546875 C 2.96875 -0.546875 3.285156 -0.601562 3.578125 -0.71875 C 3.867188 -0.832031 4.117188 -0.988281 4.328125 -1.1875 C 4.546875 -1.394531 4.710938 -1.640625 4.828125 -1.921875 C 4.953125 -2.203125 5.015625 -2.507812 5.015625 -2.84375 C 5.015625 -3.175781 4.953125 -3.484375 4.828125 -3.765625 C 4.710938 -4.046875 4.546875 -4.285156 4.328125 -4.484375 C 4.117188 -4.691406 3.867188 -4.851562 3.578125 -4.96875 C 3.285156 -5.082031 2.96875 -5.140625 2.625 -5.140625 L 1.359375 -5.140625 L 1.359375 -0.546875 Z M 2.625 -0.546875 "/></g></g></g><g fill="#000000" fill-opacity="1"><g transform="translate(91.848641, 71.759992)"><g><path d="M 0.765625 -5.6875 L 3.703125 -5.6875 L 3.703125 -5.140625 L 1.359375 -5.140625 L 1.359375 -3.234375 L 3.140625 -3.234375 L 3.140625 -2.671875 L 1.359375 -2.671875 L 1.359375 -0.546875 L 3.734375 -0.546875 L 3.734375 0 L 0.765625 0 Z M 0.765625 -5.6875 "/></g></g></g><g fill="#000000" fill-opacity="1"><g transform="translate(98.654975, 71.759992)"><g><path d="M 0.765625 -5.6875 L 2.125 -5.6875 C 2.40625 -5.6875 2.664062 -5.644531 2.90625 -5.5625 C 3.144531 -5.488281 3.351562 -5.375 3.53125 -5.21875 C 3.707031 -5.070312 3.84375 -4.894531 3.9375 -4.6875 C 4.03125 -4.488281 4.078125 -4.265625 4.078125 -4.015625 C 4.078125 -3.816406 4.046875 -3.628906 3.984375 -3.453125 C 3.921875 -3.285156 3.832031 -3.128906 3.71875 -2.984375 C 3.601562 -2.847656 3.46875 -2.726562 3.3125 -2.625 C 3.15625 -2.53125 2.984375 -2.457031 2.796875 -2.40625 L 4.421875 0 L 3.703125 0 L 2.125 -2.34375 L 1.359375 -2.34375 L 1.359375 0 L 0.765625 0 Z M 2.125 -2.90625 C 2.53125 -2.90625 2.859375 -3.003906 3.109375 -3.203125 C 3.359375 -3.410156 3.484375 -3.6875 3.484375 -4.03125 C 3.484375 -4.363281 3.359375 -4.628906 3.109375 -4.828125 C 2.859375 -5.035156 2.53125 -5.140625 2.125 -5.140625 L 1.359375 -5.140625 L 1.359375 -2.90625 Z M 2.125 -2.90625 "/></g></g></g><g fill="#000000" fill-opacity="1"><g transform="translate(105.971781, 71.759992)"><g><path d="M 2.140625 0.078125 C 1.753906 0.078125 1.394531 -0.0078125 1.0625 -0.1875 C 0.738281 -0.375 0.46875 -0.640625 0.25 -0.984375 L 0.71875 -1.359375 C 1.113281 -0.753906 1.585938 -0.453125 2.140625 -0.453125 C 2.472656 -0.453125 2.738281 -0.539062 2.9375 -0.71875 C 3.144531 -0.90625 3.25 -1.148438 3.25 -1.453125 C 3.25 -1.710938 3.15625 -1.9375 2.96875 -2.125 C 2.789062 -2.3125 2.5 -2.488281 2.09375 -2.65625 C 1.570312 -2.851562 1.195312 -3.082031 0.96875 -3.34375 C 0.738281 -3.613281 0.625 -3.929688 0.625 -4.296875 C 0.625 -4.515625 0.660156 -4.710938 0.734375 -4.890625 C 0.804688 -5.078125 0.910156 -5.234375 1.046875 -5.359375 C 1.191406 -5.492188 1.359375 -5.597656 1.546875 -5.671875 C 1.734375 -5.742188 1.941406 -5.78125 2.171875 -5.78125 C 2.828125 -5.78125 3.367188 -5.488281 3.796875 -4.90625 L 3.328125 -4.53125 C 3.160156 -4.769531 2.976562 -4.945312 2.78125 -5.0625 C 2.59375 -5.175781 2.390625 -5.234375 2.171875 -5.234375 C 1.878906 -5.234375 1.644531 -5.148438 1.46875 -4.984375 C 1.300781 -4.828125 1.21875 -4.617188 1.21875 -4.359375 C 1.21875 -4.097656 1.304688 -3.878906 1.484375 -3.703125 C 1.660156 -3.523438 1.945312 -3.359375 2.34375 -3.203125 C 2.863281 -3.003906 3.242188 -2.765625 3.484375 -2.484375 C 3.722656 -2.210938 3.84375 -1.882812 3.84375 -1.5 C 3.84375 -1.269531 3.800781 -1.054688 3.71875 -0.859375 C 3.632812 -0.660156 3.515625 -0.488281 3.359375 -0.34375 C 3.210938 -0.207031 3.03125 -0.101562 2.8125 -0.03125 C 2.601562 0.0390625 2.378906 0.078125 2.140625 0.078125 Z M 2.140625 0.078125 "/></g></g></g><g fill="#000000" fill-opacity="1"><g transform="translate(112.803639, 71.759992)"><g><path d="M 0.765625 -5.6875 L 1.359375 -5.6875 L 1.359375 -3.140625 L 4.421875 -3.140625 L 4.421875 -5.6875 L 5.015625 -5.6875 L 5.015625 0 L 4.421875 0 L 4.421875 -2.59375 L 1.359375 -2.59375 L 1.359375 0 L 0.765625 0 Z M 0.765625 -5.6875 "/></g></g></g><g fill="#000000" fill-opacity="1"><g transform="translate(121.141377, 71.759992)"><g><path d="M 2.421875 -5.859375 L 2.59375 -5.859375 L 4.765625 0 L 4.109375 0 L 3.5625 -1.5 L 1.40625 -1.5 L 0.875 0 L 0.25 0 Z M 3.375 -2.046875 L 2.484375 -4.515625 L 1.609375 -2.046875 Z M 3.375 -2.046875 "/></g></g></g><g fill="#000000" fill-opacity="1"><g transform="translate(128.713412, 71.759992)"><g><path d="M 1.34375 -4.421875 L 1.34375 0 L 0.765625 0 L 0.765625 -5.859375 L 0.9375 -5.859375 L 4.78125 -1.265625 L 4.78125 -5.6875 L 5.359375 -5.6875 L 5.359375 0.171875 L 5.1875 0.171875 Z M 1.34375 -4.421875 "/></g></g></g><g fill="#000000" fill-opacity="1"><g transform="translate(137.39146, 71.759992)"><g><path d="M 0.765625 -5.6875 L 3.703125 -5.6875 L 3.703125 -5.140625 L 1.359375 -5.140625 L 1.359375 -3.234375 L 3.140625 -3.234375 L 3.140625 -2.671875 L 1.359375 -2.671875 L 1.359375 -0.546875 L 3.734375 -0.546875 L 3.734375 0 L 0.765625 0 Z M 0.765625 -5.6875 "/></g></g></g><path stroke-linecap="butt" transform="matrix(0.7496, 0, 0, 0.7496, 50.686381, 45.64761)" fill="none" stroke-linejoin="miter" d="M 0.00149244 1.501905 L 164.766465 1.501905 " stroke="#000000" stroke-width="3" stroke-opacity="1" stroke-miterlimit="4"/></svg>