<?xml version="1.0" encoding="UTF-8"?>
<!DOCTYPE svg PUBLIC "-//W3C//DTD SVG 1.1//EN" "http://www.w3.org/Graphics/SVG/1.1/DTD/svg11.dtd">
<svg xmlns="http://www.w3.org/2000/svg" version="1.1" width="1025px" height="555px" style="shape-rendering:geometricPrecision; text-rendering:geometricPrecision; image-rendering:optimizeQuality; fill-rule:evenodd; clip-rule:evenodd" xmlns:xlink="http://www.w3.org/1999/xlink">
<g><path style="opacity:1" fill="#fcfbfb" d="M -0.5,-0.5 C 341.167,-0.5 682.833,-0.5 1024.5,-0.5C 1024.5,184.5 1024.5,369.5 1024.5,554.5C 682.833,554.5 341.167,554.5 -0.5,554.5C -0.5,369.5 -0.5,184.5 -0.5,-0.5 Z"/></g>
<g><path style="opacity:1" fill="#ea6a7b" d="M 743.5,67.5 C 743.5,65.1667 743.5,62.8333 743.5,60.5C 743.933,57.8045 745.266,55.6379 747.5,54C 750.57,53.2266 753.403,52.06 756,50.5C 764.957,52.0937 767.957,57.0937 765,65.5C 760.622,72.1941 754.455,74.3607 746.5,72C 744.859,70.871 743.859,69.371 743.5,67.5 Z"/></g>
<g><path style="opacity:1" fill="#f8c6d0" d="M 740.5,60.5 C 741.222,60.9175 741.722,61.5842 742,62.5C 742.278,61.5842 742.778,60.9175 743.5,60.5C 743.5,62.8333 743.5,65.1667 743.5,67.5C 742.5,66.1667 741.5,66.1667 740.5,67.5C 740.5,65.1667 740.5,62.8333 740.5,60.5 Z"/></g>
<g><path style="opacity:1" fill="#fce7ec" d="M 755.5,56.5 C 759.099,55.9376 761.099,57.4376 761.5,61C 759.742,65.5733 756.409,67.4066 751.5,66.5C 750.574,62.0704 751.907,58.7371 755.5,56.5 Z"/></g>
<g><path style="opacity:1" fill="#ea697b" d="M 740.5,60.5 C 740.5,62.8333 740.5,65.1667 740.5,67.5C 737.54,74.8029 732.206,78.3029 724.5,78C 723.299,77.0975 722.465,75.9308 722,74.5C 721.133,70.0442 721.466,65.7109 723,61.5C 725.209,59.2936 727.709,58.9602 730.5,60.5C 730.73,64.1541 731.063,67.8208 731.5,71.5C 735.171,68.7168 736.338,65.0501 735,60.5C 733.556,58.8446 731.722,58.178 729.5,58.5C 729.5,57.1667 729.5,55.8333 729.5,54.5C 734.852,53.6716 738.519,55.6716 740.5,60.5 Z"/></g>
<g><path style="opacity:1" fill="#e36e7d" d="M 692.5,81.5 C 692.905,77.9521 692.405,74.6188 691,71.5C 690.503,74.146 690.336,76.8127 690.5,79.5C 689.5,79.5 688.5,79.5 687.5,79.5C 690.765,74.925 689.598,71.925 684,70.5C 683.51,69.2068 683.343,67.8734 683.5,66.5C 689.311,66.9849 692.978,69.9849 694.5,75.5C 694.401,77.7986 693.734,79.7986 692.5,81.5 Z"/></g>
<g><path style="opacity:1" fill="#f15f73" d="M 684.5,80.5 C 685.391,79.8902 686.391,79.5569 687.5,79.5C 688.5,79.5 689.5,79.5 690.5,79.5C 690.336,76.8127 690.503,74.146 691,71.5C 692.405,74.6188 692.905,77.9521 692.5,81.5C 691.564,82.9744 690.23,83.9744 688.5,84.5C 684.164,85.6339 679.831,85.6339 675.5,84.5C 671.626,79.7336 671.626,74.9002 675.5,70C 676.793,69.51 678.127,69.3433 679.5,69.5C 678.717,73.1458 678.55,76.8125 679,80.5C 680.943,81.807 682.777,81.807 684.5,80.5 Z"/></g>
<g><path style="opacity:1" fill="#ee6578" d="M 648.5,71.5 C 651.85,71.335 655.183,71.5017 658.5,72C 663.224,74.4353 664.724,78.2686 663,83.5C 656.75,92.7559 650.417,92.7559 644,83.5C 643.269,78.7093 644.769,74.7093 648.5,71.5 Z"/></g>
<g><path style="opacity:1" fill="#e27786" d="M 714.5,72.5 C 716.426,74.2685 717.76,76.4352 718.5,79C 718.095,82.7394 716.095,84.0727 712.5,83C 707.565,78.2701 704.398,72.7701 703,66.5C 704.741,63.795 706.241,60.9617 707.5,58C 709.701,57.1751 711.534,57.6751 713,59.5C 714.29,63.7305 714.79,68.0638 714.5,72.5 Z"/></g>
<g><path style="opacity:1" fill="#f45d72" d="M 714.5,72.5 C 715.406,75.4359 716.072,78.4359 716.5,81.5C 714.278,81.822 712.444,81.1554 711,79.5C 707.124,73.6643 705.958,67.3309 707.5,60.5C 708.768,59.5721 710.101,59.4054 711.5,60C 711.943,64.4099 712.943,68.5766 714.5,72.5 Z"/></g>
<g><path style="opacity:1" fill="#e48f9b" d="M 631.5,78.5 C 628.833,75.8333 626.167,75.8333 623.5,78.5C 624.128,75.0451 626.128,73.8785 629.5,75C 630.823,75.8159 631.489,76.9826 631.5,78.5 Z"/></g>
<g><path style="opacity:1" fill="#ee6578" d="M 631.5,78.5 C 632.041,84.3747 633.207,90.0413 635,95.5C 631.351,99.5984 628.018,99.2651 625,94.5C 624.023,92.26 623.523,89.9267 623.5,87.5C 621.5,87.5 619.5,87.5 617.5,87.5C 617.238,86.0222 617.571,84.6888 618.5,83.5C 620.57,82.0971 622.237,80.4304 623.5,78.5C 626.167,75.8333 628.833,75.8333 631.5,78.5 Z"/></g>
<g><path style="opacity:1" fill="#fbebf0" d="M 653.5,76.5 C 654.833,76.5 656.167,76.5 657.5,76.5C 657.662,78.5273 657.495,80.5273 657,82.5C 655.644,83.3802 654.144,83.7135 652.5,83.5C 652.298,81.0504 652.631,78.717 653.5,76.5 Z"/></g>
<g><path style="opacity:1" fill="#e37786" d="M 684.5,80.5 C 682.777,81.807 680.943,81.807 679,80.5C 678.55,76.8125 678.717,73.1458 679.5,69.5C 678.127,69.3433 676.793,69.51 675.5,70C 671.626,74.9002 671.626,79.7336 675.5,84.5C 679.831,85.6339 684.164,85.6339 688.5,84.5C 682.769,88.7651 677.269,88.4318 672,83.5C 671.333,79.8333 671.333,76.1667 672,72.5C 674.683,66.6881 677.849,66.1881 681.5,71C 680.633,74.1052 680.299,77.2719 680.5,80.5C 681.833,80.5 683.167,80.5 684.5,80.5 Z"/></g>
<g><path style="opacity:1" fill="#f45d72" d="M 575.5,92.5 C 575.307,96.2485 576.307,99.5818 578.5,102.5C 578.5,104.167 578.5,105.833 578.5,107.5C 572.167,108.5 569.5,105.833 570.5,99.5C 569.127,99.6567 567.793,99.49 566.5,99C 567.967,97.9025 568.801,96.4025 569,94.5C 570.459,91.4084 572.626,90.7417 575.5,92.5 Z"/></g>
<g><path style="opacity:1" fill="#eb6679" d="M 598.5,85.5 C 604.526,87.2085 606.693,91.2085 605,97.5C 601.34,101.367 596.84,102.534 591.5,101C 587.545,96.5367 587.545,92.0367 591.5,87.5C 593.969,86.8319 596.302,86.1653 598.5,85.5 Z"/></g>
<g><path style="opacity:1" fill="#fed3dd" d="M 597.5,91.5 C 598.5,91.5 599.5,91.5 600.5,91.5C 600.884,93.6648 600.217,95.3315 598.5,96.5C 597.548,94.9547 597.215,93.288 597.5,91.5 Z"/></g>
<g><path style="opacity:1" fill="#df7281" d="M 575.5,92.5 C 572.626,90.7417 570.459,91.4084 569,94.5C 568.801,96.4025 567.967,97.9025 566.5,99C 567.793,99.49 569.127,99.6567 570.5,99.5C 569.5,105.833 572.167,108.5 578.5,107.5C 578.5,105.833 578.5,104.167 578.5,102.5C 580.377,103.659 580.877,105.326 580,107.5C 573.442,111.15 569.608,109.15 568.5,101.5C 559.911,102.224 559.411,100.224 567,95.5C 568.254,88.9875 571.088,87.9875 575.5,92.5 Z"/></g>
<g><path style="opacity:1" fill="#f1aab5" d="M 500.5,108.5 C 490.758,108.245 481.092,108.911 471.5,110.5C 472.93,109.463 474.597,108.796 476.5,108.5C 484.648,107.285 492.648,107.285 500.5,108.5 Z"/></g>
<g><path style="opacity:1" fill="#e07483" d="M 730.5,109.5 C 722.829,109.32 715.163,108.987 707.5,108.5C 697.382,108.845 687.382,109.845 677.5,111.5C 680.503,109.738 683.837,108.572 687.5,108C 702.069,105.775 716.402,106.275 730.5,109.5 Z"/></g>
<g><path style="opacity:1" fill="#fde2e7" d="M 521.5,111.5 C 520.167,111.5 518.833,111.5 517.5,111.5C 512.203,109.126 506.537,108.126 500.5,108.5C 492.648,107.285 484.648,107.285 476.5,108.5C 476.918,107.778 477.584,107.278 478.5,107C 492.246,106.142 505.912,106.809 519.5,109C 519.167,109.333 518.833,109.667 518.5,110C 519.737,110.232 520.737,110.732 521.5,111.5 Z"/></g>
<g><path style="opacity:1" fill="#f16175" d="M 730.5,109.5 C 762.605,117.763 785.438,137.097 799,167.5C 813.68,212.779 802.847,250.612 766.5,281C 756.038,288.398 744.704,293.898 732.5,297.5C 731.833,297.5 731.167,297.5 730.5,297.5C 721.206,298.604 711.873,299.27 702.5,299.5C 693.639,299.804 684.972,298.804 676.5,296.5C 649.146,288.485 629.48,271.485 617.5,245.5C 616.579,240.986 615.079,236.652 613,232.5C 610.688,222.981 614.188,219.314 623.5,221.5C 624.117,221.611 624.617,221.944 625,222.5C 626.76,229.356 629.093,236.022 632,242.5C 635.522,248.223 639.022,253.889 642.5,259.5C 644.833,263.833 648.167,267.167 652.5,269.5C 664.33,280.748 678.33,287.748 694.5,290.5C 699.077,291.99 703.91,292.656 709,292.5C 717.419,292.4 725.586,291.4 733.5,289.5C 759.715,281.285 778.381,264.618 789.5,239.5C 791.081,237.326 792.581,234.993 794,232.5C 795.491,225.238 796.324,217.905 796.5,210.5C 797.455,174.572 782.788,147.072 752.5,128C 744.354,123.428 735.687,120.261 726.5,118.5C 725.391,117.71 724.058,117.21 722.5,117C 714.167,116.333 705.833,116.333 697.5,117C 693.867,117.149 690.534,117.982 687.5,119.5C 682.411,119.771 677.744,121.271 673.5,124C 651.81,135.511 636.81,152.678 628.5,175.5C 626.232,182.582 624.565,189.916 623.5,197.5C 621.961,200.106 619.628,201.439 616.5,201.5C 613.898,201.533 611.898,200.533 610.5,198.5C 608.795,191.807 609.628,185.473 613,179.5C 613.642,175.509 614.142,171.509 614.5,167.5C 626.74,138.924 647.74,120.257 677.5,111.5C 687.382,109.845 697.382,108.845 707.5,108.5C 715.163,108.987 722.829,109.32 730.5,109.5 Z"/></g>
<g><path style="opacity:1" fill="#e46879" d="M 500.5,108.5 C 506.537,108.126 512.203,109.126 517.5,111.5C 503.848,110.495 490.181,110.329 476.5,111C 466.443,113.329 456.443,116.162 446.5,119.5C 448.7,117.36 451.367,115.86 454.5,115C 459.983,112.783 465.649,111.283 471.5,110.5C 481.092,108.911 490.758,108.245 500.5,108.5 Z"/></g>
<g><path style="opacity:1" fill="#f26175" d="M 517.5,111.5 C 518.833,111.5 520.167,111.5 521.5,111.5C 550.659,121.162 571.826,139.829 585,167.5C 585.49,168.793 585.657,170.127 585.5,171.5C 585.965,176.655 587.131,181.655 589,186.5C 589.498,189.817 589.665,193.15 589.5,196.5C 586.762,199.3 584.262,198.966 582,195.5C 576.888,161.563 558.722,137.563 527.5,123.5C 525.636,121.782 523.303,120.615 520.5,120C 515.292,118.325 509.959,117.492 504.5,117.5C 489.66,115.792 475.66,118.125 462.5,124.5C 436.001,137.177 419.168,157.844 412,186.5C 410.385,187.386 408.885,188.386 407.5,189.5C 405.5,189.5 403.5,189.5 401.5,189.5C 397.572,186.894 396.072,183.227 397,178.5C 400.794,165.235 407.294,153.569 416.5,143.5C 420.452,140.215 424.119,136.548 427.5,132.5C 431.686,128.153 436.353,124.32 441.5,121C 443.154,120.392 444.821,119.892 446.5,119.5C 456.443,116.162 466.443,113.329 476.5,111C 490.181,110.329 503.848,110.495 517.5,111.5 Z"/></g>
<g><path style="opacity:1" fill="#e9687a" d="M 543.5,96.5 C 549.531,97.3492 552.365,100.683 552,106.5C 547.629,114.86 541.629,116.527 534,111.5C 533.333,107.5 533.333,103.5 534,99.5C 536.418,97.3199 539.084,96.9865 542,98.5C 542.717,97.9558 543.217,97.2891 543.5,96.5 Z"/></g>
<g><path style="opacity:1" fill="#feeaef" d="M 542.5,100.5 C 547.616,101.192 548.616,103.526 545.5,107.5C 544.675,108.386 543.675,108.719 542.5,108.5C 542.5,105.833 542.5,103.167 542.5,100.5 Z"/></g>
<g><path style="opacity:1" fill="#e17a88" d="M 504.5,117.5 C 509.959,117.492 515.292,118.325 520.5,120C 523.303,120.615 525.636,121.782 527.5,123.5C 521.946,121.762 516.28,120.428 510.5,119.5C 508.5,118.833 506.5,118.167 504.5,117.5 Z"/></g>
<g><path style="opacity:1" fill="#fddbe1" d="M 726.5,118.5 C 713.47,118.244 700.47,118.577 687.5,119.5C 690.534,117.982 693.867,117.149 697.5,117C 705.833,116.333 714.167,116.333 722.5,117C 724.058,117.21 725.391,117.71 726.5,118.5 Z"/></g>
<g><path style="opacity:1" fill="#fdd8df" d="M 504.5,117.5 C 506.5,118.167 508.5,118.833 510.5,119.5C 500.494,119.334 490.494,119.5 480.5,120C 474.526,121.603 468.526,123.103 462.5,124.5C 475.66,118.125 489.66,115.792 504.5,117.5 Z"/></g>
<g><path style="opacity:1" fill="#e38593" d="M 277.5,118.5 C 270.825,118.334 264.158,118.5 257.5,119C 245.516,120.746 233.849,123.58 222.5,127.5C 239.904,118.988 258.237,115.988 277.5,118.5 Z"/></g>
<g><path style="opacity:1" fill="#fcfafa" d="M 726.5,118.5 C 735.687,120.261 744.354,123.428 752.5,128C 782.788,147.072 797.455,174.572 796.5,210.5C 795.137,220.3 792.804,229.967 789.5,239.5C 778.381,264.618 759.715,281.285 733.5,289.5C 720.516,290.299 707.516,290.633 694.5,290.5C 678.33,287.748 664.33,280.748 652.5,269.5C 649.5,265.833 646.167,262.5 642.5,259.5C 639.022,253.889 635.522,248.223 632,242.5C 629.093,236.022 626.76,229.356 625,222.5C 624.617,221.944 624.117,221.611 623.5,221.5C 614.616,217.526 610.449,220.526 611,230.5C 612.685,235.854 614.851,240.854 617.5,245.5C 629.48,271.485 649.146,288.485 676.5,296.5C 677.842,297.793 679.509,298.626 681.5,299C 698.095,302.579 714.428,302.079 730.5,297.5C 731.167,297.5 731.833,297.5 732.5,297.5C 732.389,298.117 732.056,298.617 731.5,299C 727.789,299.844 724.123,300.844 720.5,302C 710.991,302.17 701.658,302.67 692.5,303.5C 689.956,303.104 687.789,303.771 686,305.5C 683.909,330.586 673.409,351.419 654.5,368C 646.74,374.207 638.407,379.374 629.5,383.5C 625.227,384.465 620.894,385.131 616.5,385.5C 606.494,385.666 596.494,385.5 586.5,385C 581.746,383.111 576.746,382.278 571.5,382.5C 539.07,369.076 520.07,345.076 514.5,310.5C 514.334,304.824 514.501,299.157 515,293.5C 515.601,291.641 516.434,291.308 517.5,292.5C 517.286,294.144 517.62,295.644 518.5,297C 530.679,295.269 541.679,290.602 551.5,283C 563.557,273.785 573.224,262.619 580.5,249.5C 581.315,248.571 582.148,247.571 583,246.5C 584.607,241.012 586.607,235.678 589,230.5C 589.811,226.504 590.144,222.504 590,218.5C 587.333,215.833 584.667,215.833 582,218.5C 579.726,228.821 576.559,238.821 572.5,248.5C 565.464,259.043 557.13,268.543 547.5,277C 540.191,282.488 532.191,286.655 523.5,289.5C 521.409,289.318 519.409,289.652 517.5,290.5C 517.167,288.5 516.833,286.5 516.5,284.5C 516.751,280.087 517.418,275.754 518.5,271.5C 520.144,265.204 522.644,259.204 526,253.5C 536.32,237.34 550.153,225.34 567.5,217.5C 579.001,212.808 591.001,210.808 603.5,211.5C 605.5,211.5 607.5,211.5 609.5,211.5C 616.732,213.59 624.065,215.59 631.5,217.5C 659.011,230.335 676.678,251.335 684.5,280.5C 684.817,287.633 687.984,289.3 694,285.5C 694.391,279.742 693.225,274.408 690.5,269.5C 682.071,242.732 665.071,223.398 639.5,211.5C 635.814,209.205 631.814,207.372 627.5,206C 620.949,204.092 614.282,202.925 607.5,202.5C 599.344,201.343 591.01,201.177 582.5,202C 579.543,202.279 576.877,203.113 574.5,204.5C 570.353,204.126 566.686,205.126 563.5,207.5C 554.362,209.422 546.362,213.422 539.5,219.5C 522.996,229.993 511.33,244.327 504.5,262.5C 500.265,269.833 497.932,277.833 497.5,286.5C 496.51,292.31 496.177,298.31 496.5,304.5C 495.835,302.631 495.169,300.631 494.5,298.5C 493.859,299.993 492.859,300.993 491.5,301.5C 487.5,302.833 483.5,304.167 479.5,305.5C 476.949,304.051 474.615,304.385 472.5,306.5C 465.262,334.775 448.596,355.609 422.5,369C 416.979,371.071 411.312,372.571 405.5,373.5C 391.443,373.794 377.443,373.128 363.5,371.5C 336.511,362.682 317.678,345.016 307,318.5C 294.694,281.015 302.861,248.849 331.5,222C 336.463,217.858 341.796,214.358 347.5,211.5C 349.044,211.297 350.378,210.63 351.5,209.5C 352.192,210.025 352.692,210.692 353,211.5C 353.499,216.489 353.666,221.489 353.5,226.5C 353.092,231.537 352.426,236.537 351.5,241.5C 344.345,263.656 330.678,280.489 310.5,292C 304.591,297.057 305.257,299.724 312.5,300C 340.577,285.002 357.244,261.835 362.5,230.5C 363.451,229.081 363.784,227.415 363.5,225.5C 364.33,216.676 364.83,207.676 365,198.5C 366.509,200.881 368.675,201.881 371.5,201.5C 380.477,200.617 389.477,200.284 398.5,200.5C 433.855,206.934 458.021,226.934 471,260.5C 472.803,268.734 473.803,277.067 474,285.5C 475.92,288.438 478.42,289.105 481.5,287.5C 483.383,267.364 478.55,249.031 467,232.5C 451.098,210.635 429.932,196.969 403.5,191.5C 404.833,190.833 406.167,190.167 407.5,189.5C 408.885,188.386 410.385,187.386 412,186.5C 419.168,157.844 436.001,137.177 462.5,124.5C 468.526,123.103 474.526,121.603 480.5,120C 490.494,119.5 500.494,119.334 510.5,119.5C 516.28,120.428 521.946,121.762 527.5,123.5C 558.722,137.563 576.888,161.563 582,195.5C 584.262,198.966 586.762,199.3 589.5,196.5C 590.167,196.167 590.833,195.833 591.5,195.5C 591.141,197.371 590.141,198.871 588.5,200C 595.158,200.5 601.825,200.666 608.5,200.5C 608.5,199.167 608.5,197.833 608.5,196.5C 609.167,197.167 609.833,197.833 610.5,198.5C 611.898,200.533 613.898,201.533 616.5,201.5C 619.628,201.439 621.961,200.106 623.5,197.5C 624.931,197.119 625.764,196.119 626,194.5C 626.857,188.14 627.691,181.807 628.5,175.5C 636.81,152.678 651.81,135.511 673.5,124C 677.744,121.271 682.411,119.771 687.5,119.5C 700.47,118.577 713.47,118.244 726.5,118.5 Z"/></g>
<g><path style="opacity:1" fill="#f26175" d="M 277.5,118.5 C 292.588,120.269 306.588,125.103 319.5,133C 324.23,136.029 328.563,139.529 332.5,143.5C 332.5,144.833 332.5,146.167 332.5,147.5C 333.552,147.351 334.552,147.517 335.5,148C 338.828,152.153 342.494,155.987 346.5,159.5C 352.603,166.372 356.603,174.372 358.5,183.5C 362.119,198.817 363.452,214.483 362.5,230.5C 357.244,261.835 340.577,285.002 312.5,300C 305.257,299.724 304.591,297.057 310.5,292C 330.678,280.489 344.345,263.656 351.5,241.5C 352.966,240.653 353.8,239.32 354,237.5C 355.566,226.024 355.733,214.69 354.5,203.5C 354.145,199.21 353.145,195.21 351.5,191.5C 342.608,163.603 324.608,143.937 297.5,132.5C 290.192,128.103 282.192,126.436 273.5,127.5C 267.491,127.334 261.491,127.501 255.5,128C 251.242,128.756 247.242,129.923 243.5,131.5C 219.328,139.831 201.495,155.498 190,178.5C 188.183,183.77 186.683,189.103 185.5,194.5C 183.982,197.534 183.149,200.867 183,204.5C 182.179,211.679 182.345,218.679 183.5,225.5C 188.457,261.405 207.79,286.071 241.5,299.5C 242.981,301.247 244.981,302.414 247.5,303C 259.024,305.147 270.691,305.981 282.5,305.5C 282.5,306.833 282.5,308.167 282.5,309.5C 271.179,310.426 259.846,310.593 248.5,310C 243.936,308.525 239.27,307.692 234.5,307.5C 213.68,301.193 196.847,289.193 184,271.5C 179.248,263.985 175.082,256.319 171.5,248.5C 170.292,243.542 169.292,238.542 168.5,233.5C 168.444,227.155 168.11,220.821 167.5,214.5C 168.61,205.506 169.61,196.506 170.5,187.5C 173.769,174.87 179.602,163.537 188,153.5C 197.696,142.286 209.196,133.619 222.5,127.5C 233.849,123.58 245.516,120.746 257.5,119C 264.158,118.5 270.825,118.334 277.5,118.5 Z"/></g>
<g><path style="opacity:1" fill="#de7684" d="M 273.5,128.5 C 273.5,128.167 273.5,127.833 273.5,127.5C 282.192,126.436 290.192,128.103 297.5,132.5C 289.691,130.146 281.691,128.813 273.5,128.5 Z"/></g>
<g><path style="opacity:1" fill="#f7cbd3" d="M 273.5,127.5 C 273.5,127.833 273.5,128.167 273.5,128.5C 267.824,128.334 262.157,128.501 256.5,129C 252.272,130.412 247.939,131.246 243.5,131.5C 247.242,129.923 251.242,128.756 255.5,128C 261.491,127.501 267.491,127.334 273.5,127.5 Z"/></g>
<g><path style="opacity:1" fill="#f35e73" d="M 387.5,149.5 C 390.167,151.5 390.167,153.5 387.5,155.5C 385.064,155.683 382.897,155.016 381,153.5C 380.326,150.74 379.493,148.073 378.5,145.5C 377.022,145.762 375.689,145.429 374.5,144.5C 376.149,142.35 377.982,140.35 380,138.5C 380.483,137.552 380.649,136.552 380.5,135.5C 381.833,135.5 383.167,135.5 384.5,135.5C 384.999,139.49 385.499,143.49 386,147.5C 386.278,148.416 386.778,149.082 387.5,149.5 Z"/></g>
<g><path style="opacity:1" fill="#e58a96" d="M 427.5,132.5 C 424.119,136.548 420.452,140.215 416.5,143.5C 419.188,138.812 422.855,135.145 427.5,132.5 Z"/></g>
<g><path style="opacity:1" fill="#e37f8e" d="M 387.5,149.5 C 386.778,149.082 386.278,148.416 386,147.5C 385.499,143.49 384.999,139.49 384.5,135.5C 383.167,135.5 381.833,135.5 380.5,135.5C 380.649,136.552 380.483,137.552 380,138.5C 377.982,140.35 376.149,142.35 374.5,144.5C 375.689,145.429 377.022,145.762 378.5,145.5C 379.493,148.073 380.326,150.74 381,153.5C 382.897,155.016 385.064,155.683 387.5,155.5C 385.712,156.622 383.712,156.789 381.5,156C 379.485,153.135 378.152,149.968 377.5,146.5C 376.167,146.5 374.833,146.5 373.5,146.5C 373.343,145.127 373.51,143.793 374,142.5C 376.77,140.399 378.77,137.732 380,134.5C 381.726,133.424 383.559,133.257 385.5,134C 387.118,139.004 387.785,144.171 387.5,149.5 Z"/></g>
<g><path style="opacity:1" fill="#e9697b" d="M 352.5,142.5 C 357.677,141.703 362.177,143.036 366,146.5C 365.759,156.059 360.926,159.392 351.5,156.5C 348.607,151.548 348.941,146.881 352.5,142.5 Z"/></g>
<g><path style="opacity:1" fill="#e47383" d="M 394.5,149.5 C 389.189,144.788 389.189,139.955 394.5,135C 406.102,131.641 409.935,135.807 406,147.5C 402.547,150.604 398.713,151.27 394.5,149.5 Z"/></g>
<g><path style="opacity:1" fill="#fbb6c1" d="M 399.5,145.5 C 399.5,143.5 399.5,141.5 399.5,139.5C 400.5,139.5 401.5,139.5 402.5,139.5C 402.5,141.5 402.5,143.5 402.5,145.5C 401.5,145.5 400.5,145.5 399.5,145.5 Z"/></g>
<g><path style="opacity:1" fill="#f25e73" d="M 399.5,145.5 C 400.718,146.161 402.051,146.828 403.5,147.5C 400.807,149.27 397.807,149.937 394.5,149.5C 389.628,138.875 392.961,134.375 404.5,136C 405.602,138.401 405.769,140.901 405,143.5C 404.997,139.118 402.831,137.451 398.5,138.5C 398.198,141.059 398.532,143.393 399.5,145.5 Z"/></g>
<g><path style="opacity:1" fill="#fbc2ce" d="M 357.5,147.5 C 362.34,148.188 362.673,149.855 358.5,152.5C 357.548,150.955 357.215,149.288 357.5,147.5 Z"/></g>
<g><path style="opacity:1" fill="#e37887" d="M 332.5,143.5 C 338.278,147.94 342.945,153.273 346.5,159.5C 342.494,155.987 338.828,152.153 335.5,148C 334.552,147.517 333.552,147.351 332.5,147.5C 332.5,146.167 332.5,144.833 332.5,143.5 Z"/></g>
<g><path style="opacity:1" fill="#ed6577" d="M 296.5,151.5 C 299.325,151.081 301.491,152.081 303,154.5C 302.668,160.37 304.001,165.703 307,170.5C 307.381,177.905 304.714,179.239 299,174.5C 297.005,170.682 295.505,166.682 294.5,162.5C 292.827,164.086 290.827,164.753 288.5,164.5C 289.161,161.187 290.994,158.52 294,156.5C 294.847,154.807 295.68,153.14 296.5,151.5 Z"/></g>
<g><path style="opacity:1" fill="#ed6679" d="M 243.5,160.5 C 245.467,160.261 247.301,160.594 249,161.5C 250.306,167.642 252.139,173.475 254.5,179C 253.841,183.082 251.508,184.416 247.5,183C 244.13,180.303 242.796,176.803 243.5,172.5C 237.422,171.741 236.922,169.408 242,165.5C 242.352,163.753 242.852,162.086 243.5,160.5 Z"/></g>
<g><path style="opacity:1" fill="#e86b7c" d="M 268.5,159.5 C 273.957,158.474 276.957,160.64 277.5,166C 276.442,172.058 272.942,175.891 267,177.5C 259.561,175.786 257.394,171.619 260.5,165C 265.803,163.983 268.137,166.15 267.5,171.5C 271.1,170.68 273.1,168.347 273.5,164.5C 271.833,164.5 270.167,164.5 268.5,164.5C 268.5,162.833 268.5,161.167 268.5,159.5 Z"/></g>
<g><path style="opacity:1" fill="#ed677a" d="M 223.5,168.5 C 230.598,169.458 233.098,173.458 231,180.5C 228.27,187.053 223.437,189.22 216.5,187C 213.682,183.662 212.849,179.829 214,175.5C 216.825,172.524 219.992,170.191 223.5,168.5 Z"/></g>
<g><path style="opacity:1" fill="#fee4ed" d="M 223.5,175.5 C 224.5,175.5 225.5,175.5 226.5,175.5C 226.978,178.278 225.978,180.278 223.5,181.5C 222.481,179.54 222.481,177.54 223.5,175.5 Z"/></g>
<g><path style="opacity:1" fill="#e77e8d" d="M 585.5,171.5 C 587.311,173.385 588.478,175.719 589,178.5C 590.577,184.062 591.41,189.728 591.5,195.5C 590.833,195.833 590.167,196.167 589.5,196.5C 589.665,193.15 589.498,189.817 589,186.5C 587.131,181.655 585.965,176.655 585.5,171.5 Z"/></g>
<g><path style="opacity:1" fill="#e67584" d="M 614.5,167.5 C 614.142,171.509 613.642,175.509 613,179.5C 609.628,185.473 608.795,191.807 610.5,198.5C 609.833,197.833 609.167,197.167 608.5,196.5C 607.734,191.563 607.9,186.563 609,181.5C 610.842,176.758 612.676,172.092 614.5,167.5 Z"/></g>
<g><path style="opacity:1" fill="#fad2d9" d="M 628.5,175.5 C 627.691,181.807 626.857,188.14 626,194.5C 625.764,196.119 624.931,197.119 623.5,197.5C 624.565,189.916 626.232,182.582 628.5,175.5 Z"/></g>
<g><path style="opacity:1" fill="#e38a96" d="M 401.5,189.5 C 403.5,189.5 405.5,189.5 407.5,189.5C 406.167,190.167 404.833,190.833 403.5,191.5C 392.147,191.168 380.814,191.501 369.5,192.5C 367.896,194.179 367.229,196.179 367.5,198.5C 366.244,196.274 366.244,193.941 367.5,191.5C 369.414,190.815 371.414,190.315 373.5,190C 383.024,189.703 392.358,189.536 401.5,189.5 Z"/></g>
<g><path style="opacity:1" fill="#fbdbe1" d="M 360.5,186.5 C 362.256,187.552 362.923,189.219 362.5,191.5C 364.167,191.5 365.833,191.5 367.5,191.5C 366.244,193.941 366.244,196.274 367.5,198.5C 368.312,199.993 369.645,200.66 371.5,200.5C 379.138,199.601 386.804,199.268 394.5,199.5C 396.099,199.232 397.432,199.566 398.5,200.5C 389.477,200.284 380.477,200.617 371.5,201.5C 368.675,201.881 366.509,200.881 365,198.5C 364.83,207.676 364.33,216.676 363.5,225.5C 363.666,216.161 363.5,206.827 363,197.5C 362.351,193.75 361.518,190.083 360.5,186.5 Z"/></g>
<g><path style="opacity:1" fill="#ef6376" d="M 403.5,191.5 C 429.932,196.969 451.098,210.635 467,232.5C 478.55,249.031 483.383,267.364 481.5,287.5C 478.42,289.105 475.92,288.438 474,285.5C 473.803,277.067 472.803,268.734 471,260.5C 458.021,226.934 433.855,206.934 398.5,200.5C 397.432,199.566 396.099,199.232 394.5,199.5C 385.682,198.507 376.682,198.173 367.5,198.5C 367.229,196.179 367.896,194.179 369.5,192.5C 380.814,191.501 392.147,191.168 403.5,191.5 Z"/></g>
<g><path style="opacity:1" fill="#e07686" d="M 358.5,183.5 C 359.401,184.29 360.068,185.29 360.5,186.5C 361.518,190.083 362.351,193.75 363,197.5C 363.5,206.827 363.666,216.161 363.5,225.5C 363.784,227.415 363.451,229.081 362.5,230.5C 363.452,214.483 362.119,198.817 358.5,183.5 Z"/></g>
<g><path style="opacity:1" fill="#e26d7d" d="M 170.5,187.5 C 169.61,196.506 168.61,205.506 167.5,214.5C 168.11,220.821 168.444,227.155 168.5,233.5C 165.871,219.634 165.871,205.634 168.5,191.5C 168.66,189.847 169.326,188.514 170.5,187.5 Z"/></g>
<g><path style="opacity:1" fill="#e28895" d="M 367.5,198.5 C 376.682,198.173 385.682,198.507 394.5,199.5C 386.804,199.268 379.138,199.601 371.5,200.5C 369.645,200.66 368.312,199.993 367.5,198.5 Z"/></g>
<g><path style="opacity:1" fill="#eba1ad" d="M 607.5,202.5 C 599.981,202.175 592.648,202.508 585.5,203.5C 581.802,203.552 578.135,203.886 574.5,204.5C 576.877,203.113 579.543,202.279 582.5,202C 591.01,201.177 599.344,201.343 607.5,202.5 Z"/></g>
<g><path style="opacity:1" fill="#f26175" d="M 351.5,202.5 C 351.66,204.199 351.494,205.866 351,207.5C 349.624,208.705 348.458,210.038 347.5,211.5C 341.796,214.358 336.463,217.858 331.5,222C 302.861,248.849 294.694,281.015 307,318.5C 317.678,345.016 336.511,362.682 363.5,371.5C 367.031,372.975 370.698,374.308 374.5,375.5C 388.502,378.336 402.502,377.669 416.5,373.5C 417.5,373.667 418.5,373.833 419.5,374C 418.269,375.405 416.936,376.571 415.5,377.5C 411.266,379.955 406.6,381.289 401.5,381.5C 389.156,382.822 376.823,382.655 364.5,381C 357.198,378.733 349.865,376.566 342.5,374.5C 322.141,365.649 306.641,351.316 296,331.5C 274.562,279.833 286.395,237.666 331.5,205C 334.802,203.349 338.136,201.682 341.5,200C 344.167,199.333 346.833,199.333 349.5,200C 350.381,200.708 351.047,201.542 351.5,202.5 Z"/></g>
<g><path style="opacity:1" fill="#f26074" d="M 585.5,203.5 C 593.84,203.334 602.173,203.5 610.5,204C 620.568,205.44 630.235,207.94 639.5,211.5C 665.071,223.398 682.071,242.732 690.5,269.5C 691.797,274.737 692.464,280.07 692.5,285.5C 690.5,285.5 688.5,285.5 686.5,285.5C 686.88,283.302 686.213,281.635 684.5,280.5C 676.678,251.335 659.011,230.335 631.5,217.5C 624.856,213.337 617.523,211.337 609.5,211.5C 607.5,211.5 605.5,211.5 603.5,211.5C 592.819,210.003 582.152,210.837 571.5,214C 569.907,214.949 568.574,216.115 567.5,217.5C 550.153,225.34 536.32,237.34 526,253.5C 522.644,259.204 520.144,265.204 518.5,271.5C 513.646,284.139 512.313,297.139 514.5,310.5C 520.07,345.076 539.07,369.076 571.5,382.5C 585.312,387.303 599.645,388.803 614.5,387C 615.416,386.722 616.082,386.222 616.5,385.5C 620.894,385.131 625.227,384.465 629.5,383.5C 632.833,382.833 636.167,382.167 639.5,381.5C 639.5,382.833 639.5,384.167 639.5,385.5C 631.766,389.743 623.433,392.41 614.5,393.5C 596.962,395.34 579.629,394.34 562.5,390.5C 538.324,381.994 520.324,366.328 508.5,343.5C 506.15,336.423 503.65,329.423 501,322.5C 498.763,308.912 498.096,295.245 499,281.5C 499.667,280.833 500.333,280.167 501,279.5C 501.957,273.75 503.123,268.083 504.5,262.5C 511.33,244.327 522.996,229.993 539.5,219.5C 547.599,215.415 555.599,211.415 563.5,207.5C 566.686,205.126 570.353,204.126 574.5,204.5C 578.135,203.886 581.802,203.552 585.5,203.5 Z"/></g>
<g><path style="opacity:1" fill="#f26075" d="M 406.5,204.5 C 409.454,214.567 411.454,224.9 412.5,235.5C 413.5,235.5 414.5,235.5 415.5,235.5C 424.202,257.715 439.202,274.548 460.5,286C 470.354,289.79 480.354,292.624 490.5,294.5C 490.5,296.5 490.5,298.5 490.5,300.5C 480.993,300.912 471.66,299.912 462.5,297.5C 430.32,287.154 408.82,265.821 398,233.5C 395.349,224.82 394.515,215.987 395.5,207C 398.388,202.257 402.055,201.424 406.5,204.5 Z"/></g>
<g><path style="opacity:1" fill="#e06c7d" d="M 585.5,203.5 C 592.648,202.508 599.981,202.175 607.5,202.5C 614.282,202.925 620.949,204.092 627.5,206C 631.814,207.372 635.814,209.205 639.5,211.5C 630.235,207.94 620.568,205.44 610.5,204C 602.173,203.5 593.84,203.334 585.5,203.5 Z"/></g>
<g><path style="opacity:1" fill="#e27786" d="M 406.5,204.5 C 407.458,204.953 408.292,205.619 409,206.5C 410.528,216.35 412.695,226.017 415.5,235.5C 414.5,235.5 413.5,235.5 412.5,235.5C 411.454,224.9 409.454,214.567 406.5,204.5 Z"/></g>
<g><path style="opacity:1" fill="#db7281" d="M 603.5,211.5 C 591.001,210.808 579.001,212.808 567.5,217.5C 568.574,216.115 569.907,214.949 571.5,214C 582.152,210.837 592.819,210.003 603.5,211.5 Z"/></g>
<g><path style="opacity:1" fill="#fcdde5" d="M 351.5,191.5 C 353.145,195.21 354.145,199.21 354.5,203.5C 354.825,211.352 354.492,219.018 353.5,226.5C 353.666,221.489 353.499,216.489 353,211.5C 352.692,210.692 352.192,210.025 351.5,209.5C 350.378,210.63 349.044,211.297 347.5,211.5C 348.458,210.038 349.624,208.705 351,207.5C 351.494,205.866 351.66,204.199 351.5,202.5C 352.498,198.994 352.498,195.328 351.5,191.5 Z"/></g>
<g><path style="opacity:1" fill="#e17c89" d="M 609.5,211.5 C 617.523,211.337 624.856,213.337 631.5,217.5C 624.065,215.59 616.732,213.59 609.5,211.5 Z"/></g>
<g><path style="opacity:1" fill="#e27685" d="M 563.5,207.5 C 555.599,211.415 547.599,215.415 539.5,219.5C 546.362,213.422 554.362,209.422 563.5,207.5 Z"/></g>
<g><path style="opacity:1" fill="#e27685" d="M 580.5,249.5 C 582.118,245.368 583.284,241.035 584,236.5C 584.667,235.833 585.333,235.167 586,234.5C 587.159,229.202 587.993,223.869 588.5,218.5C 586.533,218.261 584.699,218.594 583,219.5C 581.386,227.163 579.552,234.829 577.5,242.5C 576.541,245.122 574.875,247.122 572.5,248.5C 576.559,238.821 579.726,228.821 582,218.5C 584.667,215.833 587.333,215.833 590,218.5C 590.144,222.504 589.811,226.504 589,230.5C 586.607,235.678 584.607,241.012 583,246.5C 582.148,247.571 581.315,248.571 580.5,249.5 Z"/></g>
<g><path style="opacity:1" fill="#dd7d8b" d="M 623.5,221.5 C 614.188,219.314 610.688,222.981 613,232.5C 615.079,236.652 616.579,240.986 617.5,245.5C 614.851,240.854 612.685,235.854 611,230.5C 610.449,220.526 614.616,217.526 623.5,221.5 Z"/></g>
<g><path style="opacity:1" fill="#f9bbc5" d="M 185.5,194.5 C 184.226,204.786 183.56,215.119 183.5,225.5C 182.345,218.679 182.179,211.679 183,204.5C 183.149,200.867 183.982,197.534 185.5,194.5 Z"/></g>
<g><path style="opacity:1" fill="#fdd8df" d="M 168.5,191.5 C 165.871,205.634 165.871,219.634 168.5,233.5C 169.292,238.542 170.292,243.542 171.5,248.5C 170.112,245.192 168.612,241.859 167,238.5C 165.526,226.195 164.859,213.861 165,201.5C 165.878,197.948 167.044,194.614 168.5,191.5 Z"/></g>
<g><path style="opacity:1" fill="#e47b89" d="M 796.5,210.5 C 796.324,217.905 795.491,225.238 794,232.5C 792.581,234.993 791.081,237.326 789.5,239.5C 792.804,229.967 795.137,220.3 796.5,210.5 Z"/></g>
<g><path style="opacity:1" fill="#e28694" d="M 354.5,203.5 C 355.733,214.69 355.566,226.024 354,237.5C 353.8,239.32 352.966,240.653 351.5,241.5C 352.426,236.537 353.092,231.537 353.5,226.5C 354.492,219.018 354.825,211.352 354.5,203.5 Z"/></g>
<g><path style="opacity:1" fill="#ef6477" d="M 580.5,249.5 C 573.224,262.619 563.557,273.785 551.5,283C 541.679,290.602 530.679,295.269 518.5,297C 517.62,295.644 517.286,294.144 517.5,292.5C 519.412,291.201 521.412,290.201 523.5,289.5C 532.191,286.655 540.191,282.488 547.5,277C 557.13,268.543 565.464,259.043 572.5,248.5C 574.875,247.122 576.541,245.122 577.5,242.5C 579.552,234.829 581.386,227.163 583,219.5C 584.699,218.594 586.533,218.261 588.5,218.5C 587.993,223.869 587.159,229.202 586,234.5C 585.333,235.167 584.667,235.833 584,236.5C 583.284,241.035 582.118,245.368 580.5,249.5 Z"/></g>
<g><path style="opacity:1" fill="#e38593" d="M 642.5,259.5 C 646.167,262.5 649.5,265.833 652.5,269.5C 648.167,267.167 644.833,263.833 642.5,259.5 Z"/></g>
<g><path style="opacity:1" fill="#e57988" d="M 504.5,262.5 C 503.123,268.083 501.957,273.75 501,279.5C 500.333,280.167 499.667,280.833 499,281.5C 498.096,295.245 498.763,308.912 501,322.5C 503.65,329.423 506.15,336.423 508.5,343.5C 506.833,340.833 505.167,338.167 503.5,335.5C 500.534,327.813 498.701,319.813 498,311.5C 497.5,303.173 497.334,294.84 497.5,286.5C 497.932,277.833 500.265,269.833 504.5,262.5 Z"/></g>
<g><path style="opacity:1" fill="#e17382" d="M 690.5,269.5 C 693.225,274.408 694.391,279.742 694,285.5C 687.984,289.3 684.817,287.633 684.5,280.5C 686.213,281.635 686.88,283.302 686.5,285.5C 688.5,285.5 690.5,285.5 692.5,285.5C 692.464,280.07 691.797,274.737 690.5,269.5 Z"/></g>
<g><path style="opacity:1" fill="#fad3da" d="M 518.5,271.5 C 517.418,275.754 516.751,280.087 516.5,284.5C 516.833,286.5 517.167,288.5 517.5,290.5C 519.409,289.652 521.409,289.318 523.5,289.5C 521.412,290.201 519.412,291.201 517.5,292.5C 516.434,291.308 515.601,291.641 515,293.5C 514.501,299.157 514.334,304.824 514.5,310.5C 512.313,297.139 513.646,284.139 518.5,271.5 Z"/></g>
<g><path style="opacity:1" fill="#fee0e6" d="M 733.5,289.5 C 725.586,291.4 717.419,292.4 709,292.5C 703.91,292.656 699.077,291.99 694.5,290.5C 707.516,290.633 720.516,290.299 733.5,289.5 Z"/></g>
<g><path style="opacity:1" fill="#e07b8a" d="M 676.5,296.5 C 684.972,298.804 693.639,299.804 702.5,299.5C 711.873,299.27 721.206,298.604 730.5,297.5C 714.428,302.079 698.095,302.579 681.5,299C 679.509,298.626 677.842,297.793 676.5,296.5 Z"/></g>
<g><path style="opacity:1" fill="#e07d8b" d="M 490.5,294.5 C 491.88,294.962 492.547,295.962 492.5,297.5C 492.154,298.849 491.821,300.183 491.5,301.5C 481.177,303.607 471.511,302.274 462.5,297.5C 471.66,299.912 480.993,300.912 490.5,300.5C 490.5,298.5 490.5,296.5 490.5,294.5 Z"/></g>
<g><path style="opacity:1" fill="#df6e7e" d="M 241.5,299.5 C 254.945,302.749 268.611,304.249 282.5,304C 285.124,305.969 285.124,307.802 282.5,309.5C 282.5,308.167 282.5,306.833 282.5,305.5C 270.691,305.981 259.024,305.147 247.5,303C 244.981,302.414 242.981,301.247 241.5,299.5 Z"/></g>
<g><path style="opacity:1" fill="#e27382" d="M 234.5,307.5 C 239.27,307.692 243.936,308.525 248.5,310C 259.846,310.593 271.179,310.426 282.5,309.5C 282.389,310.117 282.056,310.617 281.5,311C 269.159,312.89 256.826,312.89 244.5,311C 240.972,310.054 237.639,308.887 234.5,307.5 Z"/></g>
<g><path style="opacity:1" fill="#fee2e8" d="M 497.5,286.5 C 497.334,294.84 497.5,303.173 498,311.5C 498.701,319.813 500.534,327.813 503.5,335.5C 502.466,334.313 501.133,333.48 499.5,333C 500.059,332.275 500.392,331.442 500.5,330.5C 497.379,322.198 496.045,313.531 496.5,304.5C 496.177,298.31 496.51,292.31 497.5,286.5 Z"/></g>
<g><path style="opacity:1" fill="#ec6678" d="M 479.5,305.5 C 479.762,312.55 478.262,319.217 475,325.5C 462.386,351.292 442.553,368.625 415.5,377.5C 416.936,376.571 418.269,375.405 419.5,374C 418.5,373.833 417.5,373.667 416.5,373.5C 402.502,377.669 388.502,378.336 374.5,375.5C 383.506,375.666 392.506,375.5 401.5,375C 403.058,374.79 404.391,374.29 405.5,373.5C 411.312,372.571 416.979,371.071 422.5,369C 448.596,355.609 465.262,334.775 472.5,306.5C 474.615,304.385 476.949,304.051 479.5,305.5 Z"/></g>
<g><path style="opacity:1" fill="#ee6678" d="M 692.5,303.5 C 693.995,305.331 694.662,307.498 694.5,310C 690.205,338.926 676.205,361.926 652.5,379C 648.275,381.393 643.942,383.56 639.5,385.5C 639.5,384.167 639.5,382.833 639.5,381.5C 636.167,382.167 632.833,382.833 629.5,383.5C 638.407,379.374 646.74,374.207 654.5,368C 673.409,351.419 683.909,330.586 686,305.5C 687.789,303.771 689.956,303.104 692.5,303.5 Z"/></g>
<g><path style="opacity:1" fill="#fddde3" d="M 363.5,371.5 C 377.443,373.128 391.443,373.794 405.5,373.5C 404.391,374.29 403.058,374.79 401.5,375C 392.506,375.5 383.506,375.666 374.5,375.5C 370.698,374.308 367.031,372.975 363.5,371.5 Z"/></g>
<g><path style="opacity:1" fill="#e17484" d="M 342.5,374.5 C 349.865,376.566 357.198,378.733 364.5,381C 376.823,382.655 389.156,382.822 401.5,381.5C 400.048,382.302 398.382,382.802 396.5,383C 381.973,384.339 367.64,383.339 353.5,380C 349.481,378.605 345.814,376.772 342.5,374.5 Z"/></g>
<g><path style="opacity:1" fill="#fdd9e0" d="M 571.5,382.5 C 576.746,382.278 581.746,383.111 586.5,385C 596.494,385.5 606.494,385.666 616.5,385.5C 616.082,386.222 615.416,386.722 614.5,387C 599.645,388.803 585.312,387.303 571.5,382.5 Z"/></g>
<g><path style="opacity:1" fill="#e57e8d" d="M 562.5,390.5 C 579.629,394.34 596.962,395.34 614.5,393.5C 611.097,394.925 607.43,395.758 603.5,396C 589.176,397.908 575.509,396.074 562.5,390.5 Z"/></g>
<g><path style="opacity:1" fill="#e6909d" d="M 431.5,445.5 C 430.056,440.433 427.222,439.433 423,442.5C 422.501,448.491 422.334,454.491 422.5,460.5C 422.167,460.5 421.833,460.5 421.5,460.5C 421.334,454.158 421.5,447.825 422,441.5C 427.514,436.846 430.681,438.179 431.5,445.5 Z"/></g>
<g><path style="opacity:1" fill="#f26074" d="M 635.5,474.5 C 636.365,477.971 637.532,481.304 639,484.5C 640.5,491 638,493.5 631.5,492C 626.301,484.379 623.968,475.879 624.5,466.5C 621.5,466.5 618.5,466.5 615.5,466.5C 615.286,464.856 615.62,463.356 616.5,462C 618.866,461.56 621.199,461.06 623.5,460.5C 624.328,454.681 624.828,448.681 625,442.5C 626.444,440.845 628.278,440.178 630.5,440.5C 632.118,447.297 632.952,454.297 633,461.5C 648.419,463.85 648.253,464.85 632.5,464.5C 632.335,467.518 632.502,470.518 633,473.5C 633.671,474.252 634.504,474.586 635.5,474.5 Z"/></g>
<g><path style="opacity:1" fill="#f16175" d="M 385.5,477.5 C 387.99,479.489 390.323,481.656 392.5,484C 401.958,486.918 407.792,483.418 410,473.5C 410.499,469.179 410.666,464.846 410.5,460.5C 409.992,457.824 409.825,455.157 410,452.5C 414.949,462.104 415.782,472.104 412.5,482.5C 411.647,486.02 409.647,488.687 406.5,490.5C 400.211,491.372 393.878,491.705 387.5,491.5C 374.497,483.351 369.997,471.685 374,456.5C 374.522,453.719 375.689,451.385 377.5,449.5C 380.348,446.503 383.681,444.003 387.5,442C 391.833,441.333 396.167,441.333 400.5,442C 401.308,442.308 401.975,442.808 402.5,443.5C 398.204,444.328 393.871,444.828 389.5,445C 388.692,446.706 387.359,447.539 385.5,447.5C 384.507,450.073 383.674,452.74 383,455.5C 382.333,456.167 381.667,456.833 381,457.5C 380.171,462.864 380.337,468.198 381.5,473.5C 382.667,475.079 384,476.412 385.5,477.5 Z"/></g>
<g><path style="opacity:1" fill="#e76b7c" d="M 412.5,482.5 C 415.782,472.104 414.949,462.104 410,452.5C 409.825,455.157 409.992,457.824 410.5,460.5C 408.744,455.838 406.077,451.671 402.5,448C 393.264,444.202 387.097,447.035 384,456.5C 382.999,463.67 383.499,470.67 385.5,477.5C 384,476.412 382.667,475.079 381.5,473.5C 380.337,468.198 380.171,462.864 381,457.5C 381.667,456.833 382.333,456.167 383,455.5C 383.674,452.74 384.507,450.073 385.5,447.5C 387.359,447.539 388.692,446.706 389.5,445C 393.871,444.828 398.204,444.328 402.5,443.5C 401.975,442.808 401.308,442.308 400.5,442C 396.167,441.333 391.833,441.333 387.5,442C 383.681,444.003 380.348,446.503 377.5,449.5C 381.635,441.276 388.302,438.11 397.5,440C 407.026,442.529 412.859,448.696 415,458.5C 415.667,465.5 415.667,472.5 415,479.5C 414.148,480.571 413.315,481.571 412.5,482.5 Z"/></g>
<g><path style="opacity:1" fill="#0a0a0a" d="M 540.5,446.5 C 544,446.495 545.5,448.162 545,451.5C 541.386,454.261 537.386,456.261 533,457.5C 531.004,466.232 531.338,474.898 534,483.5C 534.943,486.109 536.61,488.109 539,489.5C 539.548,493.662 537.714,495.162 533.5,494C 531.448,493.07 529.948,491.57 529,489.5C 525.12,479.463 523.954,469.13 525.5,458.5C 524.167,458.5 522.833,458.5 521.5,458.5C 521.666,465.508 521.5,472.508 521,479.5C 519.794,484.792 517.628,489.625 514.5,494C 511.886,494.505 510.553,493.338 510.5,490.5C 511.897,485.808 513.397,481.142 515,476.5C 515.772,471.096 515.439,465.762 514,460.5C 509.843,457.766 505.843,458.1 502,461.5C 500.21,468.855 498.044,469.188 495.5,462.5C 496.006,455.882 499.672,452.382 506.5,452C 513.833,451.667 521.167,451.333 528.5,451C 533,450.559 537,449.059 540.5,446.5 Z"/></g>
<g><path style="opacity:1" fill="#fcf7f8" d="M 410.5,460.5 C 410.666,464.846 410.499,469.179 410,473.5C 407.792,483.418 401.958,486.918 392.5,484C 390.323,481.656 387.99,479.489 385.5,477.5C 383.499,470.67 382.999,463.67 384,456.5C 387.097,447.035 393.264,444.202 402.5,448C 406.077,451.671 408.744,455.838 410.5,460.5 Z"/></g>
<g><path style="opacity:1" fill="#f35e73" d="M 431.5,445.5 C 431.5,450.5 431.5,455.5 431.5,460.5C 432.504,469.181 432.504,477.848 431.5,486.5C 429.784,486.371 428.117,486.038 426.5,485.5C 425.766,484.292 425.433,482.959 425.5,481.5C 424.245,474.413 423.245,467.413 422.5,460.5C 422.334,454.491 422.501,448.491 423,442.5C 427.222,439.433 430.056,440.433 431.5,445.5 Z"/></g>
<g><path style="opacity:1" fill="#d9727f" d="M 445.5,454.5 C 449.473,455.075 450.473,457.242 448.5,461C 447.216,461.684 446.049,461.517 445,460.5C 444.322,458.402 444.489,456.402 445.5,454.5 Z"/></g>
<g><path style="opacity:1" fill="#ef6376" d="M 338.5,459.5 C 344.061,458.802 349.227,459.802 354,462.5C 355.256,467.229 354.089,471.229 350.5,474.5C 347.049,476.756 343.382,478.423 339.5,479.5C 339.744,482.263 341.077,484.429 343.5,486C 350.81,487.415 357.644,486.248 364,482.5C 367.994,484.247 368.494,486.747 365.5,490C 356.981,494.381 347.981,496.048 338.5,495C 327.979,486.853 325.812,477.02 332,465.5C 334.063,463.266 336.229,461.266 338.5,459.5 Z"/></g>
<g><path style="opacity:1" fill="#e26d7e" d="M 635.5,474.5 C 634.504,474.586 633.671,474.252 633,473.5C 632.502,470.518 632.335,467.518 632.5,464.5C 648.253,464.85 648.419,463.85 633,461.5C 632.952,454.297 632.118,447.297 630.5,440.5C 628.278,440.178 626.444,440.845 625,442.5C 624.828,448.681 624.328,454.681 623.5,460.5C 623.334,453.492 623.5,446.492 624,439.5C 624.804,438.196 625.971,437.529 627.5,437.5C 630.104,438.269 631.938,439.936 633,442.5C 633.499,448.491 633.666,454.491 633.5,460.5C 637.22,460.564 640.886,461.064 644.5,462C 645.38,463.356 645.714,464.856 645.5,466.5C 641.833,466.5 638.167,466.5 634.5,466.5C 634.833,469.167 635.167,471.833 635.5,474.5 Z"/></g>
<g><path style="opacity:1" fill="#fbe0e6" d="M 431.5,445.5 C 433.474,456.613 434.974,467.946 436,479.5C 438.924,483.7 437.758,486.7 432.5,488.5C 434.137,487.026 435.137,485.192 435.5,483C 434.247,476.219 433.414,469.386 433,462.5C 432.722,461.584 432.222,460.918 431.5,460.5C 431.5,455.5 431.5,450.5 431.5,445.5 Z"/></g>
<g><path style="opacity:1" fill="#e17483" d="M 595.5,471.5 C 600.708,469.498 600.375,467.831 594.5,466.5C 587.056,468.707 584.389,473.707 586.5,481.5C 584.029,477.413 583.863,473.08 586,468.5C 591.871,462.747 597.038,463.247 601.5,470C 601.333,471.5 600.5,472.333 599,472.5C 597.862,472.011 596.695,471.678 595.5,471.5 Z"/></g>
<g><path style="opacity:1" fill="#f55d73" d="M 590.5,484.5 C 588.596,484.262 587.262,483.262 586.5,481.5C 584.389,473.707 587.056,468.707 594.5,466.5C 600.375,467.831 600.708,469.498 595.5,471.5C 595.167,472.167 594.833,472.833 594.5,473.5C 592.72,474.99 592.054,476.99 592.5,479.5C 596.603,480.231 600.103,479.231 603,476.5C 603.942,472.532 604.775,468.532 605.5,464.5C 606.881,465 607.547,466 607.5,467.5C 606.037,469.946 606.204,472.28 608,474.5C 608.414,474.043 608.914,473.709 609.5,473.5C 610.429,474.689 610.762,476.022 610.5,477.5C 609.07,477.421 607.736,477.754 606.5,478.5C 602.537,483.825 597.204,485.825 590.5,484.5 Z"/></g>
<g><path style="opacity:1" fill="#f6c8d0" d="M 421.5,460.5 C 421.833,460.5 422.167,460.5 422.5,460.5C 423.245,467.413 424.245,474.413 425.5,481.5C 422.395,474.972 421.062,467.972 421.5,460.5 Z"/></g>
<g><path style="opacity:1" fill="#e46f80" d="M 590.5,484.5 C 597.204,485.825 602.537,483.825 606.5,478.5C 607.736,477.754 609.07,477.421 610.5,477.5C 610.762,476.022 610.429,474.689 609.5,473.5C 608.914,473.709 608.414,474.043 608,474.5C 606.204,472.28 606.037,469.946 607.5,467.5C 607.547,466 606.881,465 605.5,464.5C 604.775,468.532 603.942,472.532 603,476.5C 600.103,479.231 596.603,480.231 592.5,479.5C 592.054,476.99 592.72,474.99 594.5,473.5C 594.5,475.167 594.5,476.833 594.5,478.5C 597.652,479.041 600.152,478.041 602,475.5C 602.333,471.5 602.667,467.5 603,463.5C 605.267,462.065 607.267,462.398 609,464.5C 608.707,468.568 610.041,471.902 613,474.5C 613.667,475.833 613.667,477.167 613,478.5C 607.974,480.501 603.141,483.001 598.5,486C 596.167,486.667 593.833,486.667 591.5,486C 590.944,485.617 590.611,485.117 590.5,484.5 Z"/></g>
<g><path style="opacity:1" fill="#f06175" d="M 447.5,469.5 C 449.511,471.667 450.678,474.334 451,477.5C 452.184,481.449 452.518,485.449 452,489.5C 449.936,490.591 447.769,490.758 445.5,490C 443.193,486.884 441.86,483.384 441.5,479.5C 440.679,476.446 440.679,473.446 441.5,470.5C 443.409,469.652 445.409,469.318 447.5,469.5 Z"/></g>
<g><path style="opacity:1" fill="#fee4ea" d="M 341.5,465.5 C 344.167,465.5 346.833,465.5 349.5,465.5C 349.607,467.903 348.607,469.736 346.5,471C 336.791,476.479 335.124,474.645 341.5,465.5 Z"/></g>
<g><path style="opacity:1" fill="#ed6678" d="M 493.5,487.5 C 491.504,489.333 489.171,489.833 486.5,489C 484.668,485.005 483.335,480.838 482.5,476.5C 481.675,475.614 480.675,475.281 479.5,475.5C 479.664,478.187 479.497,480.854 479,483.5C 477.556,485.155 475.722,485.822 473.5,485.5C 471.4,483.502 469.4,481.335 467.5,479C 466.552,478.517 465.552,478.351 464.5,478.5C 464.532,484.189 464.866,489.855 465.5,495.5C 463.856,495.714 462.356,495.38 461,494.5C 458.683,488.705 458.016,482.705 459,476.5C 459.785,474.714 460.951,473.214 462.5,472C 466.65,471.502 470.65,471.836 474.5,473C 476.422,468.373 479.755,466.373 484.5,467C 489.991,472.683 492.991,479.516 493.5,487.5 Z"/></g>
<g><path style="opacity:1" fill="#e28d99" d="M 447.5,469.5 C 445.409,469.318 443.409,469.652 441.5,470.5C 440.679,473.446 440.679,476.446 441.5,479.5C 439.663,476.481 439.163,473.148 440,469.5C 442.539,466.933 445.039,466.933 447.5,469.5 Z"/></g>
<g><path style="opacity:1" fill="#e66c7d" d="M 431.5,460.5 C 432.222,460.918 432.722,461.584 433,462.5C 433.414,469.386 434.247,476.219 435.5,483C 435.137,485.192 434.137,487.026 432.5,488.5C 429.687,488.975 427.687,487.975 426.5,485.5C 428.117,486.038 429.784,486.371 431.5,486.5C 432.504,477.848 432.504,469.181 431.5,460.5 Z"/></g>
<g><path style="opacity:1" fill="#fbdee4" d="M 493.5,487.5 C 492.526,491.009 490.193,492.176 486.5,491C 484.428,487.798 482.928,484.298 482,480.5C 480.834,485.564 478.001,487.231 473.5,485.5C 475.722,485.822 477.556,485.155 479,483.5C 479.497,480.854 479.664,478.187 479.5,475.5C 480.675,475.281 481.675,475.614 482.5,476.5C 483.335,480.838 484.668,485.005 486.5,489C 489.171,489.833 491.504,489.333 493.5,487.5 Z"/></g>
<g><path style="opacity:1" fill="#ef6477" d="M 576.5,461.5 C 577.787,474.54 579.121,487.54 580.5,500.5C 579.547,502.61 577.881,503.777 575.5,504C 572.833,504.667 570.167,504.667 567.5,504C 561.634,500.501 557.801,495.668 556,489.5C 557.466,487.675 559.299,487.175 561.5,488C 563.749,492.774 567.416,495.274 572.5,495.5C 572.314,489.118 571.647,482.785 570.5,476.5C 556.678,483.19 550.844,478.857 553,463.5C 555.479,460.907 557.979,460.907 560.5,463.5C 561.487,466.768 561.82,470.102 561.5,473.5C 565.182,474.275 567.682,472.941 569,469.5C 570.199,466.274 570.699,462.941 570.5,459.5C 573.01,459.054 575.01,459.72 576.5,461.5 Z"/></g>
<g><path style="opacity:1" fill="#df7887" d="M 406.5,490.5 C 403.32,492.867 399.653,493.867 395.5,493.5C 392.473,493.713 389.807,493.047 387.5,491.5C 393.878,491.705 400.211,491.372 406.5,490.5 Z"/></g>
<g><path style="opacity:1" fill="#de7b89" d="M 576.5,461.5 C 578.64,470.297 580.14,479.297 581,488.5C 581.812,492.689 581.645,496.689 580.5,500.5C 579.121,487.54 577.787,474.54 576.5,461.5 Z"/></g>
</svg>
